AsbirMono-Black.ufo
<glyph name="exclam" format="2">
  <advance width="600"/>
  <unicode hex="0021"/>
  <outline>
    <contour>
      <point x="240" y="240" type="curve"/>
      <point x="360" y="240" type="line"/>
      <point x="370" y="296"/>
      <point x="382" y="410"/>
      <point x="382" y="490" type="curve" smooth="yes"/>
      <point x="382" y="710" type="line"/>
      <point x="218" y="710" type="line"/>
      <point x="218" y="490" type="line" smooth="yes"/>
      <point x="218" y="410"/>
      <point x="230" y="296"/>
    </contour>
    <component base="period"/>
  </outline>
</glyph>
<glyph name="quotedbl" format="2">
  <advance width="600"/>
  <unicode hex="0022"/>
  <outline>
    <contour>
      <point x="342" y="312" type="line"/>
      <point x="466" y="312" type="line"/>
      <point x="490" y="594" type="line"/>
      <point x="490" y="710" type="line"/>
      <point x="338" y="710" type="line"/>
    </contour>
    <contour>
      <point x="134" y="312" type="line"/>
      <point x="258" y="312" type="line"/>
      <point x="262" y="710" type="line"/>
      <point x="110" y="710" type="line"/>
      <point x="110" y="594" type="line"/>
    </contour>
  </outline>
</glyph>
<glyph name="numbersign" format="2">
  <advance width="600"/>
  <unicode hex="0023"/>
  <outline>
    <contour>
      <point x="283" y="0" type="line"/>
      <point x="421" y="0" type="line"/>
      <point x="533" y="710" type="line"/>
      <point x="396" y="710" type="line"/>
    </contour>
    <contour>
      <point x="20" y="158" type="line"/>
      <point x="524" y="158" type="line"/>
      <point x="542" y="292" type="line"/>
      <point x="38" y="292" type="line"/>
    </contour>
    <contour>
      <point x="67" y="0" type="line"/>
      <point x="205" y="0" type="line"/>
      <point x="312" y="710" type="line"/>
      <point x="180" y="710" type="line"/>
    </contour>
    <contour>
      <point x="58" y="412" type="line"/>
      <point x="562" y="412" type="line"/>
      <point x="580" y="546" type="line"/>
      <point x="76" y="546" type="line"/>
    </contour>
  </outline>
</glyph>
<glyph name="dollar" format="2">
  <advance width="600"/>
  <unicode hex="0024"/>
  <outline>
    <contour>
      <point x="260" y="-91" type="line"/>
      <point x="346" y="-91" type="line"/>
      <point x="346" y="805" type="line"/>
      <point x="260" y="805" type="line"/>
    </contour>
    <contour>
      <point x="302" y="-6" type="curve" smooth="yes"/>
      <point x="468" y="-6"/>
      <point x="560" y="68"/>
      <point x="560" y="206" type="curve" smooth="yes"/>
      <point x="560" y="314"/>
      <point x="510" y="384"/>
      <point x="344" y="424" type="curve" smooth="yes"/>
      <point x="236" y="450"/>
      <point x="212" y="466"/>
      <point x="212" y="512" type="curve" smooth="yes"/>
      <point x="212" y="549"/>
      <point x="237" y="572"/>
      <point x="294" y="572" type="curve" smooth="yes"/>
      <point x="360" y="572"/>
      <point x="377" y="539"/>
      <point x="385" y="473" type="curve"/>
      <point x="555" y="480" type="line"/>
      <point x="547" y="635"/>
      <point x="457" y="716"/>
      <point x="302" y="716" type="curve" smooth="yes"/>
      <point x="140" y="716"/>
      <point x="56" y="632"/>
      <point x="56" y="504" type="curve" smooth="yes"/>
      <point x="56" y="378"/>
      <point x="140" y="320"/>
      <point x="262" y="294" type="curve" smooth="yes"/>
      <point x="370" y="271"/>
      <point x="400" y="245"/>
      <point x="400" y="196" type="curve" smooth="yes"/>
      <point x="400" y="158"/>
      <point x="373" y="138"/>
      <point x="309" y="138" type="curve" smooth="yes"/>
      <point x="247" y="138"/>
      <point x="222" y="174"/>
      <point x="210" y="257" type="curve"/>
      <point x="40" y="249" type="line"/>
      <point x="51" y="79"/>
      <point x="133" y="-6"/>
    </contour>
  </outline>
</glyph>
<glyph name="percent" format="2">
  <advance width="600"/>
  <unicode hex="0025"/>
  <outline>
    <contour>
      <point x="150" y="366" type="curve" smooth="yes"/>
      <point x="240" y="366"/>
      <point x="300" y="419"/>
      <point x="300" y="542" type="curve" smooth="yes"/>
      <point x="300" y="664"/>
      <point x="240" y="718"/>
      <point x="150" y="718" type="curve" smooth="yes"/>
      <point x="60" y="718"/>
      <point x="0" y="664"/>
      <point x="0" y="542" type="curve" smooth="yes"/>
      <point x="0" y="419"/>
      <point x="60" y="366"/>
    </contour>
    <contour>
      <point x="150" y="452" type="curve" smooth="yes"/>
      <point x="126" y="452"/>
      <point x="114" y="479"/>
      <point x="114" y="542" type="curve" smooth="yes"/>
      <point x="114" y="604"/>
      <point x="126" y="632"/>
      <point x="150" y="632" type="curve" smooth="yes"/>
      <point x="174" y="632"/>
      <point x="186" y="604"/>
      <point x="186" y="542" type="curve" smooth="yes"/>
      <point x="186" y="479"/>
      <point x="174" y="452"/>
    </contour>
    <contour>
      <point x="51" y="0" type="line"/>
      <point x="151" y="0" type="line"/>
      <point x="549" y="710" type="line"/>
      <point x="449" y="710" type="line"/>
    </contour>
    <contour>
      <point x="450" y="-8" type="curve" smooth="yes"/>
      <point x="540" y="-8"/>
      <point x="600" y="45"/>
      <point x="600" y="168" type="curve" smooth="yes"/>
      <point x="600" y="290"/>
      <point x="540" y="344"/>
      <point x="450" y="344" type="curve" smooth="yes"/>
      <point x="360" y="344"/>
      <point x="300" y="290"/>
      <point x="300" y="168" type="curve" smooth="yes"/>
      <point x="300" y="45"/>
      <point x="360" y="-8"/>
    </contour>
    <contour>
      <point x="450" y="78" type="curve" smooth="yes"/>
      <point x="426" y="78"/>
      <point x="414" y="105"/>
      <point x="414" y="168" type="curve" smooth="yes"/>
      <point x="414" y="230"/>
      <point x="426" y="258"/>
      <point x="450" y="258" type="curve" smooth="yes"/>
      <point x="474" y="258"/>
      <point x="486" y="230"/>
      <point x="486" y="168" type="curve" smooth="yes"/>
      <point x="486" y="105"/>
      <point x="474" y="78"/>
    </contour>
  </outline>
</glyph>
<glyph name="ampersand" format="2">
  <advance width="600"/>
  <unicode hex="0026"/>
  <outline>
    <contour>
      <point x="216" y="-16" type="curve" smooth="yes"/>
      <point x="303" y="-16"/>
      <point x="356" y="8"/>
      <point x="388" y="34" type="curve"/>
      <point x="414" y="0" type="line"/>
      <point x="590" y="0" type="line"/>
      <point x="502" y="120" type="line"/>
      <point x="551" y="173"/>
      <point x="592" y="243"/>
      <point x="600" y="316" type="curve"/>
      <point x="450" y="336" type="line"/>
      <point x="447" y="307"/>
      <point x="431" y="275"/>
      <point x="418" y="260" type="curve"/>
      <point x="354" y="348" type="line"/>
      <point x="448" y="404"/>
      <point x="505" y="465"/>
      <point x="505" y="554" type="curve" smooth="yes"/>
      <point x="505" y="654"/>
      <point x="446" y="726"/>
      <point x="297" y="726" type="curve" smooth="yes"/>
      <point x="158" y="726"/>
      <point x="80" y="648"/>
      <point x="80" y="534" type="curve" smooth="yes"/>
      <point x="80" y="472"/>
      <point x="112" y="426"/>
      <point x="144" y="384" type="curve"/>
      <point x="47" y="325"/>
      <point x="0" y="266"/>
      <point x="0" y="166" type="curve" smooth="yes"/>
      <point x="0" y="52"/>
      <point x="70" y="-16"/>
    </contour>
    <contour>
      <point x="238" y="141" type="curve" smooth="yes"/>
      <point x="203" y="141"/>
      <point x="180" y="166"/>
      <point x="180" y="200" type="curve" smooth="yes"/>
      <point x="180" y="229"/>
      <point x="197" y="256"/>
      <point x="224" y="274" type="curve"/>
      <point x="304" y="162" type="line"/>
      <point x="288" y="148"/>
      <point x="267" y="141"/>
    </contour>
    <contour>
      <point x="280" y="456" type="curve"/>
      <point x="254" y="486"/>
      <point x="247" y="514"/>
      <point x="247" y="534" type="curve" smooth="yes"/>
      <point x="247" y="560"/>
      <point x="264" y="579"/>
      <point x="295" y="579" type="curve" smooth="yes"/>
      <point x="324" y="579"/>
      <point x="341" y="560"/>
      <point x="341" y="534" type="curve" smooth="yes"/>
      <point x="341" y="506"/>
      <point x="319" y="480"/>
    </contour>
  </outline>
</glyph>
<glyph name="quotesingle" format="2">
  <advance width="600"/>
  <unicode hex="0027"/>
  <outline>
    <contour>
      <point x="232" y="312" type="line"/>
      <point x="368" y="312" type="line"/>
      <point x="380" y="590" type="line"/>
      <point x="380" y="710" type="line"/>
      <point x="220" y="710" type="line"/>
      <point x="220" y="590" type="line"/>
    </contour>
  </outline>
</glyph>
<glyph name="parenleft" format="2">
  <advance width="600"/>
  <unicode hex="0028"/>
  <outline>
    <contour>
      <point x="308" y="-110" type="curve"/>
      <point x="480" y="-110" type="line"/>
      <point x="347" y="34"/>
      <point x="308" y="177"/>
      <point x="308" y="320" type="curve" smooth="yes"/>
      <point x="308" y="463"/>
      <point x="347" y="607"/>
      <point x="480" y="750" type="curve"/>
      <point x="308" y="750" type="line"/>
      <point x="165" y="608"/>
      <point x="120" y="464"/>
      <point x="120" y="320" type="curve" smooth="yes"/>
      <point x="120" y="176"/>
      <point x="165" y="32"/>
    </contour>
  </outline>
</glyph>
<glyph name="asterisk" format="2">
  <advance width="600"/>
  <unicode hex="002A"/>
  <outline>
    <contour>
      <point x="216" y="263" type="line"/>
      <point x="300" y="385" type="line"/>
      <point x="384" y="263" type="line"/>
      <point x="470" y="323" type="line"/>
      <point x="382" y="435" type="line"/>
      <point x="520" y="434" type="line"/>
      <point x="520" y="539" type="line"/>
      <point x="382" y="538" type="line"/>
      <point x="470" y="650" type="line"/>
      <point x="384" y="710" type="line"/>
      <point x="300" y="588" type="line"/>
      <point x="216" y="710" type="line"/>
      <point x="130" y="650" type="line"/>
      <point x="218" y="538" type="line"/>
      <point x="80" y="539" type="line"/>
      <point x="80" y="434" type="line"/>
      <point x="218" y="435" type="line"/>
      <point x="130" y="323" type="line"/>
    </contour>
  </outline>
</glyph>
<glyph name="plus" format="2">
  <advance width="600"/>
  <unicode hex="002B"/>
  <outline>
    <contour>
      <point x="51" y="206" type="line"/>
      <point x="549" y="206" type="line"/>
      <point x="549" y="356" type="line"/>
      <point x="51" y="356" type="line"/>
    </contour>
    <contour>
      <point x="225" y="32" type="line"/>
      <point x="375" y="32" type="line"/>
      <point x="375" y="530" type="line"/>
      <point x="225" y="530" type="line"/>
    </contour>
  </outline>
</glyph>
<glyph name="comma" format="2">
  <advance width="600"/>
  <unicode hex="002C"/>
  <outline>
    <contour>
      <point x="220" y="-162" type="line"/>
      <point x="320" y="-162" type="line"/>
      <point x="390" y="16" type="line"/>
      <point x="390" y="170" type="line"/>
      <point x="210" y="170" type="line"/>
      <point x="210" y="0" type="line"/>
      <point x="284" y="0" type="line"/>
    </contour>
  </outline>
</glyph>
<glyph name="period" format="2">
  <advance width="600"/>
  <unicode hex="002E"/>
  <outline>
    <contour>
      <point x="210" y="0" type="line"/>
      <point x="390" y="0" type="line"/>
      <point x="390" y="170" type="line"/>
      <point x="210" y="170" type="line"/>
    </contour>
  </outline>
</glyph>
<glyph name="slash" format="2">
  <advance width="600"/>
  <unicode hex="002F"/>
  <outline>
    <contour>
      <point x="72" y="-110" type="line"/>
      <point x="232" y="-110" type="line"/>
      <point x="528" y="750" type="line"/>
      <point x="368" y="750" type="line"/>
    </contour>
  </outline>
</glyph>
<glyph name="zero" format="2">
  <advance width="600"/>
  <unicode hex="0030"/>
  <outline>
    <contour>
      <point x="138" y="124" type="line"/>
      <point x="218" y="114" type="line"/>
      <point x="462" y="586" type="line"/>
      <point x="382" y="596" type="line"/>
    </contour>
    <component base="zero.ss09"/>
  </outline>
</glyph>
<glyph name="one" format="2">
  <advance width="600"/>
  <unicode hex="0031"/>
  <outline>
    <contour>
      <point x="230" y="0" type="line"/>
      <point x="410" y="0" type="line"/>
      <point x="410" y="710" type="line"/>
      <point x="250" y="710" type="line"/>
      <point x="250" y="610"/>
      <point x="214" y="574"/>
      <point x="130" y="574" type="curve" smooth="yes"/>
      <point x="64" y="574" type="line"/>
      <point x="64" y="426" type="line"/>
      <point x="230" y="426" type="line"/>
    </contour>
    <contour>
      <point x="40" y="0" type="line"/>
      <point x="560" y="0" type="line"/>
      <point x="560" y="158" type="line"/>
      <point x="40" y="158" type="line"/>
    </contour>
  </outline>
</glyph>
<glyph name="two" format="2">
  <advance width="600"/>
  <unicode hex="0032"/>
  <outline>
    <contour>
      <point x="40" y="0" type="curve"/>
      <point x="560" y="0" type="line"/>
      <point x="560" y="158" type="line"/>
      <point x="241" y="158" type="line"/>
      <point x="245" y="182"/>
      <point x="270" y="203"/>
      <point x="376" y="262" type="curve" smooth="yes"/>
      <point x="511" y="337"/>
      <point x="560" y="394"/>
      <point x="560" y="512" type="curve" smooth="yes"/>
      <point x="560" y="641"/>
      <point x="482" y="726"/>
      <point x="314" y="726" type="curve" smooth="yes"/>
      <point x="144" y="726"/>
      <point x="55" y="635"/>
      <point x="42" y="486" type="curve"/>
      <point x="228" y="476" type="line"/>
      <point x="238" y="538"/>
      <point x="257" y="572"/>
      <point x="310" y="572" type="curve" smooth="yes"/>
      <point x="353" y="572"/>
      <point x="376" y="546"/>
      <point x="376" y="500" type="curve" smooth="yes"/>
      <point x="376" y="440"/>
      <point x="341" y="414"/>
      <point x="286" y="386" type="curve" smooth="yes"/>
      <point x="97" y="290"/>
      <point x="40" y="188"/>
    </contour>
  </outline>
</glyph>
<glyph name="three" format="2">
  <advance width="600"/>
  <unicode hex="0033"/>
  <outline>
    <contour>
      <point x="296" y="-16" type="curve" smooth="yes"/>
      <point x="464" y="-16"/>
      <point x="560" y="68"/>
      <point x="560" y="202" type="curve" smooth="yes"/>
      <point x="560" y="306"/>
      <point x="498" y="374"/>
      <point x="385" y="388" type="curve"/>
      <point x="385" y="368" type="line"/>
      <point x="484" y="384"/>
      <point x="540" y="438"/>
      <point x="540" y="530" type="curve" smooth="yes"/>
      <point x="540" y="656"/>
      <point x="448" y="726"/>
      <point x="298" y="726" type="curve" smooth="yes"/>
      <point x="146" y="726"/>
      <point x="62" y="647"/>
      <point x="48" y="516" type="curve"/>
      <point x="228" y="508" type="line"/>
      <point x="232" y="548"/>
      <point x="252" y="574"/>
      <point x="296" y="574" type="curve" smooth="yes"/>
      <point x="330" y="574"/>
      <point x="356" y="552"/>
      <point x="356" y="502" type="curve" smooth="yes"/>
      <point x="356" y="454"/>
      <point x="330" y="432"/>
      <point x="286" y="432" type="curve" smooth="yes"/>
      <point x="234" y="432" type="line"/>
      <point x="234" y="300" type="line"/>
      <point x="286" y="300" type="line" smooth="yes"/>
      <point x="348" y="300"/>
      <point x="376" y="269"/>
      <point x="376" y="218" type="curve" smooth="yes"/>
      <point x="376" y="166"/>
      <point x="348" y="138"/>
      <point x="300" y="138" type="curve" smooth="yes"/>
      <point x="260" y="138"/>
      <point x="226" y="156"/>
      <point x="220" y="212" type="curve"/>
      <point x="40" y="204" type="line"/>
      <point x="48" y="68"/>
      <point x="126" y="-16"/>
    </contour>
  </outline>
</glyph>
<glyph name="four" format="2">
  <advance width="600"/>
  <unicode hex="0034"/>
  <outline>
    <contour>
      <point x="317" y="0" type="line"/>
      <point x="497" y="0" type="line"/>
      <point x="497" y="134" type="line"/>
      <point x="580" y="134" type="line"/>
      <point x="580" y="284" type="line"/>
      <point x="497" y="284" type="line"/>
      <point x="497" y="710" type="line"/>
      <point x="288" y="710" type="line"/>
      <point x="20" y="277" type="line"/>
      <point x="20" y="134" type="line"/>
      <point x="317" y="134" type="line"/>
    </contour>
    <contour>
      <point x="184" y="284" type="line"/>
      <point x="317" y="492" type="line"/>
      <point x="317" y="284" type="line"/>
    </contour>
  </outline>
</glyph>
<glyph name="five" format="2">
  <advance width="600"/>
  <unicode hex="0035"/>
  <outline>
    <contour>
      <point x="300" y="-16" type="curve" smooth="yes"/>
      <point x="460" y="-16"/>
      <point x="560" y="85"/>
      <point x="560" y="235" type="curve" smooth="yes"/>
      <point x="560" y="372"/>
      <point x="476" y="474"/>
      <point x="332" y="474" type="curve" smooth="yes"/>
      <point x="258" y="474"/>
      <point x="204" y="440"/>
      <point x="170" y="386" type="curve"/>
      <point x="210" y="373" type="line"/>
      <point x="230" y="552" type="line"/>
      <point x="534" y="552" type="line"/>
      <point x="534" y="710" type="line"/>
      <point x="88" y="710" type="line"/>
      <point x="48" y="298" type="line"/>
      <point x="232" y="286" type="line"/>
      <point x="240" y="312"/>
      <point x="264" y="336"/>
      <point x="300" y="336" type="curve" smooth="yes"/>
      <point x="344" y="336"/>
      <point x="376" y="302"/>
      <point x="376" y="236" type="curve" smooth="yes"/>
      <point x="376" y="168"/>
      <point x="348" y="138"/>
      <point x="300" y="138" type="curve" smooth="yes"/>
      <point x="252" y="138"/>
      <point x="232" y="160"/>
      <point x="224" y="204" type="curve"/>
      <point x="40" y="194" type="line"/>
      <point x="50" y="78"/>
      <point x="142" y="-16"/>
    </contour>
  </outline>
</glyph>
<glyph name="six" format="2">
  <advance width="600"/>
  <unicode hex="0036"/>
  <outline>
    <contour>
      <point x="302" y="-16" type="curve" smooth="yes"/>
      <point x="466" y="-16"/>
      <point x="570" y="85"/>
      <point x="570" y="244" type="curve" smooth="yes"/>
      <point x="570" y="385"/>
      <point x="481" y="480"/>
      <point x="340" y="480" type="curve" smooth="yes"/>
      <point x="226" y="480"/>
      <point x="169" y="414"/>
      <point x="148" y="354" type="curve"/>
      <point x="210" y="350" type="line"/>
      <point x="210" y="518"/>
      <point x="258" y="572"/>
      <point x="326" y="572" type="curve" smooth="yes"/>
      <point x="364" y="572"/>
      <point x="379" y="552"/>
      <point x="385" y="530" type="curve"/>
      <point x="565" y="542" type="line"/>
      <point x="541" y="645"/>
      <point x="476" y="726"/>
      <point x="326" y="726" type="curve" smooth="yes"/>
      <point x="118" y="726"/>
      <point x="30" y="548"/>
      <point x="30" y="311" type="curve" smooth="yes"/>
      <point x="30" y="104"/>
      <point x="121" y="-16"/>
    </contour>
    <contour>
      <point x="296" y="142" type="curve" smooth="yes"/>
      <point x="239" y="142"/>
      <point x="210" y="186"/>
      <point x="210" y="234" type="curve" smooth="yes"/>
      <point x="210" y="292"/>
      <point x="241" y="332"/>
      <point x="300" y="332" type="curve" smooth="yes"/>
      <point x="362" y="332"/>
      <point x="386" y="294"/>
      <point x="386" y="236" type="curve" smooth="yes"/>
      <point x="386" y="173"/>
      <point x="358" y="142"/>
    </contour>
  </outline>
</glyph>
<glyph name="seven" format="2">
  <advance width="600"/>
  <unicode hex="0037"/>
  <outline>
    <contour>
      <point x="150" y="0" type="curve"/>
      <point x="338" y="0" type="line"/>
      <point x="338" y="246"/>
      <point x="397" y="387"/>
      <point x="550" y="560" type="curve"/>
      <point x="550" y="710" type="line"/>
      <point x="50" y="710" type="line"/>
      <point x="50" y="552" type="line"/>
      <point x="376" y="552" type="line"/>
      <point x="236" y="389"/>
      <point x="150" y="212"/>
    </contour>
  </outline>
</glyph>
<glyph name="eight" format="2">
  <advance width="600"/>
  <unicode hex="0038"/>
  <outline>
    <contour>
      <point x="300" y="-16" type="curve" smooth="yes"/>
      <point x="468" y="-16"/>
      <point x="570" y="56"/>
      <point x="570" y="193" type="curve" smooth="yes"/>
      <point x="570" y="299"/>
      <point x="499" y="370"/>
      <point x="388" y="390" type="curve"/>
      <point x="386" y="370" type="line"/>
      <point x="478" y="389"/>
      <point x="544" y="444"/>
      <point x="544" y="530" type="curve" smooth="yes"/>
      <point x="544" y="645"/>
      <point x="450" y="726"/>
      <point x="300" y="726" type="curve" smooth="yes"/>
      <point x="150" y="726"/>
      <point x="56" y="645"/>
      <point x="56" y="530" type="curve" smooth="yes"/>
      <point x="56" y="444"/>
      <point x="123" y="388"/>
      <point x="214" y="370" type="curve"/>
      <point x="212" y="390" type="line"/>
      <point x="101" y="371"/>
      <point x="30" y="299"/>
      <point x="30" y="193" type="curve" smooth="yes"/>
      <point x="30" y="56"/>
      <point x="132" y="-16"/>
    </contour>
    <contour>
      <point x="300" y="138" type="curve" smooth="yes"/>
      <point x="256" y="138"/>
      <point x="214" y="156"/>
      <point x="214" y="214" type="curve" smooth="yes"/>
      <point x="214" y="270"/>
      <point x="249" y="303"/>
      <point x="300" y="303" type="curve" smooth="yes"/>
      <point x="351" y="303"/>
      <point x="386" y="270"/>
      <point x="386" y="214" type="curve" smooth="yes"/>
      <point x="386" y="156"/>
      <point x="344" y="138"/>
    </contour>
    <contour>
      <point x="300" y="452" type="curve" smooth="yes"/>
      <point x="265" y="452"/>
      <point x="240" y="471"/>
      <point x="240" y="514" type="curve" smooth="yes"/>
      <point x="240" y="552"/>
      <point x="265" y="572"/>
      <point x="300" y="572" type="curve" smooth="yes"/>
      <point x="335" y="572"/>
      <point x="360" y="552"/>
      <point x="360" y="514" type="curve" smooth="yes"/>
      <point x="360" y="471"/>
      <point x="335" y="452"/>
    </contour>
  </outline>
</glyph>
<glyph name="equal" format="2">
  <advance width="600"/>
  <unicode hex="003D"/>
  <outline>
    <contour>
      <point x="73" y="348" type="line"/>
      <point x="527" y="348" type="line"/>
      <point x="527" y="482" type="line"/>
      <point x="73" y="482" type="line"/>
    </contour>
    <contour>
      <point x="73" y="95" type="line"/>
      <point x="527" y="95" type="line"/>
      <point x="527" y="229" type="line"/>
      <point x="73" y="229" type="line"/>
    </contour>
  </outline>
</glyph>
<glyph name="greater" format="2">
  <advance width="600"/>
  <unicode hex="003E"/>
  <outline>
    <contour>
      <point x="68" y="10" type="line"/>
      <point x="532" y="203" type="line"/>
      <point x="532" y="383" type="line"/>
      <point x="68" y="576" type="line"/>
      <point x="68" y="426" type="line"/>
      <point x="469" y="260" type="line"/>
      <point x="469" y="327" type="line"/>
      <point x="68" y="161" type="line"/>
    </contour>
  </outline>
</glyph>
<glyph name="question" format="2">
  <advance width="600"/>
  <unicode hex="003F"/>
  <outline>
    <contour>
      <point x="224" y="222" type="curve"/>
      <point x="372" y="222" type="line"/>
      <point x="372" y="286"/>
      <point x="386" y="313"/>
      <point x="448" y="348" type="curve" smooth="yes"/>
      <point x="526" y="391"/>
      <point x="560" y="435"/>
      <point x="560" y="522" type="curve" smooth="yes"/>
      <point x="560" y="640"/>
      <point x="474" y="726"/>
      <point x="308" y="726" type="curve" smooth="yes"/>
      <point x="148" y="726"/>
      <point x="52" y="632"/>
      <point x="40" y="502" type="curve"/>
      <point x="216" y="494" type="line"/>
      <point x="224" y="554"/>
      <point x="248" y="580"/>
      <point x="308" y="580" type="curve" smooth="yes"/>
      <point x="370" y="580"/>
      <point x="386" y="550"/>
      <point x="386" y="518" type="curve" smooth="yes"/>
      <point x="386" y="478"/>
      <point x="373" y="458"/>
      <point x="313" y="428" type="curve" smooth="yes"/>
      <point x="241" y="392"/>
      <point x="224" y="330"/>
    </contour>
    <component base="period" xOffset="2"/>
  </outline>
</glyph>
<glyph name="at" format="2">
  <advance width="600"/>
  <unicode hex="0040"/>
  <outline>
    <contour>
      <point x="437" y="-88" type="curve"/>
      <point x="413" y="-11" type="line"/>
      <point x="361" y="-30"/>
      <point x="322" y="-38"/>
      <point x="272" y="-38" type="curve" smooth="yes"/>
      <point x="173" y="-38"/>
      <point x="90" y="24"/>
      <point x="90" y="244" type="curve" smooth="yes"/>
      <point x="90" y="491"/>
      <point x="196" y="632"/>
      <point x="336" y="632" type="curve" smooth="yes"/>
      <point x="456" y="632"/>
      <point x="510" y="525"/>
      <point x="510" y="375" type="curve" smooth="yes"/>
      <point x="510" y="226"/>
      <point x="482" y="166"/>
      <point x="458" y="166" type="curve" smooth="yes"/>
      <point x="440" y="166"/>
      <point x="434" y="180"/>
      <point x="434" y="210" type="curve" smooth="yes"/>
      <point x="434" y="295"/>
      <point x="446" y="423"/>
      <point x="454" y="493" type="curve"/>
      <point x="356" y="493" type="line"/>
      <point x="349" y="408" type="line"/>
      <point x="365" y="419" type="line"/>
      <point x="367" y="466"/>
      <point x="340" y="502"/>
      <point x="283" y="502" type="curve" smooth="yes"/>
      <point x="190" y="502"/>
      <point x="140" y="399"/>
      <point x="140" y="249" type="curve" smooth="yes"/>
      <point x="140" y="133"/>
      <point x="184" y="80"/>
      <point x="254" y="80" type="curve" smooth="yes"/>
      <point x="304" y="80"/>
      <point x="361" y="124"/>
      <point x="366" y="195" type="curve"/>
      <point x="344" y="185" type="line"/>
      <point x="349" y="117"/>
      <point x="389" y="80"/>
      <point x="440" y="80" type="curve" smooth="yes"/>
      <point x="554" y="80"/>
      <point x="590" y="217"/>
      <point x="590" y="377" type="curve" smooth="yes"/>
      <point x="590" y="579"/>
      <point x="497" y="710"/>
      <point x="338" y="710" type="curve" smooth="yes"/>
      <point x="154" y="710"/>
      <point x="10" y="540"/>
      <point x="10" y="240" type="curve" smooth="yes"/>
      <point x="10" y="-20"/>
      <point x="126" y="-120"/>
      <point x="271" y="-120" type="curve" smooth="yes"/>
      <point x="315" y="-120"/>
      <point x="371" y="-110"/>
    </contour>
    <contour>
      <point x="286" y="166" type="curve" smooth="yes"/>
      <point x="266" y="166"/>
      <point x="254" y="195"/>
      <point x="254" y="250" type="curve" smooth="yes"/>
      <point x="254" y="356"/>
      <point x="278" y="423"/>
      <point x="306" y="423" type="curve" smooth="yes"/>
      <point x="328" y="423"/>
      <point x="338" y="394"/>
      <point x="338" y="353" type="curve" smooth="yes"/>
      <point x="338" y="227"/>
      <point x="314" y="166"/>
    </contour>
  </outline>
</glyph>
<glyph name="A" format="2">
  <advance width="600"/>
  <unicode hex="0041"/>
  <anchor x="300" y="0" name="bottom"/>
  <anchor x="586" y="0" name="ogonek"/>
  <anchor x="300" y="710" name="top"/>
  <outline>
    <contour>
      <point x="14" y="0" type="line"/>
      <point x="192" y="0" type="line"/>
      <point x="300" y="476" type="line"/>
      <point x="408" y="0" type="line"/>
      <point x="586" y="0" type="line"/>
      <point x="406" y="710" type="line"/>
      <point x="194" y="710" type="line"/>
    </contour>
    <contour>
      <point x="160" y="117" type="line"/>
      <point x="440" y="117" type="line"/>
      <point x="400" y="268" type="line"/>
      <point x="200" y="268" type="line"/>
    </contour>
  </outline>
</glyph>
<glyph name="B" format="2">
  <advance width="600"/>
  <unicode hex="0042"/>
  <anchor x="300" y="0" name="bottom"/>
  <anchor x="285" y="710" name="top"/>
  <outline>
    <contour>
      <point x="54" y="0" type="line"/>
      <point x="304" y="0" type="line" smooth="yes"/>
      <point x="476" y="0"/>
      <point x="566" y="60"/>
      <point x="566" y="192" type="curve" smooth="yes"/>
      <point x="566" y="290"/>
      <point x="510" y="362"/>
      <point x="358" y="370" type="curve"/>
      <point x="358" y="362" type="line"/>
      <point x="490" y="376"/>
      <point x="536" y="436"/>
      <point x="536" y="522" type="curve" smooth="yes"/>
      <point x="536" y="650"/>
      <point x="444" y="710"/>
      <point x="284" y="710" type="curve" smooth="yes"/>
      <point x="54" y="710" type="line"/>
    </contour>
    <contour>
      <point x="234" y="154" type="line"/>
      <point x="234" y="285" type="line"/>
      <point x="304" y="285" type="line" smooth="yes"/>
      <point x="354" y="285"/>
      <point x="382" y="261"/>
      <point x="382" y="218" type="curve" smooth="yes"/>
      <point x="382" y="179"/>
      <point x="354" y="156"/>
      <point x="304" y="155" type="curve" smooth="yes"/>
    </contour>
    <contour>
      <point x="234" y="433" type="line"/>
      <point x="234" y="556" type="line"/>
      <point x="280" y="556" type="line" smooth="yes"/>
      <point x="326" y="556"/>
      <point x="352" y="534"/>
      <point x="352" y="496" type="curve" smooth="yes"/>
      <point x="352" y="456"/>
      <point x="326" y="433"/>
      <point x="280" y="433" type="curve" smooth="yes"/>
    </contour>
  </outline>
</glyph>
<glyph name="C" format="2">
  <advance width="600"/>
  <unicode hex="0043"/>
  <anchor x="311" y="0" name="bottom"/>
  <anchor x="306" y="710" name="top"/>
  <outline>
    <contour>
      <point x="306" y="-16" type="curve" smooth="yes"/>
      <point x="452" y="-16"/>
      <point x="546" y="88"/>
      <point x="568" y="273" type="curve"/>
      <point x="387" y="280" type="line"/>
      <point x="377" y="189"/>
      <point x="345" y="138"/>
      <point x="306" y="138" type="curve" smooth="yes"/>
      <point x="246" y="138"/>
      <point x="212" y="215"/>
      <point x="212" y="354" type="curve" smooth="yes"/>
      <point x="212" y="494"/>
      <point x="246" y="572"/>
      <point x="306" y="572" type="curve" smooth="yes"/>
      <point x="348" y="572"/>
      <point x="378" y="523"/>
      <point x="387" y="436" type="curve"/>
      <point x="568" y="443" type="line"/>
      <point x="546" y="625"/>
      <point x="452" y="726"/>
      <point x="306" y="726" type="curve" smooth="yes"/>
      <point x="130" y="726"/>
      <point x="28" y="584"/>
      <point x="28" y="354" type="curve" smooth="yes"/>
      <point x="28" y="124"/>
      <point x="130" y="-16"/>
    </contour>
  </outline>
</glyph>
<glyph name="D" format="2">
  <advance width="600"/>
  <unicode hex="0044"/>
  <anchor x="300" y="0" name="bottom"/>
  <anchor x="180" y="355" name="center"/>
  <anchor x="300" y="710" name="top"/>
  <outline>
    <contour>
      <point x="54" y="0" type="line"/>
      <point x="246" y="0" type="line" smooth="yes"/>
      <point x="455" y="0"/>
      <point x="572" y="127"/>
      <point x="572" y="355" type="curve" smooth="yes"/>
      <point x="572" y="583"/>
      <point x="455" y="710"/>
      <point x="246" y="710" type="curve" smooth="yes"/>
      <point x="54" y="710" type="line"/>
    </contour>
    <contour>
      <point x="234" y="158" type="line"/>
      <point x="234" y="552" type="line"/>
      <point x="252" y="552" type="line" smooth="yes"/>
      <point x="343" y="552"/>
      <point x="388" y="487"/>
      <point x="388" y="355" type="curve" smooth="yes"/>
      <point x="388" y="223"/>
      <point x="343" y="158"/>
      <point x="252" y="158" type="curve" smooth="yes"/>
    </contour>
  </outline>
</glyph>
<glyph name="E" format="2">
  <advance width="600"/>
  <unicode hex="0045"/>
  <anchor x="308" y="0" name="bottom"/>
  <anchor x="540" y="0" name="ogonek"/>
  <anchor x="308" y="711" name="top"/>
  <outline>
    <contour>
      <point x="80" y="0" type="line"/>
      <point x="540" y="0" type="line"/>
      <point x="540" y="158" type="line"/>
      <point x="260" y="158" type="line"/>
      <point x="260" y="279" type="line"/>
      <point x="520" y="279" type="line"/>
      <point x="520" y="433" type="line"/>
      <point x="260" y="433" type="line"/>
      <point x="260" y="552" type="line"/>
      <point x="532" y="552" type="line"/>
      <point x="532" y="710" type="line"/>
      <point x="80" y="710" type="line"/>
    </contour>
  </outline>
</glyph>
<glyph name="F" format="2">
  <advance width="600"/>
  <unicode hex="0046"/>
  <anchor x="270" y="0" name="bottom"/>
  <anchor x="314" y="710" name="top"/>
  <outline>
    <contour>
      <point x="90" y="0" type="line"/>
      <point x="270" y="0" type="line"/>
      <point x="270" y="271" type="line"/>
      <point x="532" y="271" type="line"/>
      <point x="532" y="425" type="line"/>
      <point x="270" y="425" type="line"/>
      <point x="270" y="621" type="line"/>
      <point x="201" y="552" type="line"/>
      <point x="550" y="552" type="line"/>
      <point x="550" y="710" type="line"/>
      <point x="90" y="710" type="line"/>
    </contour>
  </outline>
</glyph>
<glyph name="G" format="2">
  <advance width="600"/>
  <unicode hex="0047"/>
  <anchor x="305" y="0" name="bottom"/>
  <anchor x="306" y="710" name="top"/>
  <outline>
    <contour>
      <point x="304" y="-16" type="curve" smooth="yes"/>
      <point x="418" y="-16"/>
      <point x="488" y="78"/>
      <point x="488" y="178" type="curve"/>
      <point x="451" y="144" type="line"/>
      <point x="459" y="0" type="line"/>
      <point x="564" y="0" type="line"/>
      <point x="564" y="376" type="line"/>
      <point x="300" y="376" type="line"/>
      <point x="300" y="246" type="line"/>
      <point x="398" y="246" type="line"/>
      <point x="396" y="174"/>
      <point x="368" y="141"/>
      <point x="318" y="141" type="curve" smooth="yes"/>
      <point x="250" y="141"/>
      <point x="212" y="215"/>
      <point x="212" y="354" type="curve" smooth="yes"/>
      <point x="212" y="494"/>
      <point x="246" y="569"/>
      <point x="306" y="569" type="curve" smooth="yes"/>
      <point x="349" y="569"/>
      <point x="377" y="536"/>
      <point x="387" y="452" type="curve"/>
      <point x="570" y="462" type="line"/>
      <point x="539" y="639"/>
      <point x="451" y="726"/>
      <point x="304" y="726" type="curve" smooth="yes"/>
      <point x="132" y="726"/>
      <point x="28" y="584"/>
      <point x="28" y="354" type="curve" smooth="yes"/>
      <point x="28" y="124"/>
      <point x="136" y="-16"/>
    </contour>
  </outline>
</glyph>
<glyph name="H" format="2">
  <advance width="600"/>
  <unicode hex="0048"/>
  <anchor x="300" y="0" name="bottom"/>
  <anchor x="300" y="580" name="center"/>
  <anchor x="300" y="710" name="top"/>
  <outline>
    <contour>
      <point x="40" y="0" type="line"/>
      <point x="220" y="0" type="line"/>
      <point x="220" y="335" type="line"/>
      <point x="161" y="278" type="line"/>
      <point x="439" y="278" type="line"/>
      <point x="380" y="335" type="line"/>
      <point x="380" y="0" type="line"/>
      <point x="560" y="0" type="line"/>
      <point x="560" y="710" type="line"/>
      <point x="380" y="710" type="line"/>
      <point x="380" y="379" type="line"/>
      <point x="439" y="436" type="line"/>
      <point x="161" y="436" type="line"/>
      <point x="220" y="379" type="line"/>
      <point x="220" y="710" type="line"/>
      <point x="40" y="710" type="line"/>
    </contour>
  </outline>
</glyph>
<glyph name="I" format="2">
  <advance width="600"/>
  <unicode hex="0049"/>
  <anchor x="300" y="0" name="bottom"/>
  <anchor x="530" y="0" name="ogonek"/>
  <anchor x="300" y="710" name="top"/>
  <outline>
    <contour>
      <point x="70" y="0" type="line"/>
      <point x="530" y="0" type="line"/>
      <point x="530" y="158" type="line"/>
      <point x="390" y="158" type="line"/>
      <point x="390" y="552" type="line"/>
      <point x="530" y="552" type="line"/>
      <point x="530" y="710" type="line"/>
      <point x="70" y="710" type="line"/>
      <point x="70" y="552" type="line"/>
      <point x="210" y="552" type="line"/>
      <point x="210" y="158" type="line"/>
      <point x="70" y="158" type="line"/>
    </contour>
  </outline>
</glyph>
<glyph name="J" format="2">
  <advance width="600"/>
  <unicode hex="004A"/>
  <anchor x="445" y="710" name="top"/>
  <outline>
    <contour>
      <point x="277" y="-16" type="curve" smooth="yes"/>
      <point x="433" y="-16"/>
      <point x="520" y="80"/>
      <point x="520" y="252" type="curve" smooth="yes"/>
      <point x="520" y="710" type="line"/>
      <point x="340" y="710" type="line"/>
      <point x="340" y="252" type="line" smooth="yes"/>
      <point x="340" y="170"/>
      <point x="323" y="138"/>
      <point x="278" y="138" type="curve" smooth="yes"/>
      <point x="232" y="138"/>
      <point x="214" y="176"/>
      <point x="212" y="274" type="curve"/>
      <point x="30" y="266" type="line"/>
      <point x="32" y="85"/>
      <point x="121" y="-16"/>
    </contour>
  </outline>
</glyph>
<glyph name="K" format="2">
  <advance width="600"/>
  <unicode hex="004B"/>
  <anchor x="280" y="0" name="bottom"/>
  <anchor x="274" y="710" name="top"/>
  <outline>
    <contour>
      <point x="210" y="168" type="line"/>
      <point x="570" y="710" type="line"/>
      <point x="358" y="710" type="line"/>
      <point x="210" y="448" type="line"/>
    </contour>
    <contour>
      <point x="40" y="0" type="line"/>
      <point x="220" y="0" type="line"/>
      <point x="220" y="710" type="line"/>
      <point x="40" y="710" type="line"/>
    </contour>
    <contour>
      <point x="380" y="0" type="line"/>
      <point x="570" y="0" type="line"/>
      <point x="360" y="420" type="line"/>
      <point x="240" y="310" type="line"/>
    </contour>
  </outline>
</glyph>
<glyph name="L" format="2">
  <advance width="600"/>
  <unicode hex="004C"/>
  <anchor x="320" y="0" name="bottom"/>
  <anchor x="205" y="380" name="center"/>
  <anchor x="171" y="710" name="top"/>
  <anchor x="360" y="540" name="topright"/>
  <outline>
    <contour>
      <point x="90" y="0" type="line"/>
      <point x="550" y="0" type="line"/>
      <point x="550" y="158" type="line"/>
      <point x="124" y="158" type="line"/>
      <point x="270" y="41" type="line"/>
      <point x="270" y="710" type="line"/>
      <point x="90" y="710" type="line"/>
    </contour>
  </outline>
</glyph>
<glyph name="M" format="2">
  <advance width="600"/>
  <unicode hex="004D"/>
  <anchor x="300" y="0" name="bottom"/>
  <anchor x="300" y="710" name="top"/>
  <outline>
    <contour>
      <point x="254" y="110" type="line"/>
      <point x="346" y="110" type="line"/>
      <point x="424" y="450" type="line"/>
      <point x="400" y="456" type="line"/>
      <point x="400" y="0" type="line"/>
      <point x="560" y="0" type="line"/>
      <point x="560" y="710" type="line"/>
      <point x="380" y="710" type="line"/>
      <point x="282" y="350" type="line"/>
      <point x="318" y="350" type="line"/>
      <point x="220" y="710" type="line"/>
      <point x="40" y="710" type="line"/>
      <point x="40" y="0" type="line"/>
      <point x="200" y="0" type="line"/>
      <point x="200" y="456" type="line"/>
      <point x="176" y="450" type="line"/>
    </contour>
  </outline>
</glyph>
<glyph name="N" format="2">
  <advance width="600"/>
  <unicode hex="004E"/>
  <anchor x="300" y="0" name="bottom"/>
  <anchor x="300" y="710" name="top"/>
  <outline>
    <contour>
      <point x="60" y="0" type="line"/>
      <point x="230" y="0" type="line"/>
      <point x="230" y="426" type="line"/>
      <point x="202" y="420" type="line"/>
      <point x="390" y="0" type="line"/>
      <point x="540" y="0" type="line"/>
      <point x="540" y="710" type="line"/>
      <point x="370" y="710" type="line"/>
      <point x="370" y="284" type="line"/>
      <point x="398" y="290" type="line"/>
      <point x="210" y="710" type="line"/>
      <point x="60" y="710" type="line"/>
    </contour>
  </outline>
</glyph>
<glyph name="O" format="2">
  <advance width="600"/>
  <unicode hex="004F"/>
  <anchor x="300" y="0" name="bottom"/>
  <anchor x="300" y="355" name="center"/>
  <anchor x="392" y="0" name="ogonek"/>
  <anchor x="300" y="710" name="top"/>
  <anchor x="344" y="710" name="topright"/>
  <outline>
    <contour>
      <point x="300" y="-16" type="curve" smooth="yes"/>
      <point x="474" y="-16"/>
      <point x="572" y="116"/>
      <point x="572" y="354" type="curve" smooth="yes"/>
      <point x="572" y="592"/>
      <point x="474" y="726"/>
      <point x="300" y="726" type="curve" smooth="yes"/>
      <point x="126" y="726"/>
      <point x="28" y="592"/>
      <point x="28" y="354" type="curve" smooth="yes"/>
      <point x="28" y="116"/>
      <point x="126" y="-16"/>
    </contour>
    <contour>
      <point x="300" y="138" type="curve" smooth="yes"/>
      <point x="241" y="138"/>
      <point x="212" y="196"/>
      <point x="212" y="354" type="curve" smooth="yes"/>
      <point x="212" y="512"/>
      <point x="241" y="572"/>
      <point x="300" y="572" type="curve" smooth="yes"/>
      <point x="359" y="572"/>
      <point x="388" y="512"/>
      <point x="388" y="354" type="curve" smooth="yes"/>
      <point x="388" y="196"/>
      <point x="359" y="138"/>
    </contour>
  </outline>
</glyph>
<glyph name="P" format="2">
  <advance width="600"/>
  <unicode hex="0050"/>
  <anchor x="300" y="0" name="bottom"/>
  <anchor x="300" y="710" name="top"/>
  <outline>
    <contour>
      <point x="70" y="0" type="line"/>
      <point x="250" y="0" type="line"/>
      <point x="250" y="240" type="line"/>
      <point x="308" y="240" type="line" smooth="yes"/>
      <point x="454" y="240"/>
      <point x="560" y="336"/>
      <point x="560" y="474" type="curve" smooth="yes"/>
      <point x="560" y="612"/>
      <point x="454" y="710"/>
      <point x="308" y="710" type="curve" smooth="yes"/>
      <point x="70" y="710" type="line"/>
    </contour>
    <contour>
      <point x="250" y="398" type="line"/>
      <point x="250" y="552" type="line"/>
      <point x="290" y="552" type="line" smooth="yes"/>
      <point x="347" y="552"/>
      <point x="376" y="526"/>
      <point x="376" y="474" type="curve" smooth="yes"/>
      <point x="376" y="423"/>
      <point x="347" y="398"/>
      <point x="290" y="398" type="curve" smooth="yes"/>
    </contour>
  </outline>
</glyph>
<glyph name="Q" format="2">
  <advance width="600"/>
  <unicode hex="0051"/>
  <anchor x="300" y="0" name="bottom"/>
  <anchor x="300" y="710" name="top"/>
  <outline>
    <contour>
      <point x="313" y="-120" type="line"/>
      <point x="413" y="-120" type="line"/>
      <point x="351" y="260" type="line"/>
      <point x="251" y="260" type="line"/>
    </contour>
    <contour>
      <point x="300" y="-16" type="curve" smooth="yes"/>
      <point x="474" y="-16"/>
      <point x="572" y="116"/>
      <point x="572" y="354" type="curve" smooth="yes"/>
      <point x="572" y="592"/>
      <point x="474" y="726"/>
      <point x="300" y="726" type="curve" smooth="yes"/>
      <point x="126" y="726"/>
      <point x="28" y="592"/>
      <point x="28" y="354" type="curve" smooth="yes"/>
      <point x="28" y="116"/>
      <point x="126" y="-16"/>
    </contour>
    <contour>
      <point x="300" y="138" type="curve" smooth="yes"/>
      <point x="241" y="138"/>
      <point x="212" y="176"/>
      <point x="212" y="354" type="curve" smooth="yes"/>
      <point x="212" y="512"/>
      <point x="241" y="572"/>
      <point x="300" y="572" type="curve" smooth="yes"/>
      <point x="359" y="572"/>
      <point x="388" y="512"/>
      <point x="388" y="354" type="curve" smooth="yes"/>
      <point x="388" y="154"/>
      <point x="374" y="138"/>
    </contour>
  </outline>
</glyph>
<glyph name="R" format="2">
  <advance width="600"/>
  <unicode hex="0052"/>
  <anchor x="296" y="0" name="bottom"/>
  <anchor x="289" y="710" name="top"/>
  <outline>
    <contour>
      <point x="56" y="0" type="line"/>
      <point x="236" y="0" type="line"/>
      <point x="236" y="239" type="line"/>
      <point x="266" y="239" type="line" smooth="yes"/>
      <point x="332" y="239"/>
      <point x="356" y="227"/>
      <point x="362" y="138" type="curve" smooth="yes"/>
      <point x="372" y="0" type="line"/>
      <point x="554" y="0" type="line"/>
      <point x="538" y="194" type="line" smooth="yes"/>
      <point x="530" y="287"/>
      <point x="477" y="328"/>
      <point x="364" y="328" type="curve"/>
      <point x="368" y="314" type="line"/>
      <point x="470" y="322"/>
      <point x="540" y="388"/>
      <point x="540" y="496" type="curve" smooth="yes"/>
      <point x="540" y="627"/>
      <point x="450" y="710"/>
      <point x="294" y="710" type="curve" smooth="yes"/>
      <point x="56" y="710" type="line"/>
    </contour>
    <contour>
      <point x="236" y="397" type="line"/>
      <point x="236" y="552" type="line"/>
      <point x="286" y="552" type="line" smooth="yes"/>
      <point x="331" y="552"/>
      <point x="356" y="524"/>
      <point x="356" y="475" type="curve" smooth="yes"/>
      <point x="356" y="425"/>
      <point x="331" y="397"/>
      <point x="286" y="397" type="curve" smooth="yes"/>
    </contour>
  </outline>
</glyph>
<glyph name="S" format="2">
  <advance width="600"/>
  <unicode hex="0053"/>
  <anchor x="307" y="0" name="bottom"/>
  <anchor x="305" y="710" name="top"/>
  <outline>
    <contour>
      <point x="302" y="-16" type="curve" smooth="yes"/>
      <point x="468" y="-16"/>
      <point x="560" y="68"/>
      <point x="560" y="206" type="curve" smooth="yes"/>
      <point x="560" y="314"/>
      <point x="510" y="384"/>
      <point x="358" y="424" type="curve" smooth="yes"/>
      <point x="262" y="449"/>
      <point x="232" y="472"/>
      <point x="232" y="514" type="curve" smooth="yes"/>
      <point x="232" y="551"/>
      <point x="256" y="572"/>
      <point x="293" y="572" type="curve" smooth="yes"/>
      <point x="337" y="572"/>
      <point x="367" y="539"/>
      <point x="375" y="473" type="curve"/>
      <point x="555" y="480" type="line"/>
      <point x="547" y="645"/>
      <point x="457" y="726"/>
      <point x="302" y="726" type="curve" smooth="yes"/>
      <point x="140" y="726"/>
      <point x="52" y="640"/>
      <point x="52" y="502" type="curve" smooth="yes"/>
      <point x="52" y="376"/>
      <point x="124" y="325"/>
      <point x="262" y="290" type="curve" smooth="yes"/>
      <point x="348" y="268"/>
      <point x="380" y="241"/>
      <point x="380" y="196" type="curve" smooth="yes"/>
      <point x="380" y="158"/>
      <point x="353" y="138"/>
      <point x="313" y="138" type="curve" smooth="yes"/>
      <point x="261" y="138"/>
      <point x="230" y="174"/>
      <point x="218" y="257" type="curve"/>
      <point x="40" y="249" type="line"/>
      <point x="51" y="79"/>
      <point x="133" y="-16"/>
    </contour>
  </outline>
</glyph>
<glyph name="T" format="2">
  <advance width="600"/>
  <unicode hex="0054"/>
  <anchor x="300" y="0" name="bottom"/>
  <anchor x="300" y="312" name="center"/>
  <anchor x="300" y="710" name="top"/>
  <outline>
    <contour>
      <point x="210" y="0" type="line"/>
      <point x="390" y="0" type="line"/>
      <point x="390" y="552" type="line"/>
      <point x="560" y="552" type="line"/>
      <point x="560" y="710" type="line"/>
      <point x="40" y="710" type="line"/>
      <point x="40" y="552" type="line"/>
      <point x="210" y="552" type="line"/>
    </contour>
  </outline>
</glyph>
<glyph name="U" format="2">
  <advance width="600"/>
  <unicode hex="0055"/>
  <anchor x="300" y="0" name="bottom"/>
  <anchor x="396" y="0" name="ogonek"/>
  <anchor x="300" y="710" name="top"/>
  <anchor x="370" y="711" name="topright"/>
  <outline>
    <contour>
      <point x="300" y="-16" type="curve" smooth="yes"/>
      <point x="460" y="-16"/>
      <point x="550" y="70"/>
      <point x="550" y="244" type="curve" smooth="yes"/>
      <point x="550" y="711" type="line"/>
      <point x="370" y="711" type="line"/>
      <point x="370" y="224" type="line" smooth="yes"/>
      <point x="370" y="170"/>
      <point x="345" y="138"/>
      <point x="300" y="138" type="curve" smooth="yes"/>
      <point x="255" y="138"/>
      <point x="230" y="170"/>
      <point x="230" y="224" type="curve" smooth="yes"/>
      <point x="230" y="711" type="line"/>
      <point x="50" y="711" type="line"/>
      <point x="50" y="244" type="line" smooth="yes"/>
      <point x="50" y="70"/>
      <point x="140" y="-16"/>
    </contour>
  </outline>
</glyph>
<glyph name="V" format="2">
  <advance width="600"/>
  <unicode hex="0056"/>
  <anchor x="300" y="0" name="bottom"/>
  <anchor x="300" y="710" name="top"/>
  <outline>
    <contour>
      <point x="216" y="0" type="line"/>
      <point x="384" y="0" type="line"/>
      <point x="586" y="710" type="line"/>
      <point x="396" y="710" type="line"/>
      <point x="270" y="200" type="line"/>
      <point x="330" y="200" type="line"/>
      <point x="204" y="710" type="line"/>
      <point x="14" y="710" type="line"/>
    </contour>
  </outline>
</glyph>
<glyph name="W" format="2">
  <advance width="600"/>
  <unicode hex="0057"/>
  <anchor x="300" y="0" name="bottom"/>
  <anchor x="300" y="710" name="top"/>
  <outline>
    <contour>
      <point x="90" y="0" type="line"/>
      <point x="254" y="0" type="line"/>
      <point x="312" y="360" type="line"/>
      <point x="288" y="360" type="line"/>
      <point x="346" y="0" type="line"/>
      <point x="510" y="0" type="line"/>
      <point x="580" y="710" type="line"/>
      <point x="416" y="710" type="line"/>
      <point x="386" y="230" type="line"/>
      <point x="402" y="230" type="line"/>
      <point x="345" y="630" type="line"/>
      <point x="255" y="630" type="line"/>
      <point x="198" y="230" type="line"/>
      <point x="214" y="230" type="line"/>
      <point x="184" y="710" type="line"/>
      <point x="20" y="710" type="line"/>
    </contour>
  </outline>
</glyph>
<glyph name="X" format="2">
  <advance width="600"/>
  <unicode hex="0058"/>
  <anchor x="300" y="0" name="bottom"/>
  <anchor x="300" y="710" name="top"/>
  <outline>
    <contour>
      <point x="24" y="0" type="line"/>
      <point x="214" y="0" type="line"/>
      <point x="298" y="230" type="line"/>
      <point x="382" y="0" type="line"/>
      <point x="576" y="0" type="line"/>
      <point x="424" y="356" type="line"/>
      <point x="574" y="710" type="line"/>
      <point x="384" y="710" type="line"/>
      <point x="302" y="486" type="line"/>
      <point x="220" y="710" type="line"/>
      <point x="26" y="710" type="line"/>
      <point x="176" y="358" type="line"/>
    </contour>
  </outline>
</glyph>
<glyph name="Y" format="2">
  <advance width="600"/>
  <unicode hex="0059"/>
  <anchor x="302" y="0" name="bottom"/>
  <anchor x="300" y="710" name="top"/>
  <outline>
    <contour>
      <point x="210" y="0" type="line"/>
      <point x="390" y="0" type="line"/>
      <point x="390" y="300" type="line"/>
      <point x="576" y="710" type="line"/>
      <point x="386" y="710" type="line"/>
      <point x="300" y="486" type="line"/>
      <point x="214" y="710" type="line"/>
      <point x="24" y="710" type="line"/>
      <point x="210" y="300" type="line"/>
    </contour>
  </outline>
</glyph>
<glyph name="Z" format="2">
  <advance width="600"/>
  <unicode hex="005A"/>
  <anchor x="300" y="0" name="bottom"/>
  <anchor x="300" y="710" name="top"/>
  <outline>
    <contour>
      <point x="40" y="0" type="line"/>
      <point x="560" y="0" type="line"/>
      <point x="560" y="158" type="line"/>
      <point x="260" y="158" type="line"/>
      <point x="552" y="554" type="line"/>
      <point x="552" y="710" type="line"/>
      <point x="58" y="710" type="line"/>
      <point x="58" y="552" type="line"/>
      <point x="338" y="552" type="line"/>
      <point x="40" y="156" type="line"/>
    </contour>
  </outline>
</glyph>
<glyph name="bracketright" format="2">
  <advance width="600"/>
  <unicode hex="005D"/>
  <outline>
    <contour>
      <point x="100" y="-110" type="line"/>
      <point x="500" y="-110" type="line"/>
      <point x="500" y="750" type="line"/>
      <point x="100" y="750" type="line"/>
      <point x="100" y="600" type="line"/>
      <point x="320" y="600" type="line"/>
      <point x="320" y="40" type="line"/>
      <point x="100" y="40" type="line"/>
    </contour>
  </outline>
</glyph>
<glyph name="asciicircum" format="2">
  <advance width="600"/>
  <unicode hex="005E"/>
  <outline>
    <contour>
      <point x="80" y="373" type="line"/>
      <point x="215" y="373" type="line"/>
      <point x="321" y="648" type="line"/>
      <point x="280" y="648" type="line"/>
      <point x="386" y="373" type="line"/>
      <point x="520" y="373" type="line"/>
      <point x="383" y="710" type="line"/>
      <point x="218" y="710" type="line"/>
    </contour>
  </outline>
</glyph>
<glyph name="grave" format="2">
  <advance width="600"/>
  <unicode hex="0060"/>
  <outline>
    <contour>
      <point x="270" y="500" type="line"/>
      <point x="440" y="500" type="line"/>
      <point x="360" y="740" type="line"/>
      <point x="160" y="740" type="line"/>
    </contour>
  </outline>
</glyph>
<glyph name="a" format="2">
  <advance width="600"/>
  <unicode hex="0061"/>
  <anchor x="285" y="0" name="bottom"/>
  <anchor x="560" y="0" name="ogonek"/>
  <anchor x="284" y="540" name="top"/>
  <outline>
    <contour>
      <point x="220" y="-12" type="curve" smooth="yes"/>
      <point x="319" y="-12"/>
      <point x="375" y="46"/>
      <point x="381" y="122" type="curve"/>
      <point x="367" y="122" type="line"/>
      <point x="371" y="46"/>
      <point x="420" y="-6"/>
      <point x="508" y="-6" type="curve" smooth="yes"/>
      <point x="530" y="-6"/>
      <point x="552" y="-2"/>
      <point x="560" y="0" type="curve"/>
      <point x="560" y="120" type="line"/>
      <point x="546" y="120" type="line" smooth="yes"/>
      <point x="530" y="120"/>
      <point x="520" y="129"/>
      <point x="520" y="158" type="curve" smooth="yes"/>
      <point x="520" y="326" type="line" smooth="yes"/>
      <point x="520" y="470"/>
      <point x="452" y="552"/>
      <point x="280" y="552" type="curve" smooth="yes"/>
      <point x="154" y="552"/>
      <point x="64" y="482"/>
      <point x="44" y="374" type="curve"/>
      <point x="218" y="366" type="line"/>
      <point x="222" y="396"/>
      <point x="242" y="424"/>
      <point x="284" y="424" type="curve" smooth="yes"/>
      <point x="336" y="424"/>
      <point x="350" y="390"/>
      <point x="350" y="338" type="curve"/>
      <point x="200" y="304" type="line" smooth="yes"/>
      <point x="108" y="283"/>
      <point x="40" y="234"/>
      <point x="40" y="144" type="curve" smooth="yes"/>
      <point x="40" y="44"/>
      <point x="122" y="-12"/>
    </contour>
    <contour>
      <point x="261" y="108" type="curve" smooth="yes"/>
      <point x="229" y="108"/>
      <point x="214" y="124"/>
      <point x="214" y="150" type="curve" smooth="yes"/>
      <point x="214" y="182"/>
      <point x="227" y="196"/>
      <point x="260" y="204" type="curve" smooth="yes"/>
      <point x="350" y="226" type="line"/>
      <point x="350" y="204" type="line" smooth="yes"/>
      <point x="350" y="140"/>
      <point x="315" y="108"/>
    </contour>
  </outline>
</glyph>
<glyph name="b" format="2">
  <advance width="600"/>
  <unicode hex="0062"/>
  <anchor x="300" y="0" name="bottom"/>
  <anchor x="300" y="540" name="top"/>
  <outline>
    <contour>
      <point x="376" y="-12" type="curve" smooth="yes"/>
      <point x="498" y="-12"/>
      <point x="580" y="88"/>
      <point x="580" y="270" type="curve" smooth="yes"/>
      <point x="580" y="452"/>
      <point x="498" y="552"/>
      <point x="376" y="552" type="curve" smooth="yes"/>
      <point x="283" y="552"/>
      <point x="220" y="501"/>
      <point x="206" y="418" type="curve"/>
      <point x="220" y="394" type="line"/>
      <point x="220" y="710" type="line"/>
      <point x="50" y="710" type="line"/>
      <point x="50" y="0" type="line"/>
      <point x="216" y="0" type="line"/>
      <point x="223" y="157" type="line"/>
      <point x="206" y="129" type="line"/>
      <point x="224" y="55"/>
      <point x="278" y="-12"/>
    </contour>
    <contour>
      <point x="314" y="134" type="curve" smooth="yes"/>
      <point x="260" y="134"/>
      <point x="220" y="180"/>
      <point x="220" y="270" type="curve" smooth="yes"/>
      <point x="220" y="360"/>
      <point x="259" y="406"/>
      <point x="314" y="406" type="curve" smooth="yes"/>
      <point x="377" y="406"/>
      <point x="404" y="361"/>
      <point x="404" y="270" type="curve" smooth="yes"/>
      <point x="404" y="179"/>
      <point x="377" y="134"/>
    </contour>
  </outline>
</glyph>
<glyph name="c" format="2">
  <advance width="600"/>
  <unicode hex="0063"/>
  <anchor x="307" y="0" name="bottom"/>
  <anchor x="307" y="540" name="top"/>
  <outline>
    <contour>
      <point x="306" y="-12" type="curve" smooth="yes"/>
      <point x="440" y="-12"/>
      <point x="547" y="77"/>
      <point x="562" y="210" type="curve"/>
      <point x="396" y="218" type="line"/>
      <point x="385" y="164"/>
      <point x="354" y="134"/>
      <point x="308" y="134" type="curve" smooth="yes"/>
      <point x="249" y="134"/>
      <point x="214" y="186"/>
      <point x="214" y="270" type="curve" smooth="yes"/>
      <point x="214" y="354"/>
      <point x="249" y="406"/>
      <point x="308" y="406" type="curve" smooth="yes"/>
      <point x="353" y="406"/>
      <point x="384" y="377"/>
      <point x="396" y="324" type="curve"/>
      <point x="562" y="332" type="line"/>
      <point x="547" y="463"/>
      <point x="438" y="552"/>
      <point x="306" y="552" type="curve" smooth="yes"/>
      <point x="149" y="552"/>
      <point x="38" y="436"/>
      <point x="38" y="270" type="curve" smooth="yes"/>
      <point x="38" y="104"/>
      <point x="149" y="-12"/>
    </contour>
  </outline>
</glyph>
<glyph name="d" format="2">
  <advance width="600"/>
  <unicode hex="0064"/>
  <anchor x="300" y="0" name="bottom"/>
  <anchor x="410" y="622" name="center"/>
  <anchor x="300" y="540" name="top"/>
  <anchor x="550" y="540" name="topright"/>
  <outline>
    <contour>
      <point x="224" y="-12" type="curve" smooth="yes"/>
      <point x="322" y="-12"/>
      <point x="376" y="55"/>
      <point x="394" y="129" type="curve"/>
      <point x="377" y="157" type="line"/>
      <point x="384" y="0" type="line"/>
      <point x="550" y="0" type="line"/>
      <point x="550" y="710" type="line"/>
      <point x="380" y="710" type="line"/>
      <point x="380" y="394" type="line"/>
      <point x="394" y="418" type="line"/>
      <point x="380" y="501"/>
      <point x="317" y="552"/>
      <point x="224" y="552" type="curve" smooth="yes"/>
      <point x="102" y="552"/>
      <point x="20" y="452"/>
      <point x="20" y="270" type="curve" smooth="yes"/>
      <point x="20" y="88"/>
      <point x="102" y="-12"/>
    </contour>
    <contour>
      <point x="286" y="134" type="curve" smooth="yes"/>
      <point x="223" y="134"/>
      <point x="196" y="179"/>
      <point x="196" y="270" type="curve" smooth="yes"/>
      <point x="196" y="361"/>
      <point x="223" y="406"/>
      <point x="286" y="406" type="curve" smooth="yes"/>
      <point x="341" y="406"/>
      <point x="380" y="360"/>
      <point x="380" y="270" type="curve" smooth="yes"/>
      <point x="380" y="180"/>
      <point x="340" y="134"/>
    </contour>
  </outline>
</glyph>
<glyph name="e" format="2">
  <advance width="600"/>
  <unicode hex="0065"/>
  <anchor x="300" y="0" name="bottom"/>
  <anchor x="426" y="19" name="ogonek"/>
  <anchor x="300" y="539" name="top"/>
  <outline>
    <contour>
      <point x="300" y="-12" type="curve" smooth="yes"/>
      <point x="426" y="-12"/>
      <point x="508" y="49"/>
      <point x="550" y="173" type="curve"/>
      <point x="383" y="184" type="line"/>
      <point x="372" y="153"/>
      <point x="342" y="134"/>
      <point x="305" y="134" type="curve" smooth="yes"/>
      <point x="255" y="134"/>
      <point x="219" y="169"/>
      <point x="212" y="226" type="curve"/>
      <point x="562" y="226" type="line"/>
      <point x="562" y="266" type="line" smooth="yes"/>
      <point x="562" y="434"/>
      <point x="454" y="552"/>
      <point x="300" y="552" type="curve" smooth="yes"/>
      <point x="146" y="552"/>
      <point x="38" y="436"/>
      <point x="38" y="270" type="curve" smooth="yes"/>
      <point x="38" y="98"/>
      <point x="149" y="-12"/>
    </contour>
    <contour>
      <point x="215" y="331" type="line"/>
      <point x="221" y="379"/>
      <point x="251" y="406"/>
      <point x="298" y="406" type="curve" smooth="yes"/>
      <point x="345" y="406"/>
      <point x="375" y="379"/>
      <point x="381" y="331" type="curve"/>
    </contour>
  </outline>
</glyph>
<glyph name="f" format="2">
  <advance width="600"/>
  <unicode hex="0066"/>
  <anchor x="300" y="0" name="bottom"/>
  <anchor x="300" y="710" name="top"/>
  <outline>
    <contour>
      <point x="190" y="0" type="line"/>
      <point x="360" y="0" type="line"/>
      <point x="360" y="540" type="line" smooth="yes"/>
      <point x="360" y="568"/>
      <point x="373" y="580"/>
      <point x="410" y="580" type="curve" smooth="yes"/>
      <point x="540" y="580" type="line"/>
      <point x="540" y="710" type="line"/>
      <point x="358" y="710" type="line" smooth="yes"/>
      <point x="241" y="710"/>
      <point x="190" y="659"/>
      <point x="190" y="542" type="curve" smooth="yes"/>
    </contour>
    <contour>
      <point x="60" y="410" type="line"/>
      <point x="540" y="410" type="line"/>
      <point x="540" y="540" type="line"/>
      <point x="60" y="540" type="line"/>
    </contour>
  </outline>
</glyph>
<glyph name="g" format="2">
  <advance width="600"/>
  <unicode hex="0067"/>
  <anchor x="300" y="-150" name="bottom"/>
  <anchor x="311" y="540" name="top"/>
  <outline>
    <contour>
      <point x="296" y="-162" type="curve" smooth="yes"/>
      <point x="454" y="-162"/>
      <point x="560" y="-84"/>
      <point x="560" y="84" type="curve" smooth="yes"/>
      <point x="560" y="540" type="line"/>
      <point x="394" y="540" type="line"/>
      <point x="390" y="460" type="line"/>
      <point x="361" y="520"/>
      <point x="314" y="552"/>
      <point x="244" y="552" type="curve" smooth="yes"/>
      <point x="118" y="552"/>
      <point x="30" y="450"/>
      <point x="30" y="282" type="curve" smooth="yes"/>
      <point x="30" y="131"/>
      <point x="122" y="28"/>
      <point x="246" y="28" type="curve" smooth="yes"/>
      <point x="325" y="28"/>
      <point x="366" y="59"/>
      <point x="390" y="104" type="curve"/>
      <point x="390" y="58" type="line" smooth="yes"/>
      <point x="390" y="0"/>
      <point x="358" y="-32"/>
      <point x="296" y="-32" type="curve" smooth="yes"/>
      <point x="260" y="-32"/>
      <point x="238" y="-20"/>
      <point x="230" y="2" type="curve"/>
      <point x="52" y="-8" type="line"/>
      <point x="76" y="-102"/>
      <point x="154" y="-162"/>
    </contour>
    <contour>
      <point x="300" y="156" type="curve" smooth="yes"/>
      <point x="240" y="156"/>
      <point x="206" y="195"/>
      <point x="206" y="287" type="curve" smooth="yes"/>
      <point x="206" y="379"/>
      <point x="240" y="422"/>
      <point x="300" y="422" type="curve" smooth="yes"/>
      <point x="352" y="422"/>
      <point x="390" y="379"/>
      <point x="390" y="287" type="curve" smooth="yes"/>
      <point x="390" y="195"/>
      <point x="352" y="156"/>
    </contour>
  </outline>
</glyph>
<glyph name="h" format="2">
  <advance width="600"/>
  <unicode hex="0068"/>
  <anchor x="300" y="0" name="bottom"/>
  <anchor x="200" y="622" name="center"/>
  <anchor x="160" y="710" name="top"/>
  <outline>
    <contour>
      <point x="64" y="0" type="line"/>
      <point x="234" y="0" type="line"/>
      <point x="234" y="304" type="line" smooth="yes"/>
      <point x="234" y="376"/>
      <point x="267" y="410"/>
      <point x="307" y="410" type="curve" smooth="yes"/>
      <point x="342" y="410"/>
      <point x="366" y="389"/>
      <point x="366" y="318" type="curve" smooth="yes"/>
      <point x="366" y="0" type="line"/>
      <point x="536" y="0" type="line"/>
      <point x="536" y="349" type="line" smooth="yes"/>
      <point x="536" y="475"/>
      <point x="490" y="552"/>
      <point x="382" y="552" type="curve" smooth="yes"/>
      <point x="304" y="552"/>
      <point x="249" y="519"/>
      <point x="222" y="442" type="curve"/>
      <point x="234" y="427" type="line"/>
      <point x="234" y="710" type="line"/>
      <point x="64" y="710" type="line"/>
    </contour>
  </outline>
</glyph>
<glyph name="k" format="2">
  <advance width="600"/>
  <unicode hex="006B"/>
  <anchor x="298" y="0" name="bottom"/>
  <anchor x="135" y="710" name="top"/>
  <outline>
    <contour>
      <point x="40" y="0" type="line"/>
      <point x="210" y="0" type="line"/>
      <point x="210" y="142" type="line"/>
      <point x="262" y="200" type="line"/>
      <point x="390" y="0" type="line"/>
      <point x="580" y="0" type="line"/>
      <point x="372" y="308" type="line"/>
      <point x="572" y="540" type="line"/>
      <point x="378" y="540" type="line"/>
      <point x="210" y="340" type="line"/>
      <point x="210" y="710" type="line"/>
      <point x="40" y="710" type="line"/>
    </contour>
  </outline>
</glyph>
<glyph name="l" format="2">
  <advance width="600"/>
  <unicode hex="006C"/>
  <anchor x="312" y="0" name="bottom"/>
  <anchor x="310" y="360" name="center"/>
  <anchor x="280" y="710" name="top"/>
  <anchor x="394" y="540" name="topright"/>
  <outline>
    <contour>
      <point x="228" y="40" type="line"/>
      <point x="398" y="40" type="line"/>
      <point x="398" y="520" type="line" smooth="yes"/>
      <point x="398" y="647"/>
      <point x="335" y="710"/>
      <point x="208" y="710" type="curve" smooth="yes"/>
      <point x="60" y="710" type="line"/>
      <point x="60" y="580" type="line"/>
      <point x="170" y="580" type="line" smooth="yes"/>
      <point x="208" y="580"/>
      <point x="228" y="560"/>
      <point x="228" y="522" type="curve" smooth="yes"/>
    </contour>
    <contour>
      <point x="40" y="0" type="line"/>
      <point x="560" y="0" type="line"/>
      <point x="560" y="130" type="line"/>
      <point x="40" y="130" type="line"/>
    </contour>
  </outline>
</glyph>
<glyph name="m" format="2">
  <advance width="600"/>
  <unicode hex="006D"/>
  <anchor x="301" y="0" name="bottom"/>
  <anchor x="325" y="540" name="top"/>
  <outline>
    <contour>
      <point x="20" y="0" type="line"/>
      <point x="176" y="0" type="line"/>
      <point x="176" y="348" type="line" smooth="yes"/>
      <point x="176" y="393"/>
      <point x="185" y="410"/>
      <point x="206" y="410" type="curve" smooth="yes"/>
      <point x="223" y="410"/>
      <point x="230" y="398"/>
      <point x="230" y="348" type="curve" smooth="yes"/>
      <point x="230" y="0" type="line"/>
      <point x="370" y="0" type="line"/>
      <point x="370" y="348" type="line" smooth="yes"/>
      <point x="370" y="393"/>
      <point x="382" y="410"/>
      <point x="401" y="410" type="curve" smooth="yes"/>
      <point x="417" y="410"/>
      <point x="424" y="401"/>
      <point x="424" y="348" type="curve" smooth="yes"/>
      <point x="424" y="0" type="line"/>
      <point x="580" y="0" type="line"/>
      <point x="580" y="386" type="line" smooth="yes"/>
      <point x="580" y="496"/>
      <point x="544" y="552"/>
      <point x="470" y="552" type="curve" smooth="yes"/>
      <point x="406" y="552"/>
      <point x="358" y="508"/>
      <point x="342" y="414" type="curve"/>
      <point x="360" y="414" type="line"/>
      <point x="348" y="508"/>
      <point x="326" y="552"/>
      <point x="258" y="552" type="curve" smooth="yes"/>
      <point x="203" y="552"/>
      <point x="166" y="511"/>
      <point x="146" y="417" type="curve"/>
      <point x="159" y="413" type="line"/>
      <point x="153" y="540" type="line"/>
      <point x="20" y="540" type="line"/>
    </contour>
  </outline>
</glyph>
<glyph name="n" format="2">
  <advance width="600"/>
  <unicode hex="006E"/>
  <anchor x="297" y="0" name="bottom"/>
  <anchor x="297" y="540" name="top"/>
  <outline>
    <contour>
      <point x="64" y="0" type="line"/>
      <point x="234" y="0" type="line"/>
      <point x="234" y="306" type="line" smooth="yes"/>
      <point x="234" y="376"/>
      <point x="269" y="410"/>
      <point x="307" y="410" type="curve" smooth="yes"/>
      <point x="346" y="410"/>
      <point x="366" y="384"/>
      <point x="366" y="316" type="curve" smooth="yes"/>
      <point x="366" y="0" type="line"/>
      <point x="536" y="0" type="line"/>
      <point x="536" y="351" type="line" smooth="yes"/>
      <point x="536" y="473"/>
      <point x="491" y="552"/>
      <point x="380" y="552" type="curve" smooth="yes"/>
      <point x="288" y="552"/>
      <point x="226" y="502"/>
      <point x="208" y="390" type="curve"/>
      <point x="224" y="386" type="line"/>
      <point x="219" y="540" type="line"/>
      <point x="64" y="540" type="line"/>
    </contour>
  </outline>
</glyph>
<glyph name="o" format="2">
  <advance width="600"/>
  <unicode hex="006F"/>
  <anchor x="300" y="0" name="bottom"/>
  <anchor x="300" y="270" name="center"/>
  <anchor x="540" y="10" name="ogonek"/>
  <anchor x="300" y="540" name="top"/>
  <anchor x="334" y="540" name="topright"/>
  <outline>
    <contour>
      <point x="300" y="-12" type="curve" smooth="yes"/>
      <point x="456" y="-12"/>
      <point x="562" y="98"/>
      <point x="562" y="270" type="curve" smooth="yes"/>
      <point x="562" y="442"/>
      <point x="456" y="552"/>
      <point x="300" y="552" type="curve" smooth="yes"/>
      <point x="144" y="552"/>
      <point x="38" y="442"/>
      <point x="38" y="270" type="curve" smooth="yes"/>
      <point x="38" y="98"/>
      <point x="144" y="-12"/>
    </contour>
    <contour>
      <point x="300" y="134" type="curve" smooth="yes"/>
      <point x="244" y="134"/>
      <point x="214" y="180"/>
      <point x="214" y="270" type="curve" smooth="yes"/>
      <point x="214" y="360"/>
      <point x="244" y="406"/>
      <point x="300" y="406" type="curve" smooth="yes"/>
      <point x="356" y="406"/>
      <point x="386" y="360"/>
      <point x="386" y="270" type="curve" smooth="yes"/>
      <point x="386" y="180"/>
      <point x="356" y="134"/>
    </contour>
  </outline>
</glyph>
<glyph name="p" format="2">
  <advance width="600"/>
  <unicode hex="0070"/>
  <anchor x="300" y="0" name="bottom"/>
  <anchor x="300" y="540" name="top"/>
  <outline>
    <contour>
      <point x="40" y="-150" type="line"/>
      <point x="210" y="-150" type="line"/>
      <point x="210" y="123" type="line"/>
      <point x="194" y="110" type="line"/>
      <point x="229" y="24"/>
      <point x="281" y="-12"/>
      <point x="368" y="-12" type="curve" smooth="yes"/>
      <point x="499" y="-12"/>
      <point x="570" y="105"/>
      <point x="570" y="270" type="curve" smooth="yes"/>
      <point x="570" y="435"/>
      <point x="499" y="552"/>
      <point x="368" y="552" type="curve" smooth="yes"/>
      <point x="278" y="552"/>
      <point x="226" y="504"/>
      <point x="198" y="420" type="curve"/>
      <point x="211" y="414" type="line"/>
      <point x="206" y="540" type="line"/>
      <point x="40" y="540" type="line"/>
    </contour>
    <contour>
      <point x="304" y="134" type="curve" smooth="yes"/>
      <point x="252" y="134"/>
      <point x="210" y="174"/>
      <point x="210" y="270" type="curve" smooth="yes"/>
      <point x="210" y="366"/>
      <point x="252" y="406"/>
      <point x="304" y="406" type="curve" smooth="yes"/>
      <point x="362" y="406"/>
      <point x="394" y="370"/>
      <point x="394" y="270" type="curve" smooth="yes"/>
      <point x="394" y="170"/>
      <point x="362" y="134"/>
    </contour>
  </outline>
</glyph>
<glyph name="q" format="2">
  <advance width="600"/>
  <unicode hex="0071"/>
  <anchor x="300" y="0" name="bottom"/>
  <anchor x="300" y="540" name="top"/>
  <outline>
    <contour>
      <point x="560" y="-150" type="line"/>
      <point x="560" y="540" type="line"/>
      <point x="394" y="540" type="line"/>
      <point x="389" y="414" type="line"/>
      <point x="402" y="420" type="line"/>
      <point x="374" y="504"/>
      <point x="322" y="552"/>
      <point x="232" y="552" type="curve" smooth="yes"/>
      <point x="101" y="552"/>
      <point x="30" y="435"/>
      <point x="30" y="270" type="curve" smooth="yes"/>
      <point x="30" y="105"/>
      <point x="101" y="-12"/>
      <point x="232" y="-12" type="curve" smooth="yes"/>
      <point x="319" y="-12"/>
      <point x="371" y="24"/>
      <point x="406" y="110" type="curve"/>
      <point x="390" y="123" type="line"/>
      <point x="390" y="-150" type="line"/>
    </contour>
    <contour>
      <point x="296" y="134" type="curve" smooth="yes"/>
      <point x="238" y="134"/>
      <point x="206" y="170"/>
      <point x="206" y="270" type="curve" smooth="yes"/>
      <point x="206" y="370"/>
      <point x="238" y="406"/>
      <point x="296" y="406" type="curve" smooth="yes"/>
      <point x="348" y="406"/>
      <point x="390" y="366"/>
      <point x="390" y="270" type="curve" smooth="yes"/>
      <point x="390" y="174"/>
      <point x="348" y="134"/>
    </contour>
  </outline>
</glyph>
<glyph name="r" format="2">
  <advance width="600"/>
  <unicode hex="0072"/>
  <anchor x="276" y="0" name="bottom"/>
  <anchor x="340" y="540" name="top"/>
  <outline>
    <contour>
      <point x="60" y="0" type="line"/>
      <point x="512" y="0" type="line"/>
      <point x="512" y="130" type="line"/>
      <point x="283" y="130" type="line"/>
      <point x="352" y="61" type="line"/>
      <point x="352" y="300" type="line" smooth="yes"/>
      <point x="352" y="372"/>
      <point x="384" y="406"/>
      <point x="458" y="406" type="curve" smooth="yes"/>
      <point x="570" y="406" type="line"/>
      <point x="570" y="540" type="line"/>
      <point x="442" y="540" type="line" smooth="yes"/>
      <point x="347" y="540"/>
      <point x="310" y="482"/>
      <point x="303" y="378" type="curve"/>
      <point x="317" y="366" type="line"/>
      <point x="302" y="540" type="line"/>
      <point x="60" y="540" type="line"/>
      <point x="60" y="410" type="line"/>
      <point x="251" y="410" type="line"/>
      <point x="182" y="479" type="line"/>
      <point x="182" y="61" type="line"/>
      <point x="251" y="130" type="line"/>
      <point x="60" y="130" type="line"/>
    </contour>
  </outline>
</glyph>
<glyph name="s" format="2">
  <advance width="600"/>
  <unicode hex="0073"/>
  <anchor x="302" y="0" name="bottom"/>
  <anchor x="302" y="540" name="top"/>
  <outline>
    <contour>
      <point x="302" y="-12" type="curve" smooth="yes"/>
      <point x="466" y="-12"/>
      <point x="546" y="52"/>
      <point x="546" y="156" type="curve" smooth="yes"/>
      <point x="546" y="248"/>
      <point x="501" y="284"/>
      <point x="352" y="318" type="curve" smooth="yes"/>
      <point x="256" y="340"/>
      <point x="238" y="352"/>
      <point x="238" y="378" type="curve" smooth="yes"/>
      <point x="238" y="395"/>
      <point x="253" y="416"/>
      <point x="298" y="416" type="curve" smooth="yes"/>
      <point x="344" y="416"/>
      <point x="374" y="394"/>
      <point x="380" y="360" type="curve"/>
      <point x="546" y="366" type="line"/>
      <point x="536" y="458"/>
      <point x="476" y="552"/>
      <point x="296" y="552" type="curve" smooth="yes"/>
      <point x="137" y="552"/>
      <point x="64" y="472"/>
      <point x="64" y="378" type="curve" smooth="yes"/>
      <point x="64" y="273"/>
      <point x="124" y="234"/>
      <point x="292" y="196" type="curve" smooth="yes"/>
      <point x="362" y="180"/>
      <point x="372" y="171"/>
      <point x="372" y="152" type="curve" smooth="yes"/>
      <point x="372" y="134"/>
      <point x="355" y="124"/>
      <point x="304" y="124" type="curve" smooth="yes"/>
      <point x="250" y="124"/>
      <point x="230" y="144"/>
      <point x="218" y="174" type="curve"/>
      <point x="54" y="169" type="line"/>
      <point x="64" y="69"/>
      <point x="136" y="-12"/>
    </contour>
  </outline>
</glyph>
<glyph name="t" format="2">
  <advance width="600"/>
  <unicode hex="0074"/>
  <anchor x="340" y="0" name="bottom"/>
  <anchor x="290" y="278" name="center"/>
  <anchor x="290" y="540" name="top"/>
  <anchor x="330" y="682" name="topright"/>
  <outline>
    <contour>
      <point x="370" y="0" type="curve" smooth="yes"/>
      <point x="540" y="0" type="line"/>
      <point x="540" y="130" type="line"/>
      <point x="424" y="130" type="line" smooth="yes"/>
      <point x="374" y="130"/>
      <point x="350" y="154"/>
      <point x="350" y="204" type="curve" smooth="yes"/>
      <point x="350" y="667" type="line"/>
      <point x="180" y="667" type="line"/>
      <point x="180" y="182" type="line" smooth="yes"/>
      <point x="180" y="58"/>
      <point x="238" y="0"/>
    </contour>
    <contour>
      <point x="40" y="410" type="line"/>
      <point x="540" y="410" type="line"/>
      <point x="540" y="540" type="line"/>
      <point x="40" y="540" type="line"/>
    </contour>
  </outline>
</glyph>
<glyph name="u" format="2">
  <advance width="600"/>
  <unicode hex="0075"/>
  <anchor x="297" y="0" name="bottom"/>
  <anchor x="536" y="0" name="ogonek"/>
  <anchor x="297" y="540" name="top"/>
  <anchor x="370" y="540" name="topright"/>
  <outline>
    <contour>
      <point x="220" y="-12" type="curve" smooth="yes"/>
      <point x="320" y="-12"/>
      <point x="383" y="53"/>
      <point x="394" y="168" type="curve"/>
      <point x="376" y="170" type="line"/>
      <point x="381" y="0" type="line"/>
      <point x="536" y="0" type="line"/>
      <point x="536" y="540" type="line"/>
      <point x="366" y="540" type="line"/>
      <point x="366" y="232" type="line" smooth="yes"/>
      <point x="366" y="162"/>
      <point x="329" y="130"/>
      <point x="293" y="130" type="curve" smooth="yes"/>
      <point x="255" y="130"/>
      <point x="234" y="154"/>
      <point x="234" y="224" type="curve" smooth="yes"/>
      <point x="234" y="540" type="line"/>
      <point x="64" y="540" type="line"/>
      <point x="64" y="182" type="line" smooth="yes"/>
      <point x="64" y="52"/>
      <point x="122" y="-12"/>
    </contour>
  </outline>
</glyph>
<glyph name="v" format="2">
  <advance width="600"/>
  <unicode hex="0076"/>
  <anchor x="300" y="0" name="bottom"/>
  <anchor x="300" y="540" name="top"/>
  <outline>
    <contour>
      <point x="198" y="0" type="line"/>
      <point x="402" y="0" type="line"/>
      <point x="574" y="540" type="line"/>
      <point x="396" y="540" type="line"/>
      <point x="300" y="190" type="line"/>
      <point x="204" y="540" type="line"/>
      <point x="26" y="540" type="line"/>
    </contour>
  </outline>
</glyph>
<glyph name="w" format="2">
  <advance width="600"/>
  <unicode hex="0077"/>
  <anchor x="300" y="0" name="bottom"/>
  <anchor x="300" y="540" name="top"/>
  <outline>
    <contour>
      <point x="104" y="0" type="line"/>
      <point x="252" y="0" type="line"/>
      <point x="300" y="218" type="line"/>
      <point x="348" y="0" type="line"/>
      <point x="496" y="0" type="line"/>
      <point x="590" y="540" type="line"/>
      <point x="426" y="540" type="line"/>
      <point x="390" y="252" type="line"/>
      <point x="350" y="460" type="line"/>
      <point x="250" y="460" type="line"/>
      <point x="210" y="252" type="line"/>
      <point x="174" y="540" type="line"/>
      <point x="10" y="540" type="line"/>
    </contour>
  </outline>
</glyph>
<glyph name="x" format="2">
  <advance width="600"/>
  <unicode hex="0078"/>
  <anchor x="300" y="0" name="bottom"/>
  <anchor x="300" y="540" name="top"/>
  <outline>
    <contour>
      <point x="20" y="0" type="line"/>
      <point x="200" y="0" type="line"/>
      <point x="300" y="162" type="line"/>
      <point x="400" y="0" type="line"/>
      <point x="580" y="0" type="line"/>
      <point x="394" y="276" type="line"/>
      <point x="571" y="540" type="line"/>
      <point x="391" y="540" type="line"/>
      <point x="300" y="392" type="line"/>
      <point x="208" y="540" type="line"/>
      <point x="28" y="540" type="line"/>
      <point x="208" y="276" type="line"/>
    </contour>
  </outline>
</glyph>
<glyph name="y" format="2">
  <advance width="600"/>
  <unicode hex="0079"/>
  <anchor x="490" y="0" name="bottom"/>
  <anchor x="304" y="540" name="top"/>
  <outline>
    <contour>
      <point x="100" y="-150" type="line"/>
      <point x="198" y="-150" type="line" smooth="yes"/>
      <point x="288" y="-150"/>
      <point x="350" y="-120"/>
      <point x="380" y="-34" type="curve" smooth="yes"/>
      <point x="580" y="540" type="line"/>
      <point x="406" y="540" type="line"/>
      <point x="306" y="214" type="line"/>
      <point x="194" y="540" type="line"/>
      <point x="20" y="540" type="line"/>
      <point x="202" y="50" type="line"/>
      <point x="254" y="50" type="line"/>
      <point x="242" y="16" type="line" smooth="yes"/>
      <point x="232" y="-13"/>
      <point x="213" y="-20"/>
      <point x="180" y="-20" type="curve" smooth="yes"/>
      <point x="100" y="-20" type="line"/>
    </contour>
  </outline>
</glyph>
<glyph name="z" format="2">
  <advance width="600"/>
  <unicode hex="007A"/>
  <anchor x="302" y="0" name="bottom"/>
  <anchor x="302" y="540" name="top"/>
  <outline>
    <contour>
      <point x="60" y="0" type="line"/>
      <point x="540" y="0" type="line"/>
      <point x="540" y="130" type="line"/>
      <point x="260" y="130" type="line"/>
      <point x="530" y="402" type="line"/>
      <point x="530" y="540" type="line"/>
      <point x="70" y="540" type="line"/>
      <point x="70" y="410" type="line"/>
      <point x="330" y="410" type="line"/>
      <point x="60" y="138" type="line"/>
    </contour>
  </outline>
</glyph>
<glyph name="braceleft" format="2">
  <advance width="600"/>
  <unicode hex="007B"/>
  <outline>
    <contour>
      <point x="406" y="-132" type="curve" smooth="yes"/>
      <point x="500" y="-132" type="line"/>
      <point x="500" y="18" type="line"/>
      <point x="446" y="18" type="line" smooth="yes"/>
      <point x="396" y="18"/>
      <point x="372" y="38"/>
      <point x="372" y="98" type="curve" smooth="yes"/>
      <point x="372" y="163" type="line" smooth="yes"/>
      <point x="372" y="253"/>
      <point x="307" y="307"/>
      <point x="224" y="311" type="curve"/>
      <point x="224" y="321" type="line"/>
      <point x="306" y="325"/>
      <point x="372" y="379"/>
      <point x="372" y="469" type="curve" smooth="yes"/>
      <point x="372" y="534" type="line" smooth="yes"/>
      <point x="372" y="582"/>
      <point x="394" y="614"/>
      <point x="446" y="614" type="curve" smooth="yes"/>
      <point x="500" y="614" type="line"/>
      <point x="500" y="764" type="line"/>
      <point x="406" y="764" type="line" smooth="yes"/>
      <point x="266" y="764"/>
      <point x="202" y="681"/>
      <point x="202" y="564" type="curve" smooth="yes"/>
      <point x="202" y="481" type="line" smooth="yes"/>
      <point x="202" y="401"/>
      <point x="175" y="390"/>
      <point x="100" y="391" type="curve"/>
      <point x="100" y="241" type="line"/>
      <point x="175" y="241"/>
      <point x="202" y="230"/>
      <point x="202" y="151" type="curve" smooth="yes"/>
      <point x="202" y="68" type="line" smooth="yes"/>
      <point x="202" y="-49"/>
      <point x="266" y="-132"/>
    </contour>
  </outline>
</glyph>
<glyph name="bar" format="2">
  <advance width="600"/>
  <unicode hex="007C"/>
  <outline>
    <contour>
      <point x="220" y="-110" type="line"/>
      <point x="380" y="-110" type="line"/>
      <point x="380" y="750" type="line"/>
      <point x="220" y="750" type="line"/>
    </contour>
  </outline>
</glyph>
<glyph name="asciitilde" format="2">
  <advance width="600"/>
  <unicode hex="007E"/>
  <outline>
    <contour>
      <point x="377" y="242" type="curve" smooth="yes"/>
      <point x="468" y="242"/>
      <point x="522" y="308"/>
      <point x="522" y="421" type="curve"/>
      <point x="397" y="421" type="line"/>
      <point x="397" y="377"/>
      <point x="387" y="356"/>
      <point x="365" y="356" type="curve" smooth="yes"/>
      <point x="351" y="356"/>
      <point x="343" y="361"/>
      <point x="320" y="384" type="curve" smooth="yes"/>
      <point x="292" y="411"/>
      <point x="262" y="424"/>
      <point x="225" y="424" type="curve" smooth="yes"/>
      <point x="133" y="424"/>
      <point x="79" y="357"/>
      <point x="79" y="245" type="curve"/>
      <point x="205" y="245" type="line"/>
      <point x="205" y="288"/>
      <point x="216" y="310"/>
      <point x="237" y="310" type="curve" smooth="yes"/>
      <point x="251" y="310"/>
      <point x="256" y="307"/>
      <point x="285" y="279" type="curve" smooth="yes"/>
      <point x="311" y="254"/>
      <point x="340" y="242"/>
    </contour>
  </outline>
</glyph>
<glyph name="cent" format="2">
  <advance width="600"/>
  <unicode hex="00A2"/>
  <anchor x="307" y="83" name="bottom"/>
  <anchor x="307" y="623" name="top"/>
  <outline>
    <contour>
      <point x="238" y="-12" type="line"/>
      <point x="318" y="-12" type="line"/>
      <point x="381" y="725" type="line"/>
      <point x="301" y="725" type="line"/>
    </contour>
    <component base="c" yOffset="83"/>
  </outline>
</glyph>
<glyph name="sterling" format="2">
  <advance width="600"/>
  <unicode hex="00A3"/>
  <outline>
    <contour>
      <point x="21" y="0" type="line"/>
      <point x="568" y="3" type="line"/>
      <point x="568" y="160" type="line"/>
      <point x="214" y="160" type="line"/>
      <point x="269" y="185"/>
      <point x="301" y="243"/>
      <point x="306" y="306" type="curve"/>
      <point x="435" y="306" type="line"/>
      <point x="435" y="392" type="line"/>
      <point x="298" y="392" type="line"/>
      <point x="284" y="429"/>
      <point x="259" y="467"/>
      <point x="259" y="506" type="curve" smooth="yes"/>
      <point x="259" y="542"/>
      <point x="286" y="569"/>
      <point x="322" y="569" type="curve" smooth="yes"/>
      <point x="356" y="569"/>
      <point x="379" y="547"/>
      <point x="384" y="508" type="curve"/>
      <point x="580" y="515" type="line"/>
      <point x="560" y="650"/>
      <point x="473" y="726"/>
      <point x="322" y="726" type="curve" smooth="yes"/>
      <point x="175" y="726"/>
      <point x="83" y="639"/>
      <point x="83" y="520" type="curve" smooth="yes"/>
      <point x="83" y="484"/>
      <point x="96" y="442"/>
      <point x="116" y="392" type="curve"/>
      <point x="20" y="392" type="line"/>
      <point x="20" y="306" type="line"/>
      <point x="134" y="306" type="line"/>
      <point x="136" y="297"/>
      <point x="138" y="284"/>
      <point x="138" y="273" type="curve" smooth="yes"/>
      <point x="138" y="216"/>
      <point x="99" y="164"/>
      <point x="21" y="132" type="curve"/>
    </contour>
  </outline>
</glyph>
<glyph name="currency" format="2">
  <advance width="600"/>
  <unicode hex="00A4"/>
  <outline>
    <contour>
      <point x="300" y="147" type="curve" smooth="yes"/>
      <point x="427" y="147"/>
      <point x="529" y="250"/>
      <point x="529" y="376" type="curve" smooth="yes"/>
      <point x="529" y="502"/>
      <point x="427" y="605"/>
      <point x="300" y="605" type="curve" smooth="yes"/>
      <point x="174" y="605"/>
      <point x="71" y="502"/>
      <point x="71" y="376" type="curve" smooth="yes"/>
      <point x="71" y="250"/>
      <point x="174" y="147"/>
    </contour>
    <contour>
      <point x="300" y="273" type="curve" smooth="yes"/>
      <point x="244" y="273"/>
      <point x="197" y="320"/>
      <point x="197" y="376" type="curve" smooth="yes"/>
      <point x="197" y="432"/>
      <point x="244" y="479"/>
      <point x="300" y="479" type="curve" smooth="yes"/>
      <point x="355" y="479"/>
      <point x="403" y="432"/>
      <point x="403" y="376" type="curve" smooth="yes"/>
      <point x="403" y="320"/>
      <point x="355" y="273"/>
    </contour>
    <contour>
      <point x="80" y="97" type="line"/>
      <point x="213" y="230" type="line"/>
      <point x="154" y="288" type="line"/>
      <point x="21" y="156" type="line"/>
    </contour>
    <contour>
      <point x="521" y="97" type="line"/>
      <point x="580" y="156" type="line"/>
      <point x="447" y="288" type="line"/>
      <point x="389" y="230" type="line"/>
    </contour>
    <contour>
      <point x="447" y="465" type="line"/>
      <point x="580" y="597" type="line"/>
      <point x="521" y="656" type="line"/>
      <point x="389" y="523" type="line"/>
    </contour>
    <contour>
      <point x="154" y="465" type="line"/>
      <point x="213" y="523" type="line"/>
      <point x="80" y="656" type="line"/>
      <point x="21" y="597" type="line"/>
    </contour>
  </outline>
</glyph>
<glyph name="yen" format="2">
  <advance width="600"/>
  <unicode hex="00A5"/>
  <anchor x="302" y="0" name="bottom"/>
  <anchor x="300" y="710" name="top"/>
  <outline>
    <contour>
      <point x="50" y="111" type="line"/>
      <point x="550" y="111" type="line"/>
      <point x="550" y="205" type="line"/>
      <point x="50" y="205" type="line"/>
    </contour>
    <contour>
      <point x="50" y="268" type="line"/>
      <point x="550" y="268" type="line"/>
      <point x="550" y="362" type="line"/>
      <point x="50" y="362" type="line"/>
    </contour>
    <component base="Y"/>
  </outline>
</glyph>
<glyph name="section" format="2">
  <advance width="600"/>
  <unicode hex="00A7"/>
  <outline>
    <contour>
      <point x="315" y="-67" type="curve" smooth="yes"/>
      <point x="463" y="-67"/>
      <point x="559" y="-8"/>
      <point x="559" y="100" type="curve" smooth="yes"/>
      <point x="559" y="151"/>
      <point x="537" y="187"/>
      <point x="481" y="215" type="curve"/>
      <point x="533" y="239"/>
      <point x="556" y="276"/>
      <point x="556" y="326" type="curve" smooth="yes"/>
      <point x="556" y="434"/>
      <point x="456" y="479"/>
      <point x="319" y="500" type="curve" smooth="yes"/>
      <point x="268" y="508"/>
      <point x="241" y="523"/>
      <point x="241" y="554" type="curve" smooth="yes"/>
      <point x="241" y="584"/>
      <point x="264" y="603"/>
      <point x="302" y="603" type="curve" smooth="yes"/>
      <point x="343" y="603"/>
      <point x="373" y="576"/>
      <point x="379" y="532" type="curve"/>
      <point x="560" y="538" type="line"/>
      <point x="542" y="658"/>
      <point x="442" y="726"/>
      <point x="306" y="726" type="curve" smooth="yes"/>
      <point x="148" y="726"/>
      <point x="52" y="665"/>
      <point x="52" y="554" type="curve" smooth="yes"/>
      <point x="52" y="508"/>
      <point x="73" y="473"/>
      <point x="126" y="444" type="curve"/>
      <point x="79" y="419"/>
      <point x="57" y="382"/>
      <point x="54" y="340" type="curve" smooth="yes"/>
      <point x="47" y="246"/>
      <point x="107" y="193"/>
      <point x="239" y="167" type="curve" smooth="yes"/>
      <point x="340" y="147"/>
      <point x="371" y="130"/>
      <point x="371" y="102" type="curve" smooth="yes"/>
      <point x="371" y="77"/>
      <point x="345" y="59"/>
      <point x="308" y="59" type="curve" smooth="yes"/>
      <point x="261" y="59"/>
      <point x="231" y="83"/>
      <point x="223" y="126" type="curve"/>
      <point x="40" y="117" type="line"/>
      <point x="50" y="2"/>
      <point x="153" y="-67"/>
    </contour>
    <contour>
      <point x="307" y="274" type="curve" smooth="yes"/>
      <point x="254" y="278"/>
      <point x="225" y="301"/>
      <point x="225" y="334" type="curve" smooth="yes"/>
      <point x="225" y="366"/>
      <point x="255" y="387"/>
      <point x="300" y="387" type="curve" smooth="yes"/>
      <point x="339" y="387"/>
      <point x="386" y="368"/>
      <point x="386" y="329" type="curve" smooth="yes"/>
      <point x="386" y="295"/>
      <point x="353" y="274"/>
    </contour>
  </outline>
</glyph>
<glyph name="copyright" format="2">
  <advance width="600"/>
  <unicode hex="00A9"/>
  <outline>
    <contour>
      <point x="299" y="-12" type="curve" smooth="yes"/>
      <point x="479" y="-12"/>
      <point x="600" y="133"/>
      <point x="600" y="357" type="curve" smooth="yes"/>
      <point x="600" y="581"/>
      <point x="479" y="726"/>
      <point x="299" y="726" type="curve" smooth="yes"/>
      <point x="119" y="726"/>
      <point x="0" y="581"/>
      <point x="0" y="357" type="curve" smooth="yes"/>
      <point x="0" y="133"/>
      <point x="119" y="-12"/>
    </contour>
    <contour>
      <point x="299" y="72" type="curve" smooth="yes"/>
      <point x="169" y="72"/>
      <point x="90" y="177"/>
      <point x="90" y="357" type="curve" smooth="yes"/>
      <point x="90" y="537"/>
      <point x="169" y="642"/>
      <point x="299" y="642" type="curve" smooth="yes"/>
      <point x="429" y="642"/>
      <point x="510" y="537"/>
      <point x="510" y="357" type="curve" smooth="yes"/>
      <point x="510" y="177"/>
      <point x="429" y="72"/>
    </contour>
    <contour>
      <point x="302" y="164" type="curve" smooth="yes"/>
      <point x="394" y="164"/>
      <point x="462" y="225"/>
      <point x="474" y="317" type="curve"/>
      <point x="344" y="322" type="line"/>
      <point x="341" y="287"/>
      <point x="329" y="260"/>
      <point x="312" y="260" type="curve" smooth="yes"/>
      <point x="285" y="260"/>
      <point x="272" y="296"/>
      <point x="272" y="356" type="curve" smooth="yes"/>
      <point x="272" y="416"/>
      <point x="285" y="456"/>
      <point x="312" y="456" type="curve" smooth="yes"/>
      <point x="327" y="456"/>
      <point x="339" y="433"/>
      <point x="341" y="402" type="curve"/>
      <point x="471" y="407" type="line"/>
      <point x="461" y="494"/>
      <point x="392" y="552"/>
      <point x="302" y="552" type="curve" smooth="yes"/>
      <point x="206" y="552"/>
      <point x="130" y="476"/>
      <point x="130" y="356" type="curve" smooth="yes"/>
      <point x="130" y="236"/>
      <point x="206" y="164"/>
    </contour>
  </outline>
</glyph>
<glyph name="ordfeminine" format="2">
  <advance width="600"/>
  <unicode hex="00AA"/>
  <outline>
    <contour>
      <point x="221" y="376" type="curve" smooth="yes"/>
      <point x="292" y="376"/>
      <point x="332" y="404"/>
      <point x="345" y="450" type="curve"/>
      <point x="337" y="460" type="line"/>
      <point x="337" y="390"/>
      <point x="384" y="376"/>
      <point x="419" y="376" type="curve" smooth="yes"/>
      <point x="443" y="376"/>
      <point x="465" y="378"/>
      <point x="474" y="381" type="curve"/>
      <point x="474" y="460" type="line"/>
      <point x="466" y="460" type="line" smooth="yes"/>
      <point x="454" y="460"/>
      <point x="446" y="464"/>
      <point x="446" y="486" type="curve" smooth="yes"/>
      <point x="446" y="583" type="line" smooth="yes"/>
      <point x="446" y="678"/>
      <point x="393" y="726"/>
      <point x="273" y="726" type="curve" smooth="yes"/>
      <point x="167" y="726"/>
      <point x="109" y="691"/>
      <point x="96" y="610" type="curve"/>
      <point x="227" y="606" type="line"/>
      <point x="231" y="634"/>
      <point x="247" y="646"/>
      <point x="273" y="646" type="curve" smooth="yes"/>
      <point x="298" y="646"/>
      <point x="314" y="627"/>
      <point x="314" y="593" type="curve"/>
      <point x="214" y="572" type="line" smooth="yes"/>
      <point x="133" y="555"/>
      <point x="90" y="529"/>
      <point x="90" y="467" type="curve" smooth="yes"/>
      <point x="90" y="409"/>
      <point x="141" y="376"/>
    </contour>
    <contour>
      <point x="256" y="452" type="curve" smooth="yes"/>
      <point x="235" y="452"/>
      <point x="226" y="462"/>
      <point x="226" y="479" type="curve" smooth="yes"/>
      <point x="226" y="496"/>
      <point x="241" y="507"/>
      <point x="261" y="512" type="curve" smooth="yes"/>
      <point x="314" y="525" type="line"/>
      <point x="314" y="514" type="line" smooth="yes"/>
      <point x="314" y="472"/>
      <point x="288" y="452"/>
    </contour>
  </outline>
</glyph>
<glyph name="logicalnot" format="2">
  <advance width="600"/>
  <unicode hex="00AC"/>
  <outline>
    <contour>
      <point x="400" y="66" type="line"/>
      <point x="520" y="66" type="line"/>
      <point x="520" y="340" type="line"/>
      <point x="80" y="340" type="line"/>
      <point x="80" y="220" type="line"/>
      <point x="400" y="220" type="line"/>
    </contour>
  </outline>
</glyph>
<glyph name="registered" format="2">
  <advance width="600"/>
  <unicode hex="00AE"/>
  <outline>
    <contour>
      <point x="300" y="148" type="curve" smooth="yes"/>
      <point x="460" y="148"/>
      <point x="590" y="277"/>
      <point x="590" y="438" type="curve" smooth="yes"/>
      <point x="590" y="597"/>
      <point x="460" y="726"/>
      <point x="300" y="726" type="curve" smooth="yes"/>
      <point x="140" y="726"/>
      <point x="10" y="597"/>
      <point x="10" y="438" type="curve" smooth="yes"/>
      <point x="10" y="277"/>
      <point x="140" y="148"/>
    </contour>
    <contour>
      <point x="300" y="214" type="curve" smooth="yes"/>
      <point x="173" y="214"/>
      <point x="82" y="315"/>
      <point x="82" y="438" type="curve" smooth="yes"/>
      <point x="82" y="560"/>
      <point x="173" y="660"/>
      <point x="300" y="660" type="curve" smooth="yes"/>
      <point x="429" y="660"/>
      <point x="518" y="560"/>
      <point x="518" y="438" type="curve" smooth="yes"/>
      <point x="518" y="315"/>
      <point x="429" y="214"/>
    </contour>
    <contour>
      <point x="177" y="290" type="line"/>
      <point x="277" y="290" type="line"/>
      <point x="277" y="390" type="line"/>
      <point x="294" y="390" type="line"/>
      <point x="336" y="290" type="line"/>
      <point x="444" y="290" type="line"/>
      <point x="387" y="405" type="line"/>
      <point x="423" y="420"/>
      <point x="441" y="454"/>
      <point x="441" y="491" type="curve" smooth="yes"/>
      <point x="441" y="550"/>
      <point x="386" y="590"/>
      <point x="311" y="590" type="curve" smooth="yes"/>
      <point x="177" y="590" type="line"/>
    </contour>
    <contour>
      <point x="275" y="460" type="line"/>
      <point x="275" y="515" type="line"/>
      <point x="294" y="515" type="line" smooth="yes"/>
      <point x="319" y="515"/>
      <point x="338" y="508"/>
      <point x="338" y="487" type="curve" smooth="yes"/>
      <point x="338" y="466"/>
      <point x="319" y="460"/>
      <point x="294" y="460" type="curve" smooth="yes"/>
    </contour>
  </outline>
</glyph>
<glyph name="degree" format="2">
  <advance width="600"/>
  <unicode hex="00B0"/>
  <outline>
    <contour>
      <point x="300" y="346" type="curve" smooth="yes"/>
      <point x="404" y="346"/>
      <point x="490" y="428"/>
      <point x="490" y="536" type="curve" smooth="yes"/>
      <point x="490" y="642"/>
      <point x="404" y="726"/>
      <point x="300" y="726" type="curve" smooth="yes"/>
      <point x="197" y="726"/>
      <point x="110" y="642"/>
      <point x="110" y="536" type="curve" smooth="yes"/>
      <point x="110" y="429"/>
      <point x="197" y="346"/>
    </contour>
    <contour>
      <point x="300" y="470" type="curve" smooth="yes"/>
      <point x="265" y="470"/>
      <point x="234" y="498"/>
      <point x="234" y="536" type="curve" smooth="yes"/>
      <point x="234" y="573"/>
      <point x="265" y="602"/>
      <point x="300" y="602" type="curve" smooth="yes"/>
      <point x="337" y="602"/>
      <point x="366" y="574"/>
      <point x="366" y="536" type="curve" smooth="yes"/>
      <point x="366" y="497"/>
      <point x="337" y="470"/>
    </contour>
  </outline>
</glyph>
<glyph name="plusminus" format="2">
  <advance width="600"/>
  <unicode hex="00B1"/>
  <outline>
    <contour>
      <point x="61" y="0" type="line"/>
      <point x="539" y="0" type="line"/>
      <point x="539" y="128" type="line"/>
      <point x="61" y="128" type="line"/>
    </contour>
    <contour>
      <point x="225" y="172" type="line"/>
      <point x="375" y="172" type="line"/>
      <point x="375" y="610" type="line"/>
      <point x="225" y="610" type="line"/>
    </contour>
    <contour>
      <point x="61" y="320" type="line"/>
      <point x="539" y="320" type="line"/>
      <point x="539" y="462" type="line"/>
      <point x="61" y="462" type="line"/>
    </contour>
  </outline>
</glyph>
<glyph name="twosuperior" format="2">
  <advance width="600"/>
  <unicode hex="00B2"/>
  <outline>
    <contour>
      <point x="155" y="323" type="curve"/>
      <point x="437" y="323" type="line"/>
      <point x="437" y="423" type="line"/>
      <point x="277" y="423" type="line"/>
      <point x="277" y="429"/>
      <point x="283" y="436"/>
      <point x="317" y="452" type="curve" smooth="yes"/>
      <point x="363" y="474" type="line" smooth="yes"/>
      <point x="423" y="503"/>
      <point x="450" y="536"/>
      <point x="450" y="596" type="curve" smooth="yes"/>
      <point x="450" y="667"/>
      <point x="409" y="718"/>
      <point x="303" y="718" type="curve" smooth="yes"/>
      <point x="215" y="718"/>
      <point x="158" y="675"/>
      <point x="150" y="588" type="curve"/>
      <point x="256" y="582" type="line"/>
      <point x="261" y="619"/>
      <point x="277" y="630"/>
      <point x="304" y="630" type="curve" smooth="yes"/>
      <point x="334" y="630"/>
      <point x="344" y="613"/>
      <point x="344" y="592" type="curve" smooth="yes"/>
      <point x="344" y="570"/>
      <point x="336" y="562"/>
      <point x="307" y="548" type="curve" smooth="yes"/>
      <point x="265" y="528" type="line" smooth="yes"/>
      <point x="179" y="487"/>
      <point x="155" y="447"/>
    </contour>
  </outline>
</glyph>
<glyph name="threesuperior" format="2">
  <advance width="600"/>
  <unicode hex="00B3"/>
  <outline>
    <contour>
      <point x="296" y="315" type="curve" smooth="yes"/>
      <point x="409" y="315"/>
      <point x="456" y="367"/>
      <point x="456" y="433" type="curve" smooth="yes"/>
      <point x="456" y="485"/>
      <point x="425" y="514"/>
      <point x="364" y="524" type="curve"/>
      <point x="417" y="535"/>
      <point x="442" y="567"/>
      <point x="442" y="616" type="curve" smooth="yes"/>
      <point x="442" y="676"/>
      <point x="399" y="718"/>
      <point x="292" y="718" type="curve" smooth="yes"/>
      <point x="201" y="718"/>
      <point x="154" y="680"/>
      <point x="146" y="598" type="curve"/>
      <point x="262" y="592" type="line"/>
      <point x="264" y="619"/>
      <point x="277" y="630"/>
      <point x="294" y="630" type="curve" smooth="yes"/>
      <point x="313" y="630"/>
      <point x="324" y="616"/>
      <point x="324" y="590" type="curve" smooth="yes"/>
      <point x="324" y="569"/>
      <point x="312" y="555"/>
      <point x="293" y="555" type="curve" smooth="yes"/>
      <point x="264" y="555" type="line"/>
      <point x="264" y="479" type="line"/>
      <point x="293" y="479" type="line" smooth="yes"/>
      <point x="316" y="479"/>
      <point x="335" y="465"/>
      <point x="335" y="442" type="curve" smooth="yes"/>
      <point x="335" y="415"/>
      <point x="319" y="403"/>
      <point x="296" y="403" type="curve" smooth="yes"/>
      <point x="276" y="403"/>
      <point x="262" y="415"/>
      <point x="260" y="437" type="curve"/>
      <point x="144" y="433" type="line"/>
      <point x="151" y="348"/>
      <point x="188" y="315"/>
    </contour>
  </outline>
</glyph>
<glyph name="acute" format="2">
  <advance width="600"/>
  <unicode hex="00B4"/>
  <outline>
    <contour>
      <point x="330" y="500" type="line"/>
      <point x="440" y="740" type="line"/>
      <point x="240" y="740" type="line"/>
      <point x="160" y="500" type="line"/>
    </contour>
  </outline>
</glyph>
<glyph name="micro" format="2">
  <advance width="600"/>
  <unicode hex="00B5"/>
  <unicode hex="03BC"/>
  <outline>
    <contour>
      <point x="54" y="-150" type="line"/>
      <point x="224" y="-150" type="line"/>
      <point x="224" y="45" type="line"/>
      <point x="237" y="7"/>
      <point x="264" y="-12"/>
      <point x="297" y="-12" type="curve" smooth="yes"/>
      <point x="334" y="-12"/>
      <point x="367" y="13"/>
      <point x="384" y="61" type="curve"/>
      <point x="384" y="0" type="line"/>
      <point x="546" y="0" type="line"/>
      <point x="546" y="540" type="line"/>
      <point x="376" y="540" type="line"/>
      <point x="376" y="254" type="line" smooth="yes"/>
      <point x="376" y="178"/>
      <point x="347" y="134"/>
      <point x="297" y="134" type="curve" smooth="yes"/>
      <point x="249" y="134"/>
      <point x="224" y="176"/>
      <point x="224" y="254" type="curve" smooth="yes"/>
      <point x="224" y="540" type="line"/>
      <point x="54" y="540" type="line"/>
    </contour>
  </outline>
</glyph>
<glyph name="paragraph" format="2">
  <advance width="600"/>
  <unicode hex="00B6"/>
  <outline>
    <contour>
      <point x="190" y="0" type="line"/>
      <point x="340" y="0" type="line"/>
      <point x="340" y="570" type="line"/>
      <point x="400" y="570" type="line"/>
      <point x="400" y="0" type="line"/>
      <point x="550" y="0" type="line"/>
      <point x="550" y="710" type="line"/>
      <point x="190" y="710" type="line" smooth="yes"/>
      <point x="100" y="710"/>
      <point x="20" y="630"/>
      <point x="20" y="510" type="curve" smooth="yes"/>
      <point x="20" y="390"/>
      <point x="100" y="310"/>
      <point x="190" y="310" type="curve"/>
    </contour>
  </outline>
</glyph>
<glyph name="onesuperior" format="2">
  <advance width="600"/>
  <unicode hex="00B9"/>
  <outline>
    <contour>
      <point x="264" y="323" type="line"/>
      <point x="384" y="323" type="line"/>
      <point x="384" y="710" type="line"/>
      <point x="282" y="710" type="line"/>
      <point x="282" y="652"/>
      <point x="249" y="615"/>
      <point x="186" y="615" type="curve" smooth="yes"/>
      <point x="156" y="615" type="line"/>
      <point x="156" y="525" type="line"/>
      <point x="264" y="525" type="line"/>
    </contour>
  </outline>
</glyph>
<glyph name="ordmasculine" format="2">
  <advance width="600"/>
  <unicode hex="00BA"/>
  <outline>
    <contour>
      <point x="300" y="376" type="curve" smooth="yes"/>
      <point x="419" y="376"/>
      <point x="492" y="445"/>
      <point x="492" y="551" type="curve" smooth="yes"/>
      <point x="492" y="656"/>
      <point x="420" y="726"/>
      <point x="300" y="726" type="curve" smooth="yes"/>
      <point x="180" y="726"/>
      <point x="108" y="656"/>
      <point x="108" y="551" type="curve" smooth="yes"/>
      <point x="108" y="445"/>
      <point x="181" y="376"/>
    </contour>
    <contour>
      <point x="300" y="466" type="curve" smooth="yes"/>
      <point x="264" y="466"/>
      <point x="246" y="494"/>
      <point x="246" y="551" type="curve" smooth="yes"/>
      <point x="246" y="607"/>
      <point x="264" y="636"/>
      <point x="300" y="636" type="curve" smooth="yes"/>
      <point x="336" y="636"/>
      <point x="354" y="607"/>
      <point x="354" y="551" type="curve" smooth="yes"/>
      <point x="354" y="494"/>
      <point x="336" y="466"/>
    </contour>
  </outline>
</glyph>
<glyph name="questiondown" format="2">
  <advance width="600"/>
  <unicode hex="00BF"/>
  <outline>
    <contour>
      <point x="292" y="-162" type="curve" smooth="yes"/>
      <point x="452" y="-162"/>
      <point x="548" y="-68"/>
      <point x="560" y="62" type="curve"/>
      <point x="384" y="70" type="line"/>
      <point x="376" y="10"/>
      <point x="352" y="-16"/>
      <point x="292" y="-16" type="curve" smooth="yes"/>
      <point x="230" y="-16"/>
      <point x="214" y="14"/>
      <point x="214" y="46" type="curve" smooth="yes"/>
      <point x="214" y="86"/>
      <point x="227" y="106"/>
      <point x="287" y="136" type="curve" smooth="yes"/>
      <point x="359" y="172"/>
      <point x="376" y="220"/>
      <point x="376" y="310" type="curve"/>
      <point x="228" y="310" type="line"/>
      <point x="228" y="274"/>
      <point x="214" y="251"/>
      <point x="152" y="216" type="curve" smooth="yes"/>
      <point x="74" y="173"/>
      <point x="40" y="129"/>
      <point x="40" y="42" type="curve" smooth="yes"/>
      <point x="40" y="-76"/>
      <point x="126" y="-162"/>
    </contour>
    <component base="period" xScale="-1.0" yScale="-1.0" xOffset="598" yOffset="552"/>
  </outline>
</glyph>
<glyph name="AE" format="2">
  <advance width="600"/>
  <unicode hex="00C6"/>
  <anchor x="300" y="0" name="bottom"/>
  <anchor x="300" y="710" name="top"/>
  <outline>
    <contour>
      <point x="4" y="0" type="line"/>
      <point x="190" y="0" type="line"/>
      <point x="293" y="554" type="line"/>
      <point x="303" y="554" type="line"/>
      <point x="303" y="0" type="line"/>
      <point x="590" y="0" type="line"/>
      <point x="590" y="158" type="line"/>
      <point x="471" y="158" type="line"/>
      <point x="471" y="279" type="line"/>
      <point x="578" y="279" type="line"/>
      <point x="578" y="433" type="line"/>
      <point x="471" y="433" type="line"/>
      <point x="471" y="552" type="line"/>
      <point x="585" y="552" type="line"/>
      <point x="585" y="710" type="line"/>
      <point x="147" y="710" type="line"/>
    </contour>
    <contour>
      <point x="180" y="118" type="line"/>
      <point x="348" y="118" type="line"/>
      <point x="348" y="268" type="line"/>
      <point x="215" y="268" type="line"/>
    </contour>
  </outline>
</glyph>
<glyph name="multiply" format="2">
  <advance width="600"/>
  <unicode hex="00D7"/>
  <outline>
    <contour>
      <point x="57" y="144" type="line"/>
      <point x="163" y="38" type="line"/>
      <point x="543" y="418" type="line"/>
      <point x="437" y="524" type="line"/>
    </contour>
    <contour>
      <point x="57" y="418" type="line"/>
      <point x="437" y="38" type="line"/>
      <point x="543" y="144" type="line"/>
      <point x="163" y="524" type="line"/>
    </contour>
  </outline>
</glyph>
<glyph name="Thorn" format="2">
  <advance width="600"/>
  <unicode hex="00DE"/>
  <outline>
    <contour>
      <point x="104" y="138" type="line"/>
      <point x="315" y="138" type="line" smooth="yes"/>
      <point x="480" y="138"/>
      <point x="570" y="232"/>
      <point x="570" y="367" type="curve" smooth="yes"/>
      <point x="570" y="500"/>
      <point x="480" y="594"/>
      <point x="315" y="594" type="curve" smooth="yes"/>
      <point x="104" y="594" type="line"/>
      <point x="104" y="438" type="line"/>
      <point x="308" y="438" type="line" smooth="yes"/>
      <point x="356" y="438"/>
      <point x="386" y="415"/>
      <point x="386" y="366" type="curve" smooth="yes"/>
      <point x="386" y="318"/>
      <point x="356" y="294"/>
      <point x="308" y="294" type="curve" smooth="yes"/>
      <point x="104" y="294" type="line"/>
    </contour>
    <contour>
      <point x="70" y="0" type="line"/>
      <point x="250" y="0" type="line"/>
      <point x="250" y="710" type="line"/>
      <point x="70" y="710" type="line"/>
    </contour>
  </outline>
</glyph>
<glyph name="germandbls" format="2">
  <advance width="600"/>
  <unicode hex="00DF"/>
  <outline>
    <contour>
      <point x="30" y="0" type="line"/>
      <point x="200" y="0" type="line"/>
      <point x="200" y="445" type="line" smooth="yes"/>
      <point x="200" y="521"/>
      <point x="231" y="562"/>
      <point x="288" y="562" type="curve" smooth="yes"/>
      <point x="335" y="562"/>
      <point x="360" y="540"/>
      <point x="360" y="498" type="curve" smooth="yes"/>
      <point x="360" y="458"/>
      <point x="340" y="440"/>
      <point x="296" y="440" type="curve" smooth="yes"/>
      <point x="259" y="440" type="line"/>
      <point x="259" y="290" type="line"/>
      <point x="306" y="290" type="line" smooth="yes"/>
      <point x="364" y="290"/>
      <point x="400" y="273"/>
      <point x="400" y="222" type="curve" smooth="yes"/>
      <point x="400" y="172"/>
      <point x="364" y="155"/>
      <point x="309" y="155" type="curve" smooth="yes"/>
      <point x="249" y="155" type="line"/>
      <point x="249" y="0" type="line"/>
      <point x="313" y="0" type="line" smooth="yes"/>
      <point x="474" y="0"/>
      <point x="570" y="73"/>
      <point x="570" y="194" type="curve" smooth="yes"/>
      <point x="570" y="300"/>
      <point x="491" y="372"/>
      <point x="371" y="376" type="curve"/>
      <point x="372" y="359" type="line"/>
      <point x="472" y="372"/>
      <point x="536" y="434"/>
      <point x="536" y="520" type="curve" smooth="yes"/>
      <point x="536" y="648"/>
      <point x="450" y="720"/>
      <point x="298" y="720" type="curve" smooth="yes"/>
      <point x="122" y="720"/>
      <point x="30" y="613"/>
      <point x="30" y="438" type="curve" smooth="yes"/>
    </contour>
  </outline>
</glyph>
<glyph name="ae" format="2">
  <advance width="600"/>
  <unicode hex="00E6"/>
  <anchor x="300" y="0" name="bottom"/>
  <anchor x="300" y="540" name="top"/>
  <outline>
    <contour>
      <point x="413" y="-12" type="curve" smooth="yes"/>
      <point x="501" y="-12"/>
      <point x="565" y="44"/>
      <point x="586" y="169" type="curve"/>
      <point x="438" y="184" type="line"/>
      <point x="437" y="139"/>
      <point x="426" y="131"/>
      <point x="409" y="131" type="curve" smooth="yes"/>
      <point x="387" y="131"/>
      <point x="373" y="155"/>
      <point x="372" y="220" type="curve"/>
      <point x="592" y="220" type="line"/>
      <point x="592" y="281" type="line" smooth="yes"/>
      <point x="592" y="475"/>
      <point x="510" y="552"/>
      <point x="413" y="552" type="curve" smooth="yes"/>
      <point x="301" y="552"/>
      <point x="232" y="445"/>
      <point x="232" y="270" type="curve" smooth="yes"/>
      <point x="232" y="95"/>
      <point x="301" y="-12"/>
    </contour>
    <contour>
      <point x="138" y="-12" type="curve" smooth="yes"/>
      <point x="201" y="-12"/>
      <point x="260" y="26"/>
      <point x="280" y="86" type="curve"/>
      <point x="340" y="326" type="line"/>
      <point x="340" y="473"/>
      <point x="280" y="552"/>
      <point x="178" y="552" type="curve" smooth="yes"/>
      <point x="81" y="552"/>
      <point x="24" y="489"/>
      <point x="8" y="370" type="curve"/>
      <point x="142" y="365" type="line"/>
      <point x="147" y="402"/>
      <point x="155" y="424"/>
      <point x="178" y="424" type="curve" smooth="yes"/>
      <point x="204" y="424"/>
      <point x="214" y="400"/>
      <point x="214" y="330" type="curve"/>
      <point x="155" y="314" type="line" smooth="yes"/>
      <point x="59" y="288"/>
      <point x="8" y="242"/>
      <point x="8" y="143" type="curve" smooth="yes"/>
      <point x="8" y="27"/>
      <point x="68" y="-12"/>
    </contour>
    <contour>
      <point x="172" y="108" type="curve" smooth="yes"/>
      <point x="150" y="108"/>
      <point x="138" y="128"/>
      <point x="138" y="155" type="curve" smooth="yes"/>
      <point x="138" y="194"/>
      <point x="153" y="208"/>
      <point x="175" y="214" type="curve" smooth="yes"/>
      <point x="214" y="224" type="line"/>
      <point x="214" y="190" type="line" smooth="yes"/>
      <point x="214" y="126"/>
      <point x="202" y="108"/>
    </contour>
    <contour>
      <point x="375" y="323" type="line"/>
      <point x="379" y="389"/>
      <point x="388" y="413"/>
      <point x="408" y="413" type="curve" smooth="yes"/>
      <point x="423" y="413"/>
      <point x="436" y="389"/>
      <point x="440" y="323" type="curve"/>
    </contour>
  </outline>
</glyph>
<glyph name="eth" format="2">
  <advance width="600"/>
  <unicode hex="00F0"/>
  <outline>
    <contour>
      <point x="220" y="492" type="line"/>
      <point x="524" y="640" type="line"/>
      <point x="497" y="712" type="line"/>
      <point x="195" y="563" type="line"/>
    </contour>
    <contour>
      <point x="396" y="262" type="curve"/>
      <point x="550" y="263" type="line"/>
      <point x="550" y="489"/>
      <point x="455" y="696"/>
      <point x="219" y="722" type="curve"/>
      <point x="172" y="596" type="line"/>
      <point x="344" y="583"/>
      <point x="387" y="485"/>
    </contour>
    <contour>
      <point x="300" y="-12" type="curve" smooth="yes"/>
      <point x="450" y="-12"/>
      <point x="550" y="91"/>
      <point x="550" y="263" type="curve" smooth="yes"/>
      <point x="550" y="352"/>
      <point x="427" y="482"/>
      <point x="299" y="482" type="curve" smooth="yes"/>
      <point x="151" y="482"/>
      <point x="50" y="385"/>
      <point x="50" y="235" type="curve" smooth="yes"/>
      <point x="50" y="85"/>
      <point x="152" y="-12"/>
    </contour>
    <contour>
      <point x="300" y="130" type="curve" smooth="yes"/>
      <point x="254" y="130"/>
      <point x="224" y="165"/>
      <point x="224" y="235" type="curve" smooth="yes"/>
      <point x="224" y="305"/>
      <point x="254" y="340"/>
      <point x="300" y="340" type="curve" smooth="yes"/>
      <point x="346" y="340"/>
      <point x="376" y="305"/>
      <point x="376" y="239" type="curve" smooth="yes"/>
      <point x="376" y="165"/>
      <point x="346" y="130"/>
    </contour>
  </outline>
</glyph>
<glyph name="divide" format="2">
  <advance width="600"/>
  <unicode hex="00F7"/>
  <outline>
    <contour>
      <point x="300" y="-11" type="curve" smooth="yes"/>
      <point x="354" y="-11"/>
      <point x="394" y="28"/>
      <point x="394" y="80" type="curve" smooth="yes"/>
      <point x="394" y="133"/>
      <point x="354" y="172"/>
      <point x="300" y="172" type="curve" smooth="yes"/>
      <point x="246" y="172"/>
      <point x="207" y="133"/>
      <point x="207" y="80" type="curve" smooth="yes"/>
      <point x="207" y="28"/>
      <point x="246" y="-11"/>
    </contour>
    <contour>
      <point x="300" y="389" type="curve" smooth="yes"/>
      <point x="354" y="389"/>
      <point x="394" y="428"/>
      <point x="394" y="480" type="curve" smooth="yes"/>
      <point x="394" y="533"/>
      <point x="354" y="572"/>
      <point x="300" y="572" type="curve" smooth="yes"/>
      <point x="246" y="572"/>
      <point x="207" y="533"/>
      <point x="207" y="480" type="curve" smooth="yes"/>
      <point x="207" y="428"/>
      <point x="246" y="389"/>
    </contour>
    <contour>
      <point x="50" y="212" type="line"/>
      <point x="550" y="212" type="line"/>
      <point x="550" y="350" type="line"/>
      <point x="50" y="350" type="line"/>
    </contour>
  </outline>
</glyph>
<glyph name="thorn" format="2">
  <advance width="600"/>
  <unicode hex="00FE"/>
  <anchor x="300" y="0" name="bottom"/>
  <anchor x="300" y="540" name="top"/>
  <outline>
    <contour>
      <point x="44" y="-150" type="line"/>
      <point x="214" y="-150" type="line"/>
      <point x="214" y="150" type="line"/>
      <point x="201" y="131" type="line"/>
      <point x="211" y="36"/>
      <point x="292" y="-12"/>
      <point x="372" y="-12" type="curve" smooth="yes"/>
      <point x="511" y="-12"/>
      <point x="574" y="105"/>
      <point x="574" y="270" type="curve" smooth="yes"/>
      <point x="574" y="424"/>
      <point x="525" y="552"/>
      <point x="363" y="552" type="curve" smooth="yes"/>
      <point x="281" y="552"/>
      <point x="206" y="483"/>
      <point x="204" y="433" type="curve"/>
      <point x="214" y="396" type="line"/>
      <point x="214" y="710" type="line"/>
      <point x="44" y="710" type="line"/>
    </contour>
    <contour>
      <point x="308" y="134" type="curve" smooth="yes"/>
      <point x="257" y="134"/>
      <point x="214" y="174"/>
      <point x="214" y="270" type="curve" smooth="yes"/>
      <point x="214" y="355"/>
      <point x="248" y="406"/>
      <point x="308" y="406" type="curve" smooth="yes"/>
      <point x="365" y="406"/>
      <point x="398" y="369"/>
      <point x="398" y="270" type="curve" smooth="yes"/>
      <point x="398" y="174"/>
      <point x="365" y="134"/>
    </contour>
  </outline>
</glyph>
<glyph name="dcaron" format="2">
  <advance width="600"/>
  <unicode hex="010F"/>
  <outline>
    <contour>
      <point x="166" y="-12" type="curve" smooth="yes"/>
      <point x="250" y="-12"/>
      <point x="303" y="58"/>
      <point x="310" y="133" type="curve"/>
      <point x="297" y="157" type="line"/>
      <point x="304" y="0" type="line"/>
      <point x="470" y="0" type="line"/>
      <point x="470" y="710" type="line"/>
      <point x="300" y="710" type="line"/>
      <point x="300" y="394" type="line"/>
      <point x="311" y="412" type="line"/>
      <point x="303" y="498"/>
      <point x="253" y="552"/>
      <point x="170" y="552" type="curve" smooth="yes"/>
      <point x="72" y="552"/>
      <point x="0" y="452"/>
      <point x="0" y="270" type="curve" smooth="yes"/>
      <point x="0" y="88"/>
      <point x="72" y="-12"/>
    </contour>
    <contour>
      <point x="236" y="134" type="curve" smooth="yes"/>
      <point x="193" y="134"/>
      <point x="176" y="179"/>
      <point x="176" y="270" type="curve" smooth="yes"/>
      <point x="176" y="361"/>
      <point x="193" y="406"/>
      <point x="236" y="406" type="curve" smooth="yes"/>
      <point x="271" y="406"/>
      <point x="300" y="360"/>
      <point x="300" y="270" type="curve" smooth="yes"/>
      <point x="300" y="180"/>
      <point x="270" y="134"/>
    </contour>
    <contour>
      <point x="480" y="403" type="line"/>
      <point x="598" y="403" type="line"/>
      <point x="640" y="710" type="line"/>
      <point x="502" y="710" type="line"/>
    </contour>
  </outline>
</glyph>
<glyph name="idotless" format="2">
  <advance width="600"/>
  <unicode hex="0131"/>
  <anchor x="300" y="0" name="bottom"/>
  <anchor x="580" y="0" name="ogonek"/>
  <anchor x="334" y="540" name="top"/>
  <outline>
    <contour>
      <point x="60" y="0" type="line"/>
      <point x="250" y="0" type="line"/>
      <point x="420" y="0" type="line"/>
      <point x="580" y="0" type="line"/>
      <point x="580" y="130" type="line"/>
      <point x="420" y="130" type="line"/>
      <point x="420" y="540" type="line"/>
      <point x="70" y="540" type="line"/>
      <point x="70" y="410" type="line"/>
      <point x="319" y="410" type="line"/>
      <point x="250" y="479" type="line"/>
      <point x="250" y="130" type="line"/>
      <point x="60" y="130" type="line"/>
    </contour>
  </outline>
</glyph>
<glyph name="Eng" format="2">
  <advance width="600"/>
  <unicode hex="014A"/>
  <anchor x="300" y="0" name="bottom"/>
  <anchor x="300" y="710" name="top"/>
  <outline>
    <contour>
      <point x="280" y="-150" type="line"/>
      <point x="390" y="-150" type="line" smooth="yes"/>
      <point x="479" y="-150"/>
      <point x="540" y="-92"/>
      <point x="540" y="-6" type="curve" smooth="yes"/>
      <point x="540" y="108" type="line"/>
      <point x="390" y="108" type="line"/>
      <point x="390" y="0" type="line" smooth="yes"/>
      <point x="390" y="-14"/>
      <point x="382" y="-20"/>
      <point x="366" y="-20" type="curve" smooth="yes"/>
      <point x="280" y="-20" type="line"/>
    </contour>
    <component base="N"/>
  </outline>
</glyph>
<glyph name="eng" format="2">
  <advance width="600"/>
  <unicode hex="014B"/>
  <anchor x="297" y="0" name="bottom"/>
  <anchor x="297" y="540" name="top"/>
  <outline>
    <contour>
      <point x="282" y="-150" type="line"/>
      <point x="384" y="-150" type="line" smooth="yes"/>
      <point x="474" y="-150"/>
      <point x="536" y="-90"/>
      <point x="536" y="-3" type="curve" smooth="yes"/>
      <point x="536" y="112" type="line"/>
      <point x="366" y="112" type="line"/>
      <point x="366" y="11" type="line" smooth="yes"/>
      <point x="366" y="-9"/>
      <point x="353" y="-20"/>
      <point x="331" y="-20" type="curve" smooth="yes"/>
      <point x="282" y="-20" type="line"/>
    </contour>
    <component base="n"/>
  </outline>
</glyph>
<glyph name="OE" format="2">
  <advance width="600"/>
  <unicode hex="0152"/>
  <anchor x="300" y="0" name="bottom"/>
  <anchor x="300" y="710" name="top"/>
  <outline>
    <contour>
      <point x="210" y="-16" type="curve" smooth="yes"/>
      <point x="342" y="-16"/>
      <point x="408" y="154"/>
      <point x="408" y="354" type="curve" smooth="yes"/>
      <point x="408" y="554"/>
      <point x="342" y="726"/>
      <point x="210" y="726" type="curve" smooth="yes"/>
      <point x="84" y="726"/>
      <point x="8" y="609"/>
      <point x="8" y="355" type="curve" smooth="yes"/>
      <point x="8" y="101"/>
      <point x="84" y="-16"/>
    </contour>
    <contour>
      <point x="224" y="138" type="curve" smooth="yes"/>
      <point x="193" y="138"/>
      <point x="182" y="185"/>
      <point x="182" y="355" type="curve" smooth="yes"/>
      <point x="182" y="525"/>
      <point x="193" y="572"/>
      <point x="224" y="572" type="curve" smooth="yes"/>
      <point x="255" y="572"/>
      <point x="266" y="525"/>
      <point x="266" y="355" type="curve" smooth="yes"/>
      <point x="266" y="185"/>
      <point x="255" y="138"/>
    </contour>
    <contour>
      <point x="314" y="0" type="line"/>
      <point x="592" y="0" type="line"/>
      <point x="592" y="158" type="line"/>
      <point x="453" y="158" type="line"/>
      <point x="453" y="279" type="line"/>
      <point x="572" y="279" type="line"/>
      <point x="572" y="433" type="line"/>
      <point x="453" y="433" type="line"/>
      <point x="453" y="552" type="line"/>
      <point x="584" y="552" type="line"/>
      <point x="584" y="710" type="line"/>
      <point x="314" y="710" type="line"/>
    </contour>
  </outline>
</glyph>
<glyph name="oe" format="2">
  <advance width="600"/>
  <unicode hex="0153"/>
  <outline>
    <contour>
      <point x="413" y="-12" type="curve" smooth="yes"/>
      <point x="501" y="-12"/>
      <point x="565" y="44"/>
      <point x="586" y="169" type="curve"/>
      <point x="438" y="184" type="line"/>
      <point x="437" y="139"/>
      <point x="426" y="131"/>
      <point x="409" y="131" type="curve" smooth="yes"/>
      <point x="387" y="131"/>
      <point x="373" y="155"/>
      <point x="372" y="220" type="curve"/>
      <point x="592" y="220" type="line"/>
      <point x="592" y="281" type="line" smooth="yes"/>
      <point x="592" y="475"/>
      <point x="510" y="552"/>
      <point x="413" y="552" type="curve" smooth="yes"/>
      <point x="301" y="552"/>
      <point x="232" y="445"/>
      <point x="232" y="270" type="curve" smooth="yes"/>
      <point x="232" y="95"/>
      <point x="301" y="-12"/>
    </contour>
    <contour>
      <point x="189" y="-12" type="curve" smooth="yes"/>
      <point x="285" y="-12"/>
      <point x="371" y="97"/>
      <point x="371" y="270" type="curve" smooth="yes"/>
      <point x="371" y="443"/>
      <point x="285" y="552"/>
      <point x="189" y="552" type="curve" smooth="yes"/>
      <point x="69" y="552"/>
      <point x="8" y="470"/>
      <point x="8" y="270" type="curve" smooth="yes"/>
      <point x="8" y="70"/>
      <point x="69" y="-12"/>
    </contour>
    <contour>
      <point x="193" y="134" type="curve" smooth="yes"/>
      <point x="173" y="134"/>
      <point x="162" y="148"/>
      <point x="162" y="270" type="curve" smooth="yes"/>
      <point x="162" y="388"/>
      <point x="173" y="413"/>
      <point x="193" y="413" type="curve" smooth="yes"/>
      <point x="213" y="413"/>
      <point x="221" y="388"/>
      <point x="221" y="270" type="curve" smooth="yes"/>
      <point x="221" y="148"/>
      <point x="213" y="134"/>
    </contour>
    <contour>
      <point x="375" y="323" type="line"/>
      <point x="379" y="389"/>
      <point x="388" y="413"/>
      <point x="408" y="413" type="curve" smooth="yes"/>
      <point x="423" y="413"/>
      <point x="436" y="389"/>
      <point x="440" y="323" type="curve"/>
    </contour>
  </outline>
</glyph>
<glyph name="tcaron" format="2">
  <advance width="600"/>
  <unicode hex="0165"/>
  <anchor x="340" y="0" name="bottom"/>
  <anchor x="290" y="278" name="center"/>
  <anchor x="290" y="540" name="top"/>
  <anchor x="330" y="682" name="topright"/>
  <outline>
    <contour>
      <point x="381" y="567" type="line"/>
      <point x="497" y="567" type="line"/>
      <point x="553" y="824" type="line"/>
      <point x="409" y="824" type="line"/>
    </contour>
    <component base="t"/>
  </outline>
</glyph>
<glyph name="Schwa" format="2">
  <advance width="600"/>
  <unicode hex="018F"/>
  <outline>
    <contour>
      <point x="301" y="-16" type="curve" smooth="yes"/>
      <point x="462" y="-16"/>
      <point x="574" y="123"/>
      <point x="574" y="355" type="curve" smooth="yes"/>
      <point x="574" y="587"/>
      <point x="469" y="726"/>
      <point x="292" y="726" type="curve" smooth="yes"/>
      <point x="162" y="726"/>
      <point x="67" y="635"/>
      <point x="32" y="502" type="curve"/>
      <point x="214" y="480" type="line"/>
      <point x="226" y="534"/>
      <point x="252" y="572"/>
      <point x="298" y="572" type="curve" smooth="yes"/>
      <point x="364" y="572"/>
      <point x="390" y="493"/>
      <point x="390" y="413" type="curve"/>
      <point x="30" y="413" type="line"/>
      <point x="30" y="337" type="line" smooth="yes"/>
      <point x="30" y="111"/>
      <point x="123" y="-16"/>
    </contour>
    <contour>
      <point x="302" y="138" type="curve" smooth="yes"/>
      <point x="255" y="138"/>
      <point x="218" y="180"/>
      <point x="218" y="271" type="curve"/>
      <point x="390" y="271" type="line"/>
      <point x="390" y="189"/>
      <point x="360" y="138"/>
    </contour>
  </outline>
</glyph>
<glyph name="florin" format="2">
  <advance width="600"/>
  <unicode hex="0192"/>
  <outline>
    <contour>
      <point x="50" y="0" type="line"/>
      <point x="187" y="-1" type="line" smooth="yes"/>
      <point x="282" y="-2"/>
      <point x="349" y="57"/>
      <point x="359" y="147" type="curve" smooth="yes"/>
      <point x="399" y="502" type="line" smooth="yes"/>
      <point x="403" y="537"/>
      <point x="424" y="555"/>
      <point x="460" y="555" type="curve" smooth="yes"/>
      <point x="550" y="555" type="line"/>
      <point x="550" y="709" type="line"/>
      <point x="410" y="710" type="line" smooth="yes"/>
      <point x="318" y="711"/>
      <point x="248" y="649"/>
      <point x="238" y="562" type="curve" smooth="yes"/>
      <point x="199" y="207" type="line" smooth="yes"/>
      <point x="195" y="173"/>
      <point x="175" y="152"/>
      <point x="145" y="152" type="curve" smooth="yes"/>
      <point x="50" y="152" type="line"/>
    </contour>
    <contour>
      <point x="90" y="360" type="line"/>
      <point x="550" y="360" type="line"/>
      <point x="550" y="490" type="line"/>
      <point x="90" y="490" type="line"/>
    </contour>
  </outline>
</glyph>
<glyph name="Uhorn" format="2">
  <advance width="600"/>
  <unicode hex="01AF"/>
  <anchor x="262" y="0" name="bottom"/>
  <anchor x="242" y="710" name="top"/>
  <outline>
    <contour>
      <point x="262" y="-16" type="curve" smooth="yes"/>
      <point x="418" y="-16"/>
      <point x="508" y="70"/>
      <point x="508" y="244" type="curve" smooth="yes"/>
      <point x="508" y="710" type="line"/>
      <point x="328" y="710" type="line"/>
      <point x="328" y="224" type="line" smooth="yes"/>
      <point x="328" y="170"/>
      <point x="305" y="138"/>
      <point x="262" y="138" type="curve" smooth="yes"/>
      <point x="219" y="138"/>
      <point x="196" y="170"/>
      <point x="196" y="224" type="curve" smooth="yes"/>
      <point x="196" y="710" type="line"/>
      <point x="16" y="710" type="line"/>
      <point x="16" y="244" type="line" smooth="yes"/>
      <point x="16" y="70"/>
      <point x="106" y="-16"/>
    </contour>
    <contour>
      <point x="336" y="630" type="line"/>
      <point x="402" y="630" type="line" smooth="yes"/>
      <point x="533" y="630"/>
      <point x="584" y="673"/>
      <point x="584" y="768" type="curve" smooth="yes"/>
      <point x="584" y="806"/>
      <point x="578" y="843"/>
      <point x="570" y="868" type="curve"/>
      <point x="427" y="868" type="line"/>
      <point x="433" y="844"/>
      <point x="441" y="802"/>
      <point x="441" y="768" type="curve" smooth="yes"/>
      <point x="441" y="728"/>
      <point x="419" y="710"/>
      <point x="379" y="710" type="curve" smooth="yes"/>
      <point x="328" y="710" type="line"/>
    </contour>
  </outline>
</glyph>
<glyph name="uhorn" format="2">
  <advance width="600"/>
  <unicode hex="01B0"/>
  <anchor x="250" y="0" name="bottom"/>
  <anchor x="489" y="0" name="ogonek"/>
  <anchor x="232" y="540" name="top"/>
  <outline>
    <contour>
      <point x="173" y="-12" type="curve" smooth="yes"/>
      <point x="273" y="-12"/>
      <point x="336" y="53"/>
      <point x="347" y="168" type="curve"/>
      <point x="329" y="170" type="line"/>
      <point x="334" y="0" type="line"/>
      <point x="489" y="0" type="line"/>
      <point x="489" y="540" type="line"/>
      <point x="319" y="540" type="line"/>
      <point x="319" y="232" type="line" smooth="yes"/>
      <point x="319" y="162"/>
      <point x="282" y="130"/>
      <point x="246" y="130" type="curve" smooth="yes"/>
      <point x="208" y="130"/>
      <point x="188" y="154"/>
      <point x="188" y="224" type="curve" smooth="yes"/>
      <point x="188" y="540" type="line"/>
      <point x="18" y="540" type="line"/>
      <point x="18" y="182" type="line" smooth="yes"/>
      <point x="18" y="52"/>
      <point x="75" y="-12"/>
    </contour>
    <contour>
      <point x="334" y="460" type="line"/>
      <point x="400" y="460" type="line" smooth="yes"/>
      <point x="531" y="460"/>
      <point x="582" y="503"/>
      <point x="582" y="598" type="curve" smooth="yes"/>
      <point x="582" y="636"/>
      <point x="576" y="673"/>
      <point x="568" y="698" type="curve"/>
      <point x="425" y="698" type="line"/>
      <point x="431" y="674"/>
      <point x="439" y="632"/>
      <point x="439" y="598" type="curve" smooth="yes"/>
      <point x="439" y="558"/>
      <point x="417" y="540"/>
      <point x="377" y="540" type="curve" smooth="yes"/>
      <point x="326" y="540" type="line"/>
    </contour>
  </outline>
</glyph>
<glyph name="Gstroke" format="2">
  <advance width="600"/>
  <unicode hex="01E4"/>
  <outline>
    <contour>
      <point x="300" y="-16" type="curve" smooth="yes"/>
      <point x="470" y="-16"/>
      <point x="556" y="86"/>
      <point x="556" y="320" type="curve" smooth="yes"/>
      <point x="556" y="376" type="line"/>
      <point x="290" y="376" type="line"/>
      <point x="290" y="290" type="line"/>
      <point x="390" y="290" type="line"/>
      <point x="390" y="163"/>
      <point x="363" y="141"/>
      <point x="300" y="141" type="curve" smooth="yes"/>
      <point x="224" y="141"/>
      <point x="198" y="214"/>
      <point x="198" y="354" type="curve" smooth="yes"/>
      <point x="198" y="495"/>
      <point x="232" y="572"/>
      <point x="292" y="572" type="curve" smooth="yes"/>
      <point x="341" y="572"/>
      <point x="363" y="528"/>
      <point x="373" y="452" type="curve"/>
      <point x="556" y="462" type="line"/>
      <point x="534" y="630"/>
      <point x="451" y="726"/>
      <point x="290" y="726" type="curve" smooth="yes"/>
      <point x="108" y="726"/>
      <point x="14" y="577"/>
      <point x="14" y="354" type="curve" smooth="yes"/>
      <point x="14" y="114"/>
      <point x="126" y="-16"/>
    </contour>
    <contour>
      <point x="290" y="182" type="line"/>
      <point x="590" y="182" type="line"/>
      <point x="590" y="256" type="line"/>
      <point x="290" y="256" type="line"/>
    </contour>
  </outline>
</glyph>
<glyph name="gstroke" format="2">
  <advance width="600"/>
  <unicode hex="01E5"/>
  <anchor x="290" y="-150" name="bottom"/>
  <anchor x="301" y="540" name="top"/>
  <outline>
    <contour>
      <point x="296" y="232" type="line"/>
      <point x="590" y="232" type="line"/>
      <point x="590" y="332" type="line"/>
      <point x="296" y="332" type="line"/>
    </contour>
    <component base="g" xOffset="-10"/>
  </outline>
</glyph>
<glyph name="jdotless" format="2">
  <advance width="600"/>
  <unicode hex="0237"/>
  <anchor x="300" y="-150" name="bottom"/>
  <anchor x="403" y="540" name="top"/>
  <outline>
    <contour>
      <point x="90" y="-150" type="line"/>
      <point x="244" y="-150" type="line" smooth="yes"/>
      <point x="402" y="-150"/>
      <point x="488" y="-74"/>
      <point x="488" y="66" type="curve" smooth="yes"/>
      <point x="488" y="540" type="line"/>
      <point x="91" y="540" type="line"/>
      <point x="91" y="410" type="line"/>
      <point x="387" y="410" type="line"/>
      <point x="318" y="479" type="line"/>
      <point x="318" y="70" type="line" smooth="yes"/>
      <point x="318" y="8"/>
      <point x="290" y="-20"/>
      <point x="228" y="-20" type="curve" smooth="yes"/>
      <point x="90" y="-20" type="line"/>
    </contour>
  </outline>
</glyph>
<glyph name="verticallinemod" format="2">
  <advance width="600"/>
  <unicode hex="02C8"/>
  <outline>
    <contour>
      <point x="253" y="427" type="line"/>
      <point x="348" y="427" type="line"/>
      <point x="360" y="621" type="line"/>
      <point x="360" y="710" type="line"/>
      <point x="240" y="710" type="line"/>
      <point x="240" y="621" type="line"/>
    </contour>
  </outline>
</glyph>
<glyph name="gravecomb" format="2">
  <unicode hex="0300"/>
  <anchor x="340" y="540" name="_top"/>
  <anchor x="340" y="754" name="top"/>
  <outline>
    <contour>
      <point x="270" y="586" type="line"/>
      <point x="420" y="586" type="line"/>
      <point x="360" y="746" type="line"/>
      <point x="180" y="746" type="line"/>
    </contour>
  </outline>
</glyph>
<glyph name="acutecomb" format="2">
  <unicode hex="0301"/>
  <anchor x="255" y="540" name="_top"/>
  <anchor x="255" y="744" name="top"/>
  <outline>
    <contour>
      <point x="180" y="587" type="line"/>
      <point x="330" y="587" type="line"/>
      <point x="420" y="747" type="line"/>
      <point x="240" y="747" type="line"/>
    </contour>
  </outline>
</glyph>
<glyph name="circumflexcomb" format="2">
  <unicode hex="0302"/>
  <anchor x="300" y="540" name="_top"/>
  <outline>
    <contour>
      <point x="130" y="587" type="line"/>
      <point x="248" y="587" type="line"/>
      <point x="314" y="694" type="line"/>
      <point x="286" y="694" type="line"/>
      <point x="352" y="587" type="line"/>
      <point x="470" y="587" type="line"/>
      <point x="370" y="753" type="line"/>
      <point x="230" y="753" type="line"/>
    </contour>
  </outline>
</glyph>
<glyph name="tildecomb" format="2">
  <unicode hex="0303"/>
  <anchor x="300" y="540" name="_top"/>
  <outline>
    <contour>
      <point x="362" y="594" type="curve" smooth="yes"/>
      <point x="431" y="594"/>
      <point x="468" y="638"/>
      <point x="470" y="750" type="curve"/>
      <point x="392" y="750" type="line"/>
      <point x="389" y="708"/>
      <point x="377" y="694"/>
      <point x="358" y="694" type="curve" smooth="yes"/>
      <point x="347" y="694"/>
      <point x="334" y="699"/>
      <point x="318" y="711" type="curve" smooth="yes"/>
      <point x="291" y="731"/>
      <point x="268" y="742"/>
      <point x="234" y="742" type="curve" smooth="yes"/>
      <point x="169" y="742"/>
      <point x="132" y="700"/>
      <point x="130" y="588" type="curve"/>
      <point x="208" y="588" type="line"/>
      <point x="210" y="628"/>
      <point x="224" y="642"/>
      <point x="242" y="642" type="curve" smooth="yes"/>
      <point x="255" y="642"/>
      <point x="268" y="636"/>
      <point x="284" y="624" type="curve" smooth="yes"/>
      <point x="309" y="605"/>
      <point x="330" y="594"/>
    </contour>
  </outline>
</glyph>
<glyph name="macroncomb" format="2">
  <unicode hex="0304"/>
  <anchor x="300" y="540" name="_top"/>
  <outline>
    <contour>
      <point x="150" y="598" type="line"/>
      <point x="450" y="598" type="line"/>
      <point x="450" y="718" type="line"/>
      <point x="150" y="718" type="line"/>
    </contour>
  </outline>
</glyph>
<glyph name="brevecomb" format="2">
  <unicode hex="0306"/>
  <anchor x="300" y="540" name="_top"/>
  <outline>
    <contour>
      <point x="300" y="584" type="curve" smooth="yes"/>
      <point x="392" y="584"/>
      <point x="456" y="646"/>
      <point x="460" y="744" type="curve"/>
      <point x="362" y="744" type="line"/>
      <point x="358" y="694"/>
      <point x="332" y="680"/>
      <point x="300" y="680" type="curve" smooth="yes"/>
      <point x="268" y="680"/>
      <point x="242" y="694"/>
      <point x="238" y="744" type="curve"/>
      <point x="140" y="744" type="line"/>
      <point x="144" y="646"/>
      <point x="208" y="584"/>
    </contour>
  </outline>
</glyph>
<glyph name="dotaccentcomb" format="2">
  <unicode hex="0307"/>
  <anchor x="300" y="540" name="_top"/>
  <anchor x="300" y="716" name="top"/>
  <outline>
    <contour>
      <point x="215" y="594" type="line"/>
      <point x="385" y="594" type="line"/>
      <point x="385" y="726" type="line"/>
      <point x="215" y="726" type="line"/>
    </contour>
  </outline>
</glyph>
<glyph name="dieresiscomb" format="2">
  <unicode hex="0308"/>
  <anchor x="300" y="540" name="_top"/>
  <outline>
    <contour>
      <point x="89" y="594" type="line"/>
      <point x="269" y="594" type="line"/>
      <point x="269" y="730" type="line"/>
      <point x="89" y="730" type="line"/>
    </contour>
    <contour>
      <point x="331" y="594" type="line"/>
      <point x="511" y="594" type="line"/>
      <point x="511" y="730" type="line"/>
      <point x="331" y="730" type="line"/>
    </contour>
  </outline>
</glyph>
<glyph name="hookabovecomb" format="2">
  <unicode hex="0309"/>
  <anchor x="301" y="540" name="_top"/>
  <anchor x="300" y="765" name="top"/>
  <outline>
    <contour>
      <point x="355" y="587" type="line"/>
      <point x="371" y="605"/>
      <point x="393" y="635"/>
      <point x="393" y="679" type="curve" smooth="yes"/>
      <point x="393" y="733"/>
      <point x="365" y="765"/>
      <point x="283" y="765" type="curve" smooth="yes"/>
      <point x="245" y="765"/>
      <point x="217" y="761"/>
      <point x="207" y="759" type="curve"/>
      <point x="207" y="673" type="line"/>
      <point x="219" y="677"/>
      <point x="235" y="679"/>
      <point x="249" y="679" type="curve" smooth="yes"/>
      <point x="273" y="679"/>
      <point x="281" y="671"/>
      <point x="281" y="655" type="curve" smooth="yes"/>
      <point x="281" y="635"/>
      <point x="269" y="615"/>
      <point x="245" y="587" type="curve"/>
    </contour>
  </outline>
</glyph>
<glyph name="ringcomb" format="2">
  <unicode hex="030A"/>
  <anchor x="301" y="540" name="_top"/>
  <outline>
    <contour>
      <point x="300" y="574" type="curve" smooth="yes"/>
      <point x="364" y="574"/>
      <point x="412" y="620"/>
      <point x="412" y="682" type="curve" smooth="yes"/>
      <point x="412" y="744"/>
      <point x="364" y="790"/>
      <point x="300" y="790" type="curve" smooth="yes"/>
      <point x="236" y="790"/>
      <point x="188" y="744"/>
      <point x="188" y="682" type="curve" smooth="yes"/>
      <point x="188" y="620"/>
      <point x="236" y="574"/>
    </contour>
    <contour>
      <point x="300" y="642" type="curve" smooth="yes"/>
      <point x="276" y="642"/>
      <point x="262" y="658"/>
      <point x="262" y="682" type="curve" smooth="yes"/>
      <point x="262" y="706"/>
      <point x="276" y="722"/>
      <point x="300" y="722" type="curve" smooth="yes"/>
      <point x="324" y="722"/>
      <point x="338" y="706"/>
      <point x="338" y="682" type="curve" smooth="yes"/>
      <point x="338" y="658"/>
      <point x="324" y="642"/>
    </contour>
  </outline>
</glyph>
<glyph name="horncomb" format="2">
  <unicode hex="031B"/>
  <anchor x="172" y="540" name="_topright"/>
  <outline>
    <contour>
      <point x="180" y="460" type="line"/>
      <point x="246" y="460" type="line" smooth="yes"/>
      <point x="377" y="460"/>
      <point x="428" y="503"/>
      <point x="428" y="598" type="curve" smooth="yes"/>
      <point x="428" y="636"/>
      <point x="422" y="673"/>
      <point x="414" y="698" type="curve"/>
      <point x="271" y="698" type="line"/>
      <point x="277" y="674"/>
      <point x="285" y="632"/>
      <point x="285" y="598" type="curve" smooth="yes"/>
      <point x="285" y="558"/>
      <point x="263" y="540"/>
      <point x="223" y="540" type="curve" smooth="yes"/>
      <point x="172" y="540" type="line"/>
    </contour>
  </outline>
</glyph>
<glyph name="dotbelowcomb" format="2">
  <unicode hex="0323"/>
  <anchor x="300" y="0" name="_bottom"/>
  <anchor x="300" y="-160" name="bottom"/>
  <outline>
    <contour>
      <point x="222" y="-160" type="line"/>
      <point x="378" y="-160" type="line"/>
      <point x="378" y="-38" type="line"/>
      <point x="222" y="-38" type="line"/>
    </contour>
  </outline>
</glyph>
<glyph name="commaaccentcomb" format="2">
  <unicode hex="0326"/>
  <anchor x="300" y="0" name="_bottom"/>
  <anchor x="300" y="-250" name="bottom"/>
  <outline>
    <contour>
      <point x="209" y="-262" type="line"/>
      <point x="295" y="-262" type="line"/>
      <point x="373" y="-158" type="line"/>
      <point x="373" y="-46" type="line"/>
      <point x="227" y="-46" type="line"/>
      <point x="227" y="-172" type="line"/>
      <point x="275" y="-172" type="line"/>
    </contour>
  </outline>
</glyph>
<glyph name="cedillacomb" format="2">
  <unicode hex="0327"/>
  <anchor x="308" y="0" name="_bottom"/>
  <outline>
    <contour>
      <point x="308" y="-240" type="curve" smooth="yes"/>
      <point x="381" y="-240"/>
      <point x="444" y="-208"/>
      <point x="444" y="-126" type="curve" smooth="yes"/>
      <point x="444" y="-78"/>
      <point x="416" y="-36"/>
      <point x="348" y="-28" type="curve"/>
      <point x="371" y="10" type="line"/>
      <point x="270" y="10" type="line"/>
      <point x="241" y="-42" type="line"/>
      <point x="290" y="-86" type="line"/>
      <point x="336" y="-86"/>
      <point x="348" y="-100"/>
      <point x="348" y="-122" type="curve" smooth="yes"/>
      <point x="348" y="-144"/>
      <point x="330" y="-156"/>
      <point x="304" y="-156" type="curve" smooth="yes"/>
      <point x="274" y="-156"/>
      <point x="258" y="-143"/>
      <point x="248" y="-120" type="curve"/>
      <point x="172" y="-154" type="line"/>
      <point x="192" y="-206"/>
      <point x="239" y="-240"/>
    </contour>
  </outline>
</glyph>
<glyph name="ogonekcomb" format="2">
  <unicode hex="0328"/>
  <anchor x="374" y="0" name="_ogonek"/>
  <outline>
    <contour>
      <point x="288" y="-222" type="curve" smooth="yes"/>
      <point x="340" y="-222"/>
      <point x="389" y="-205"/>
      <point x="410" y="-190" type="curve"/>
      <point x="383" y="-103" type="line"/>
      <point x="373" y="-110"/>
      <point x="356" y="-118"/>
      <point x="340" y="-118" type="curve" smooth="yes"/>
      <point x="325" y="-118"/>
      <point x="314" y="-110"/>
      <point x="314" y="-96" type="curve" smooth="yes"/>
      <point x="314" y="-81"/>
      <point x="323" y="-67"/>
      <point x="344" y="-39" type="curve" smooth="yes"/>
      <point x="374" y="0" type="line"/>
      <point x="254" y="20" type="line"/>
      <point x="218" y="-26" type="line" smooth="yes"/>
      <point x="192" y="-59"/>
      <point x="176" y="-89"/>
      <point x="176" y="-128" type="curve" smooth="yes"/>
      <point x="176" y="-183"/>
      <point x="219" y="-222"/>
    </contour>
  </outline>
</glyph>
<glyph name="strokeshortcomb" format="2">
  <unicode hex="0335"/>
  <anchor x="300" y="307" name="_center"/>
  <outline>
    <contour>
      <point x="120" y="257" type="line"/>
      <point x="480" y="257" type="line"/>
      <point x="480" y="357" type="line"/>
      <point x="120" y="357" type="line"/>
    </contour>
  </outline>
</glyph>
<glyph name="strokelongcomb" format="2">
  <unicode hex="0336"/>
  <anchor x="300" y="535" name="_center"/>
  <outline>
    <contour>
      <point x="10" y="469" type="line"/>
      <point x="590" y="469" type="line"/>
      <point x="590" y="601" type="line"/>
      <point x="10" y="601" type="line"/>
    </contour>
  </outline>
</glyph>
<glyph name="slashshortcomb" format="2">
  <unicode hex="0337"/>
  <anchor x="300" y="397" name="_center"/>
  <outline>
    <contour>
      <point x="100" y="277" type="line"/>
      <point x="500" y="397" type="line"/>
      <point x="500" y="517" type="line"/>
      <point x="100" y="397" type="line"/>
    </contour>
  </outline>
</glyph>
<glyph name="slashlongcomb" format="2">
  <unicode hex="0338"/>
  <anchor x="300" y="268" name="_center"/>
  <outline>
    <contour>
      <point x="60" y="-16" type="line"/>
      <point x="170" y="-16" type="line"/>
      <point x="540" y="552" type="line"/>
      <point x="430" y="552" type="line"/>
    </contour>
  </outline>
</glyph>
<glyph name="Lambda" format="2">
  <advance width="600"/>
  <unicode hex="039B"/>
  <outline>
    <contour>
      <point x="15" y="0" type="line"/>
      <point x="168" y="0" type="line"/>
      <point x="300" y="469" type="line"/>
      <point x="432" y="0" type="line"/>
      <point x="585" y="0" type="line"/>
      <point x="372" y="710" type="line"/>
      <point x="228" y="710" type="line"/>
    </contour>
  </outline>
</glyph>
<glyph name="Omega" format="2">
  <advance width="600"/>
  <unicode hex="03A9"/>
  <outline>
    <contour>
      <point x="8" y="0" type="line"/>
      <point x="268" y="0" type="line"/>
      <point x="268" y="133" type="line"/>
      <point x="207" y="150"/>
      <point x="162" y="252"/>
      <point x="162" y="376" type="curve" smooth="yes"/>
      <point x="162" y="508"/>
      <point x="217" y="595"/>
      <point x="300" y="595" type="curve" smooth="yes"/>
      <point x="383" y="595"/>
      <point x="437" y="508"/>
      <point x="437" y="376" type="curve" smooth="yes"/>
      <point x="437" y="252"/>
      <point x="392" y="149"/>
      <point x="331" y="133" type="curve"/>
      <point x="331" y="0" type="line"/>
      <point x="591" y="0" type="line"/>
      <point x="591" y="128" type="line"/>
      <point x="437" y="128" type="line"/>
      <point x="535" y="187"/>
      <point x="592" y="293"/>
      <point x="592" y="412" type="curve" smooth="yes"/>
      <point x="592" y="591"/>
      <point x="466" y="726"/>
      <point x="300" y="726" type="curve" smooth="yes"/>
      <point x="134" y="726"/>
      <point x="8" y="591"/>
      <point x="8" y="412" type="curve" smooth="yes"/>
      <point x="8" y="293"/>
      <point x="65" y="187"/>
      <point x="162" y="128" type="curve"/>
      <point x="8" y="128" type="line"/>
    </contour>
  </outline>
</glyph>
<glyph name="lambda" format="2">
  <advance width="600"/>
  <unicode hex="03BB"/>
  <outline>
    <contour>
      <point x="516" y="0" type="curve" smooth="yes"/>
      <point x="571" y="0" type="line"/>
      <point x="571" y="123" type="line"/>
      <point x="531" y="123" type="line" smooth="yes"/>
      <point x="500" y="123"/>
      <point x="483" y="139"/>
      <point x="470" y="180" type="curve" smooth="yes"/>
      <point x="333" y="589" type="line" smooth="yes"/>
      <point x="300" y="690"/>
      <point x="260" y="727"/>
      <point x="177" y="727" type="curve" smooth="yes"/>
      <point x="90" y="727" type="line"/>
      <point x="90" y="605" type="line"/>
      <point x="139" y="605" type="line" smooth="yes"/>
      <point x="176" y="605"/>
      <point x="189" y="584"/>
      <point x="201" y="548" type="curve" smooth="yes"/>
      <point x="337" y="139" type="line" smooth="yes"/>
      <point x="365" y="52"/>
      <point x="427" y="0"/>
    </contour>
    <contour>
      <point x="30" y="0" type="line"/>
      <point x="182" y="0" type="line"/>
      <point x="358" y="484" type="line"/>
      <point x="238" y="551" type="line"/>
    </contour>
  </outline>
</glyph>
<glyph name="pi" format="2">
  <advance width="600"/>
  <unicode hex="03C0"/>
  <outline>
    <contour>
      <point x="552" y="0" type="curve" smooth="yes"/>
      <point x="584" y="0" type="line"/>
      <point x="584" y="127" type="line"/>
      <point x="552" y="127" type="line" smooth="yes"/>
      <point x="516" y="127"/>
      <point x="495" y="152"/>
      <point x="495" y="189" type="curve" smooth="yes"/>
      <point x="495" y="502" type="line"/>
      <point x="354" y="502" type="line"/>
      <point x="354" y="200" type="line" smooth="yes"/>
      <point x="354" y="66"/>
      <point x="418" y="0"/>
    </contour>
    <contour>
      <point x="106" y="0" type="line"/>
      <point x="247" y="0" type="line"/>
      <point x="247" y="502" type="line"/>
      <point x="106" y="502" type="line"/>
    </contour>
    <contour>
      <point x="15" y="424" type="line"/>
      <point x="583" y="424" type="line"/>
      <point x="583" y="551" type="line"/>
      <point x="15" y="551" type="line"/>
    </contour>
  </outline>
</glyph>
<glyph name="Dje-cy" format="2">
  <advance width="600"/>
  <unicode hex="0402"/>
  <outline>
    <contour>
      <point x="398" y="-16" type="curve" smooth="yes"/>
      <point x="520" y="-16"/>
      <point x="590" y="72"/>
      <point x="590" y="222" type="curve" smooth="yes"/>
      <point x="590" y="372"/>
      <point x="509" y="453"/>
      <point x="391" y="453" type="curve" smooth="yes"/>
      <point x="328" y="453"/>
      <point x="270" y="429"/>
      <point x="244" y="400" type="curve"/>
      <point x="284" y="356" type="line"/>
      <point x="284" y="680" type="line"/>
      <point x="114" y="680" type="line"/>
      <point x="114" y="0" type="line"/>
      <point x="284" y="0" type="line"/>
      <point x="284" y="270" type="line"/>
      <point x="300" y="282"/>
      <point x="330" y="295"/>
      <point x="358" y="295" type="curve" smooth="yes"/>
      <point x="397" y="295"/>
      <point x="420" y="268"/>
      <point x="420" y="217" type="curve" smooth="yes"/>
      <point x="420" y="157"/>
      <point x="392" y="140"/>
      <point x="358" y="140" type="curve" smooth="yes"/>
      <point x="346" y="140"/>
      <point x="336" y="141"/>
      <point x="324" y="143" type="curve"/>
      <point x="324" y="-13" type="line"/>
      <point x="338" y="-15"/>
      <point x="372" y="-16"/>
    </contour>
    <contour>
      <point x="10" y="552" type="line"/>
      <point x="510" y="552" type="line"/>
      <point x="510" y="710" type="line"/>
      <point x="10" y="710" type="line"/>
    </contour>
  </outline>
</glyph>
<glyph name="E-cy" format="2">
  <advance width="600"/>
  <unicode hex="0404"/>
  <anchor x="313" y="0" name="bottom"/>
  <anchor x="302" y="710" name="top"/>
  <outline>
    <contour>
      <point x="110" y="285" type="line"/>
      <point x="364" y="285" type="line"/>
      <point x="364" y="425" type="line"/>
      <point x="110" y="425" type="line"/>
    </contour>
    <component base="C" xOffset="2"/>
  </outline>
</glyph>
<glyph name="Lje-cy" format="2">
  <advance width="600"/>
  <unicode hex="0409"/>
  <outline>
    <contour>
      <point x="6" y="0" type="line"/>
      <point x="46" y="0" type="line" smooth="yes"/>
      <point x="146" y="0"/>
      <point x="192" y="44"/>
      <point x="198" y="186" type="curve" smooth="yes"/>
      <point x="212" y="552" type="line"/>
      <point x="325" y="552" type="line"/>
      <point x="394" y="710" type="line"/>
      <point x="77" y="710" type="line"/>
      <point x="56" y="212" type="line" smooth="yes"/>
      <point x="54" y="170"/>
      <point x="39" y="157"/>
      <point x="13" y="157" type="curve" smooth="yes"/>
      <point x="6" y="157" type="line"/>
    </contour>
    <contour>
      <point x="254" y="0" type="line"/>
      <point x="412" y="0" type="line" smooth="yes"/>
      <point x="522" y="0"/>
      <point x="594" y="73"/>
      <point x="594" y="253" type="curve" smooth="yes"/>
      <point x="594" y="433"/>
      <point x="522" y="505"/>
      <point x="412" y="505" type="curve" smooth="yes"/>
      <point x="394" y="505" type="line"/>
      <point x="394" y="710" type="line"/>
      <point x="254" y="690" type="line"/>
    </contour>
    <contour>
      <point x="394" y="157" type="line"/>
      <point x="394" y="348" type="line"/>
      <point x="408" y="348" type="line" smooth="yes"/>
      <point x="433" y="348"/>
      <point x="450" y="327"/>
      <point x="450" y="253" type="curve" smooth="yes"/>
      <point x="450" y="179"/>
      <point x="434" y="157"/>
      <point x="408" y="157" type="curve" smooth="yes"/>
    </contour>
  </outline>
</glyph>
<glyph name="Nje-cy" format="2">
  <advance width="600"/>
  <unicode hex="040A"/>
  <outline>
    <contour>
      <point x="10" y="0" type="line"/>
      <point x="160" y="0" type="line"/>
      <point x="160" y="335" type="line"/>
      <point x="131" y="279" type="line"/>
      <point x="339" y="279" type="line"/>
      <point x="339" y="436" type="line"/>
      <point x="131" y="436" type="line"/>
      <point x="160" y="379" type="line"/>
      <point x="160" y="710" type="line"/>
      <point x="10" y="710" type="line"/>
    </contour>
    <contour>
      <point x="244" y="0" type="line"/>
      <point x="412" y="0" type="line" smooth="yes"/>
      <point x="512" y="0"/>
      <point x="594" y="79"/>
      <point x="594" y="236" type="curve" smooth="yes"/>
      <point x="594" y="397"/>
      <point x="512" y="468"/>
      <point x="412" y="468" type="curve" smooth="yes"/>
      <point x="394" y="468" type="line"/>
      <point x="394" y="710" type="line"/>
      <point x="244" y="710" type="line"/>
    </contour>
    <contour>
      <point x="394" y="158" type="line"/>
      <point x="394" y="311" type="line"/>
      <point x="410" y="311" type="line" smooth="yes"/>
      <point x="437" y="311"/>
      <point x="454" y="296"/>
      <point x="454" y="236" type="curve" smooth="yes"/>
      <point x="454" y="176"/>
      <point x="438" y="158"/>
      <point x="410" y="158" type="curve" smooth="yes"/>
    </contour>
  </outline>
</glyph>
<glyph name="Tshe-cy" format="2">
  <advance width="600"/>
  <unicode hex="040B"/>
  <outline>
    <contour>
      <point x="110" y="0" type="line"/>
      <point x="290" y="0" type="line"/>
      <point x="290" y="299" type="line"/>
      <point x="304" y="313"/>
      <point x="324" y="326"/>
      <point x="352" y="326" type="curve" smooth="yes"/>
      <point x="385" y="326"/>
      <point x="400" y="308"/>
      <point x="400" y="274" type="curve" smooth="yes"/>
      <point x="400" y="0" type="line"/>
      <point x="580" y="0" type="line"/>
      <point x="580" y="302" type="line" smooth="yes"/>
      <point x="580" y="448"/>
      <point x="504" y="483"/>
      <point x="410" y="483" type="curve" smooth="yes"/>
      <point x="341" y="483"/>
      <point x="291" y="463"/>
      <point x="255" y="429" type="curve"/>
      <point x="290" y="401" type="line"/>
      <point x="290" y="610" type="line"/>
      <point x="110" y="610" type="line"/>
    </contour>
    <contour>
      <point x="0" y="553" type="line"/>
      <point x="500" y="553" type="line"/>
      <point x="500" y="710" type="line"/>
      <point x="0" y="710" type="line"/>
    </contour>
  </outline>
</glyph>
<glyph name="Dzhe-cy" format="2">
  <advance width="600"/>
  <unicode hex="040F"/>
  <outline>
    <contour>
      <point x="40" y="0" type="line"/>
      <point x="560" y="0" type="line"/>
      <point x="560" y="710" type="line"/>
      <point x="380" y="710" type="line"/>
      <point x="380" y="158" type="line"/>
      <point x="220" y="158" type="line"/>
      <point x="220" y="710" type="line"/>
      <point x="40" y="710" type="line"/>
    </contour>
    <contour>
      <point x="210" y="-150" type="line"/>
      <point x="390" y="-150" type="line"/>
      <point x="390" y="32" type="line"/>
      <point x="210" y="32" type="line"/>
    </contour>
  </outline>
</glyph>
<glyph name="Be-cy" format="2">
  <advance width="600"/>
  <unicode hex="0411"/>
  <anchor x="300" y="0" name="bottom"/>
  <anchor x="300" y="710" name="top"/>
  <outline>
    <contour>
      <point x="40" y="0" type="line"/>
      <point x="309" y="0" type="line" smooth="yes"/>
      <point x="467" y="0"/>
      <point x="570" y="88"/>
      <point x="570" y="232" type="curve" smooth="yes"/>
      <point x="570" y="376"/>
      <point x="467" y="463"/>
      <point x="309" y="463" type="curve" smooth="yes"/>
      <point x="220" y="463" type="line"/>
      <point x="220" y="622" type="line"/>
      <point x="151" y="553" type="line"/>
      <point x="500" y="553" type="line"/>
      <point x="500" y="710" type="line"/>
      <point x="40" y="710" type="line"/>
    </contour>
    <contour>
      <point x="220" y="157" type="line"/>
      <point x="220" y="306" type="line"/>
      <point x="298" y="306" type="line" smooth="yes"/>
      <point x="353" y="306"/>
      <point x="386" y="282"/>
      <point x="386" y="232" type="curve" smooth="yes"/>
      <point x="386" y="182"/>
      <point x="354" y="157"/>
      <point x="298" y="157" type="curve" smooth="yes"/>
    </contour>
  </outline>
</glyph>
<glyph name="Ge-cy" format="2">
  <advance width="600"/>
  <unicode hex="0413"/>
  <anchor x="321" y="710" name="top"/>
  <outline>
    <contour>
      <point x="80" y="0" type="line"/>
      <point x="260" y="0" type="line"/>
      <point x="260" y="552" type="line"/>
      <point x="560" y="552" type="line"/>
      <point x="560" y="710" type="line"/>
      <point x="80" y="710" type="line"/>
    </contour>
  </outline>
</glyph>
<glyph name="De-cy" format="2">
  <advance width="600"/>
  <unicode hex="0414"/>
  <outline>
    <contour>
      <point x="10" y="-150" type="line"/>
      <point x="190" y="-150" type="line"/>
      <point x="190" y="0" type="line"/>
      <point x="410" y="0" type="line"/>
      <point x="410" y="-150" type="line"/>
      <point x="590" y="-150" type="line"/>
      <point x="590" y="158" type="line"/>
      <point x="540" y="158" type="line"/>
      <point x="540" y="710" type="line"/>
      <point x="158" y="710" type="line"/>
      <point x="112" y="288" type="line" smooth="yes"/>
      <point x="106" y="232"/>
      <point x="82" y="182"/>
      <point x="58" y="158" type="curve"/>
      <point x="10" y="158" type="line"/>
    </contour>
    <contour>
      <point x="239" y="158" type="line"/>
      <point x="260" y="187"/>
      <point x="273" y="218"/>
      <point x="279" y="278" type="curve" smooth="yes"/>
      <point x="308" y="553" type="line"/>
      <point x="360" y="553" type="line"/>
      <point x="360" y="158" type="line"/>
    </contour>
  </outline>
</glyph>
<glyph name="Zhe-cy" format="2">
  <advance width="600"/>
  <unicode hex="0416"/>
  <outline>
    <contour>
      <point x="436" y="0" type="line"/>
      <point x="596" y="0" type="line"/>
      <point x="518" y="355" type="line"/>
      <point x="592" y="710" type="line"/>
      <point x="432" y="710" type="line"/>
      <point x="374" y="355" type="line"/>
    </contour>
    <contour>
      <point x="224" y="0" type="line"/>
      <point x="376" y="0" type="line"/>
      <point x="376" y="710" type="line"/>
      <point x="224" y="710" type="line"/>
    </contour>
    <contour>
      <point x="164" y="0" type="line"/>
      <point x="226" y="355" type="line"/>
      <point x="168" y="710" type="line"/>
      <point x="8" y="710" type="line"/>
      <point x="82" y="355" type="line"/>
      <point x="4" y="0" type="line"/>
    </contour>
  </outline>
</glyph>
<glyph name="Ze-cy" format="2">
  <advance width="600"/>
  <unicode hex="0417"/>
  <outline>
    <contour>
      <point x="296" y="-16" type="curve" smooth="yes"/>
      <point x="456" y="-16"/>
      <point x="570" y="76"/>
      <point x="570" y="208" type="curve" smooth="yes"/>
      <point x="570" y="326"/>
      <point x="480" y="374"/>
      <point x="370" y="374" type="curve"/>
      <point x="370" y="360" type="line"/>
      <point x="480" y="360"/>
      <point x="568" y="419"/>
      <point x="568" y="522" type="curve" smooth="yes"/>
      <point x="568" y="628"/>
      <point x="492" y="726"/>
      <point x="300" y="726" type="curve" smooth="yes"/>
      <point x="123" y="726"/>
      <point x="44" y="635"/>
      <point x="30" y="499" type="curve"/>
      <point x="205" y="490" type="line"/>
      <point x="209" y="543"/>
      <point x="238" y="572"/>
      <point x="295" y="572" type="curve" smooth="yes"/>
      <point x="359" y="572"/>
      <point x="388" y="539"/>
      <point x="388" y="494" type="curve" smooth="yes"/>
      <point x="388" y="447"/>
      <point x="360" y="428"/>
      <point x="312" y="428" type="curve" smooth="yes"/>
      <point x="231" y="428" type="line"/>
      <point x="231" y="298" type="line"/>
      <point x="312" y="298" type="line" smooth="yes"/>
      <point x="355" y="298"/>
      <point x="390" y="278"/>
      <point x="390" y="222" type="curve" smooth="yes"/>
      <point x="390" y="166"/>
      <point x="352" y="138"/>
      <point x="298" y="138" type="curve" smooth="yes"/>
      <point x="244" y="138"/>
      <point x="214" y="169"/>
      <point x="208" y="230" type="curve"/>
      <point x="30" y="225" type="line"/>
      <point x="37" y="78"/>
      <point x="132" y="-16"/>
    </contour>
  </outline>
</glyph>
<glyph name="Ii-cy" format="2">
  <advance width="600"/>
  <unicode hex="0418"/>
  <anchor x="580" y="0" name="bottomright"/>
  <anchor x="300" y="710" name="top"/>
  <outline>
    <contour>
      <point x="60" y="0" type="line"/>
      <point x="210" y="0" type="line"/>
      <point x="398" y="420" type="line"/>
      <point x="370" y="426" type="line"/>
      <point x="370" y="0" type="line"/>
      <point x="540" y="0" type="line"/>
      <point x="540" y="710" type="line"/>
      <point x="390" y="710" type="line"/>
      <point x="202" y="290" type="line"/>
      <point x="230" y="284" type="line"/>
      <point x="230" y="710" type="line"/>
      <point x="60" y="710" type="line"/>
    </contour>
  </outline>
</glyph>
<glyph name="Ka-cy" format="2">
  <advance width="600"/>
  <unicode hex="041A"/>
  <anchor x="301" y="710" name="top"/>
  <outline>
    <contour>
      <point x="378" y="0" type="line"/>
      <point x="580" y="0" type="line"/>
      <point x="368" y="355" type="line"/>
      <point x="570" y="710" type="line"/>
      <point x="368" y="710" type="line"/>
      <point x="194" y="355" type="line"/>
    </contour>
    <contour>
      <point x="40" y="0" type="line"/>
      <point x="220" y="0" type="line"/>
      <point x="220" y="710" type="line"/>
      <point x="40" y="710" type="line"/>
    </contour>
  </outline>
</glyph>
<glyph name="El-cy" format="2">
  <advance width="600"/>
  <unicode hex="041B"/>
  <outline>
    <contour>
      <point x="20" y="0" type="line"/>
      <point x="66" y="0" type="line" smooth="yes"/>
      <point x="194" y="0"/>
      <point x="243" y="44"/>
      <point x="258" y="206" type="curve" smooth="yes"/>
      <point x="291" y="552" type="line"/>
      <point x="380" y="552" type="line"/>
      <point x="380" y="0" type="line"/>
      <point x="560" y="0" type="line"/>
      <point x="560" y="710" type="line"/>
      <point x="135" y="710" type="line"/>
      <point x="89" y="222" type="line" smooth="yes"/>
      <point x="84" y="170"/>
      <point x="67" y="157"/>
      <point x="37" y="157" type="curve" smooth="yes"/>
      <point x="20" y="157" type="line"/>
    </contour>
  </outline>
</glyph>
<glyph name="Pe-cy" format="2">
  <advance width="600"/>
  <unicode hex="041F"/>
  <outline>
    <contour>
      <point x="40" y="0" type="line"/>
      <point x="220" y="0" type="line"/>
      <point x="220" y="552" type="line"/>
      <point x="380" y="552" type="line"/>
      <point x="380" y="0" type="line"/>
      <point x="560" y="0" type="line"/>
      <point x="560" y="710" type="line"/>
      <point x="40" y="710" type="line"/>
    </contour>
  </outline>
</glyph>
<glyph name="U-cy" format="2">
  <advance width="600"/>
  <unicode hex="0423"/>
  <anchor x="300" y="710" name="top"/>
  <outline>
    <contour>
      <point x="90" y="0" type="line"/>
      <point x="210" y="0" type="line" smooth="yes"/>
      <point x="303" y="0"/>
      <point x="351" y="35"/>
      <point x="380" y="120" type="curve" smooth="yes"/>
      <point x="580" y="710" type="line"/>
      <point x="400" y="710" type="line"/>
      <point x="240" y="190" type="line" smooth="yes"/>
      <point x="228" y="152"/>
      <point x="209" y="146"/>
      <point x="170" y="146" type="curve" smooth="yes"/>
      <point x="90" y="146" type="line"/>
    </contour>
    <contour>
      <point x="198" y="226" type="line"/>
      <point x="264" y="226" type="line"/>
      <point x="310" y="360" type="line"/>
      <point x="200" y="710" type="line"/>
      <point x="20" y="710" type="line"/>
    </contour>
  </outline>
</glyph>
<glyph name="Ef-cy" format="2">
  <advance width="600"/>
  <unicode hex="0424"/>
  <outline>
    <contour>
      <point x="225" y="73" type="curve" smooth="yes"/>
      <point x="375" y="73" type="line" smooth="yes"/>
      <point x="518" y="73"/>
      <point x="598" y="173"/>
      <point x="598" y="355" type="curve" smooth="yes"/>
      <point x="598" y="537"/>
      <point x="518" y="637"/>
      <point x="375" y="637" type="curve" smooth="yes"/>
      <point x="225" y="637" type="line" smooth="yes"/>
      <point x="82" y="637"/>
      <point x="2" y="537"/>
      <point x="2" y="355" type="curve" smooth="yes"/>
      <point x="2" y="173"/>
      <point x="82" y="73"/>
    </contour>
    <contour>
      <point x="375" y="230" type="curve" smooth="yes"/>
      <point x="225" y="230" type="line" smooth="yes"/>
      <point x="176" y="230"/>
      <point x="158" y="275"/>
      <point x="158" y="355" type="curve" smooth="yes"/>
      <point x="158" y="435"/>
      <point x="176" y="480"/>
      <point x="225" y="480" type="curve" smooth="yes"/>
      <point x="375" y="480" type="line" smooth="yes"/>
      <point x="424" y="480"/>
      <point x="442" y="435"/>
      <point x="442" y="355" type="curve" smooth="yes"/>
      <point x="442" y="275"/>
      <point x="424" y="230"/>
    </contour>
    <contour>
      <point x="225" y="-16" type="line"/>
      <point x="375" y="-16" type="line"/>
      <point x="375" y="726" type="line"/>
      <point x="225" y="726" type="line"/>
    </contour>
  </outline>
</glyph>
<glyph name="Tse-cy" format="2">
  <advance width="600"/>
  <unicode hex="0426"/>
  <outline>
    <contour>
      <point x="30" y="0" type="line"/>
      <point x="530" y="0" type="line"/>
      <point x="530" y="710" type="line"/>
      <point x="350" y="710" type="line"/>
      <point x="350" y="158" type="line"/>
      <point x="210" y="158" type="line"/>
      <point x="210" y="710" type="line"/>
      <point x="30" y="710" type="line"/>
    </contour>
    <contour>
      <point x="400" y="-150" type="line"/>
      <point x="580" y="-150" type="line"/>
      <point x="580" y="158" type="line"/>
      <point x="363" y="158" type="line"/>
      <point x="363" y="0" type="line"/>
      <point x="400" y="0" type="line"/>
    </contour>
  </outline>
</glyph>
<glyph name="Che-cy" format="2">
  <advance width="600"/>
  <unicode hex="0427"/>
  <outline>
    <contour>
      <point x="370" y="0" type="line"/>
      <point x="550" y="0" type="line"/>
      <point x="550" y="710" type="line"/>
      <point x="370" y="710" type="line"/>
      <point x="370" y="418" type="line"/>
      <point x="348" y="396"/>
      <point x="314" y="384"/>
      <point x="278" y="384" type="curve" smooth="yes"/>
      <point x="238" y="384"/>
      <point x="210" y="406"/>
      <point x="210" y="456" type="curve" smooth="yes"/>
      <point x="210" y="710" type="line"/>
      <point x="30" y="710" type="line"/>
      <point x="30" y="426" type="line" smooth="yes"/>
      <point x="30" y="270"/>
      <point x="105" y="227"/>
      <point x="218" y="227" type="curve" smooth="yes"/>
      <point x="306" y="227"/>
      <point x="365" y="256"/>
      <point x="410" y="288" type="curve"/>
      <point x="370" y="326" type="line"/>
    </contour>
  </outline>
</glyph>
<glyph name="Sha-cy" format="2">
  <advance width="600"/>
  <unicode hex="0428"/>
  <outline>
    <contour>
      <point x="20" y="0" type="line"/>
      <point x="580" y="0" type="line"/>
      <point x="580" y="710" type="line"/>
      <point x="428" y="710" type="line"/>
      <point x="428" y="158" type="line"/>
      <point x="366" y="158" type="line"/>
      <point x="366" y="710" type="line"/>
      <point x="234" y="710" type="line"/>
      <point x="234" y="158" type="line"/>
      <point x="172" y="158" type="line"/>
      <point x="172" y="710" type="line"/>
      <point x="20" y="710" type="line"/>
    </contour>
  </outline>
</glyph>
<glyph name="Shcha-cy" format="2">
  <advance width="600"/>
  <unicode hex="0429"/>
  <outline>
    <contour>
      <point x="14" y="0" type="line"/>
      <point x="550" y="0" type="line"/>
      <point x="550" y="710" type="line"/>
      <point x="405" y="710" type="line"/>
      <point x="405" y="158" type="line"/>
      <point x="345" y="158" type="line"/>
      <point x="345" y="710" type="line"/>
      <point x="219" y="710" type="line"/>
      <point x="219" y="158" type="line"/>
      <point x="160" y="158" type="line"/>
      <point x="160" y="710" type="line"/>
      <point x="14" y="710" type="line"/>
    </contour>
    <contour>
      <point x="430" y="-150" type="line"/>
      <point x="590" y="-150" type="line"/>
      <point x="590" y="158" type="line"/>
      <point x="423" y="158" type="line"/>
      <point x="383" y="0" type="line"/>
      <point x="430" y="0" type="line"/>
    </contour>
  </outline>
</glyph>
<glyph name="Hardsign-cy" format="2">
  <advance width="600"/>
  <unicode hex="042A"/>
  <outline>
    <contour>
      <point x="86" y="0" type="line"/>
      <point x="322" y="0" type="line" smooth="yes"/>
      <point x="480" y="0"/>
      <point x="580" y="93"/>
      <point x="580" y="253" type="curve" smooth="yes"/>
      <point x="580" y="412"/>
      <point x="480" y="505"/>
      <point x="322" y="505" type="curve" smooth="yes"/>
      <point x="266" y="505" type="line"/>
      <point x="266" y="710" type="line"/>
      <point x="10" y="710" type="line"/>
      <point x="10" y="552" type="line"/>
      <point x="155" y="552" type="line"/>
      <point x="86" y="621" type="line"/>
    </contour>
    <contour>
      <point x="266" y="157" type="line"/>
      <point x="266" y="348" type="line"/>
      <point x="307" y="348" type="line" smooth="yes"/>
      <point x="362" y="348"/>
      <point x="396" y="319"/>
      <point x="396" y="253" type="curve" smooth="yes"/>
      <point x="396" y="187"/>
      <point x="363" y="157"/>
      <point x="307" y="157" type="curve" smooth="yes"/>
    </contour>
  </outline>
</glyph>
<glyph name="Yeru-cy" format="2">
  <advance width="600"/>
  <unicode hex="042B"/>
  <outline>
    <contour>
      <point x="10" y="0" type="line"/>
      <point x="187" y="0" type="line" smooth="yes"/>
      <point x="320" y="0"/>
      <point x="394" y="85"/>
      <point x="394" y="253" type="curve" smooth="yes"/>
      <point x="394" y="421"/>
      <point x="320" y="505"/>
      <point x="187" y="505" type="curve" smooth="yes"/>
      <point x="168" y="505" type="line"/>
      <point x="168" y="710" type="line"/>
      <point x="10" y="710" type="line"/>
    </contour>
    <contour>
      <point x="168" y="157" type="line"/>
      <point x="168" y="348" type="line"/>
      <point x="182" y="348" type="line" smooth="yes"/>
      <point x="217" y="348"/>
      <point x="234" y="327"/>
      <point x="234" y="253" type="curve" smooth="yes"/>
      <point x="234" y="179"/>
      <point x="218" y="157"/>
      <point x="182" y="157" type="curve" smooth="yes"/>
    </contour>
    <contour>
      <point x="432" y="0" type="line"/>
      <point x="590" y="0" type="line"/>
      <point x="590" y="710" type="line"/>
      <point x="432" y="710" type="line"/>
    </contour>
  </outline>
</glyph>
<glyph name="Softsign-cy" format="2">
  <advance width="600"/>
  <unicode hex="042C"/>
  <outline>
    <contour>
      <point x="40" y="0" type="line"/>
      <point x="309" y="0" type="line" smooth="yes"/>
      <point x="467" y="0"/>
      <point x="570" y="93"/>
      <point x="570" y="253" type="curve" smooth="yes"/>
      <point x="570" y="412"/>
      <point x="467" y="505"/>
      <point x="309" y="505" type="curve" smooth="yes"/>
      <point x="220" y="505" type="line"/>
      <point x="220" y="710" type="line"/>
      <point x="40" y="710" type="line"/>
    </contour>
    <contour>
      <point x="220" y="157" type="line"/>
      <point x="220" y="348" type="line"/>
      <point x="294" y="348" type="line" smooth="yes"/>
      <point x="349" y="348"/>
      <point x="386" y="319"/>
      <point x="386" y="253" type="curve" smooth="yes"/>
      <point x="386" y="187"/>
      <point x="350" y="157"/>
      <point x="294" y="157" type="curve" smooth="yes"/>
    </contour>
  </outline>
</glyph>
<glyph name="Yu-cy" format="2">
  <advance width="600"/>
  <unicode hex="042E"/>
  <outline>
    <contour>
      <point x="400" y="-16" type="curve" smooth="yes"/>
      <point x="534" y="-16"/>
      <point x="592" y="97"/>
      <point x="592" y="354" type="curve" smooth="yes"/>
      <point x="592" y="613"/>
      <point x="534" y="726"/>
      <point x="400" y="726" type="curve" smooth="yes"/>
      <point x="268" y="726"/>
      <point x="210" y="613"/>
      <point x="210" y="354" type="curve" smooth="yes"/>
      <point x="210" y="97"/>
      <point x="268" y="-16"/>
    </contour>
    <contour>
      <point x="10" y="0" type="line"/>
      <point x="170" y="0" type="line"/>
      <point x="170" y="710" type="line"/>
      <point x="10" y="710" type="line"/>
    </contour>
    <contour>
      <point x="140" y="278" type="line"/>
      <point x="267" y="278" type="line"/>
      <point x="267" y="436" type="line"/>
      <point x="140" y="436" type="line"/>
    </contour>
    <contour>
      <point x="400" y="124" type="curve" smooth="yes"/>
      <point x="374" y="124"/>
      <point x="360" y="164"/>
      <point x="360" y="354" type="curve" smooth="yes"/>
      <point x="360" y="544"/>
      <point x="374" y="586"/>
      <point x="400" y="586" type="curve" smooth="yes"/>
      <point x="427" y="586"/>
      <point x="442" y="544"/>
      <point x="442" y="354" type="curve" smooth="yes"/>
      <point x="442" y="164"/>
      <point x="427" y="124"/>
    </contour>
  </outline>
</glyph>
<glyph name="Ya-cy" format="2">
  <advance width="600"/>
  <unicode hex="042F"/>
  <anchor x="326" y="0" name="bottom"/>
  <anchor x="310" y="710" name="top"/>
  <outline>
    <contour>
      <point x="390" y="0" type="line"/>
      <point x="570" y="0" type="line"/>
      <point x="570" y="710" type="line"/>
      <point x="322" y="710" type="line" smooth="yes"/>
      <point x="161" y="710"/>
      <point x="38" y="627"/>
      <point x="38" y="463" type="curve" smooth="yes"/>
      <point x="38" y="299"/>
      <point x="161" y="216"/>
      <point x="322" y="216" type="curve" smooth="yes"/>
      <point x="390" y="216" type="line"/>
    </contour>
    <contour>
      <point x="30" y="0" type="line"/>
      <point x="226" y="0" type="line"/>
      <point x="352" y="258" type="line"/>
      <point x="187" y="294" type="line"/>
    </contour>
    <contour>
      <point x="322" y="373" type="line" smooth="yes"/>
      <point x="262" y="373"/>
      <point x="222" y="407"/>
      <point x="222" y="463" type="curve" smooth="yes"/>
      <point x="222" y="519"/>
      <point x="262" y="553"/>
      <point x="322" y="553" type="curve" smooth="yes"/>
      <point x="390" y="553" type="line"/>
      <point x="390" y="373" type="line"/>
    </contour>
  </outline>
</glyph>
<glyph name="be-cy" format="2">
  <advance width="600"/>
  <unicode hex="0431"/>
  <outline>
    <contour>
      <point x="302" y="-12" type="curve" smooth="yes"/>
      <point x="473" y="-12"/>
      <point x="570" y="77"/>
      <point x="570" y="234" type="curve" smooth="yes"/>
      <point x="570" y="387"/>
      <point x="473" y="472"/>
      <point x="358" y="472" type="curve" smooth="yes"/>
      <point x="257" y="472"/>
      <point x="192" y="420"/>
      <point x="182" y="350" type="curve"/>
      <point x="199" y="350" type="line"/>
      <point x="199" y="474"/>
      <point x="218" y="505"/>
      <point x="368" y="531" type="curve" smooth="yes"/>
      <point x="507" y="555"/>
      <point x="541" y="600"/>
      <point x="541" y="710" type="curve"/>
      <point x="355" y="710" type="line"/>
      <point x="355" y="688"/>
      <point x="342" y="676"/>
      <point x="323" y="672" type="curve" smooth="yes"/>
      <point x="125" y="628"/>
      <point x="30" y="552"/>
      <point x="30" y="312" type="curve" smooth="yes"/>
      <point x="30" y="92"/>
      <point x="124" y="-12"/>
    </contour>
    <contour>
      <point x="298" y="127" type="curve" smooth="yes"/>
      <point x="243" y="127"/>
      <point x="209" y="160"/>
      <point x="210" y="230" type="curve" smooth="yes"/>
      <point x="211" y="301"/>
      <point x="248" y="333"/>
      <point x="300" y="333" type="curve" smooth="yes"/>
      <point x="355" y="333"/>
      <point x="390" y="298"/>
      <point x="390" y="230" type="curve" smooth="yes"/>
      <point x="390" y="160"/>
      <point x="354" y="127"/>
    </contour>
  </outline>
</glyph>
<glyph name="ve-cy" format="2">
  <advance width="600"/>
  <unicode hex="0432"/>
  <outline>
    <contour>
      <point x="64" y="0" type="line"/>
      <point x="364" y="0" type="line" smooth="yes"/>
      <point x="495" y="0"/>
      <point x="556" y="47"/>
      <point x="556" y="146" type="curve" smooth="yes"/>
      <point x="556" y="220"/>
      <point x="512" y="272"/>
      <point x="402" y="280" type="curve"/>
      <point x="402" y="278" type="line"/>
      <point x="486" y="286"/>
      <point x="533" y="327"/>
      <point x="533" y="401" type="curve" smooth="yes"/>
      <point x="533" y="489"/>
      <point x="484" y="540"/>
      <point x="340" y="540" type="curve" smooth="yes"/>
      <point x="64" y="540" type="line"/>
    </contour>
    <contour>
      <point x="234" y="130" type="line"/>
      <point x="234" y="224" type="line"/>
      <point x="326" y="224" type="line" smooth="yes"/>
      <point x="359" y="224"/>
      <point x="380" y="206"/>
      <point x="380" y="175" type="curve" smooth="yes"/>
      <point x="380" y="146"/>
      <point x="358" y="130"/>
      <point x="326" y="130" type="curve" smooth="yes"/>
    </contour>
    <contour>
      <point x="234" y="324" type="line"/>
      <point x="234" y="410" type="line"/>
      <point x="305" y="410" type="line" smooth="yes"/>
      <point x="342" y="410"/>
      <point x="357" y="393"/>
      <point x="357" y="366" type="curve" smooth="yes"/>
      <point x="357" y="339"/>
      <point x="339" y="324"/>
      <point x="305" y="324" type="curve" smooth="yes"/>
    </contour>
  </outline>
</glyph>
<glyph name="ge-cy" format="2">
  <advance width="600"/>
  <unicode hex="0433"/>
  <anchor x="328" y="540" name="top"/>
  <outline>
    <contour>
      <point x="100" y="0" type="line"/>
      <point x="270" y="0" type="line"/>
      <point x="270" y="498" type="line"/>
      <point x="182" y="400" type="line"/>
      <point x="530" y="400" type="line"/>
      <point x="530" y="540" type="line"/>
      <point x="100" y="540" type="line"/>
    </contour>
  </outline>
</glyph>
<glyph name="de-cy" format="2">
  <advance width="600"/>
  <unicode hex="0434"/>
  <outline>
    <contour>
      <point x="34" y="106" type="curve"/>
      <point x="164" y="70" type="line"/>
      <point x="202" y="96"/>
      <point x="262" y="144"/>
      <point x="274" y="274" type="curve" smooth="yes"/>
      <point x="286" y="400" type="line"/>
      <point x="360" y="400" type="line"/>
      <point x="360" y="40" type="line"/>
      <point x="530" y="40" type="line"/>
      <point x="530" y="540" type="line"/>
      <point x="144" y="540" type="line"/>
      <point x="120" y="288" type="line" smooth="yes"/>
      <point x="108" y="160"/>
      <point x="64" y="126"/>
    </contour>
    <contour>
      <point x="10" y="-100" type="line"/>
      <point x="170" y="-100" type="line"/>
      <point x="170" y="0" type="line"/>
      <point x="430" y="0" type="line"/>
      <point x="430" y="-100" type="line"/>
      <point x="590" y="-100" type="line"/>
      <point x="590" y="140" type="line"/>
      <point x="10" y="140" type="line"/>
    </contour>
  </outline>
</glyph>
<glyph name="zhe-cy" format="2">
  <advance width="600"/>
  <unicode hex="0436"/>
  <outline>
    <contour>
      <point x="230" y="0" type="line"/>
      <point x="370" y="0" type="line"/>
      <point x="370" y="540" type="line"/>
      <point x="230" y="540" type="line"/>
    </contour>
    <contour>
      <point x="446" y="0" type="line"/>
      <point x="600" y="0" type="line"/>
      <point x="499" y="264" type="line"/>
      <point x="598" y="540" type="line"/>
      <point x="444" y="540" type="line"/>
      <point x="359" y="264" type="line"/>
    </contour>
    <contour>
      <point x="154" y="0" type="line"/>
      <point x="241" y="264" type="line"/>
      <point x="156" y="540" type="line"/>
      <point x="2" y="540" type="line"/>
      <point x="101" y="264" type="line"/>
      <point x="0" y="0" type="line"/>
    </contour>
  </outline>
</glyph>
<glyph name="ze-cy" format="2">
  <advance width="600"/>
  <unicode hex="0437"/>
  <anchor x="300" y="0" name="bottom"/>
  <anchor x="300" y="540" name="top"/>
  <outline>
    <contour>
      <point x="298" y="-12" type="curve" smooth="yes"/>
      <point x="446" y="-12"/>
      <point x="540" y="48"/>
      <point x="540" y="150" type="curve" smooth="yes"/>
      <point x="540" y="240"/>
      <point x="479" y="278"/>
      <point x="369" y="288" type="curve"/>
      <point x="369" y="275" type="line"/>
      <point x="477" y="285"/>
      <point x="534" y="317"/>
      <point x="534" y="396" type="curve" smooth="yes"/>
      <point x="534" y="488"/>
      <point x="463" y="552"/>
      <point x="297" y="552" type="curve" smooth="yes"/>
      <point x="148" y="552"/>
      <point x="74" y="490"/>
      <point x="62" y="384" type="curve"/>
      <point x="232" y="380" type="line"/>
      <point x="234" y="405"/>
      <point x="249" y="418"/>
      <point x="296" y="418" type="curve" smooth="yes"/>
      <point x="337" y="418"/>
      <point x="359" y="401"/>
      <point x="359" y="372" type="curve" smooth="yes"/>
      <point x="359" y="339"/>
      <point x="341" y="328"/>
      <point x="304" y="328" type="curve" smooth="yes"/>
      <point x="228" y="328" type="line"/>
      <point x="228" y="222" type="line"/>
      <point x="304" y="222" type="line" smooth="yes"/>
      <point x="344" y="222"/>
      <point x="365" y="204"/>
      <point x="365" y="172" type="curve" smooth="yes"/>
      <point x="365" y="138"/>
      <point x="340" y="122"/>
      <point x="300" y="122" type="curve" smooth="yes"/>
      <point x="252" y="122"/>
      <point x="232" y="142"/>
      <point x="230" y="182" type="curve"/>
      <point x="60" y="178" type="line"/>
      <point x="72" y="54"/>
      <point x="148" y="-12"/>
    </contour>
  </outline>
</glyph>
<glyph name="ii-cy" format="2">
  <advance width="600"/>
  <unicode hex="0438"/>
  <anchor x="300" y="540" name="top"/>
  <outline>
    <contour>
      <point x="50" y="0" type="line"/>
      <point x="196" y="0" type="line"/>
      <point x="422" y="325" type="line"/>
      <point x="382" y="337" type="line"/>
      <point x="382" y="0" type="line"/>
      <point x="550" y="0" type="line"/>
      <point x="550" y="540" type="line"/>
      <point x="404" y="540" type="line"/>
      <point x="178" y="215" type="line"/>
      <point x="218" y="203" type="line"/>
      <point x="218" y="540" type="line"/>
      <point x="50" y="540" type="line"/>
    </contour>
  </outline>
</glyph>
<glyph name="ka-cy" format="2">
  <advance width="600"/>
  <unicode hex="043A"/>
  <anchor x="290" y="0" name="bottom"/>
  <anchor x="290" y="540" name="top"/>
  <outline>
    <contour>
      <point x="375" y="0" type="line"/>
      <point x="570" y="0" type="line"/>
      <point x="361" y="264" type="line"/>
      <point x="568" y="540" type="line"/>
      <point x="373" y="540" type="line"/>
      <point x="182" y="264" type="line"/>
    </contour>
    <contour>
      <point x="30" y="0" type="line"/>
      <point x="200" y="0" type="line"/>
      <point x="200" y="540" type="line"/>
      <point x="30" y="540" type="line"/>
    </contour>
  </outline>
</glyph>
<glyph name="el-cy" format="2">
  <advance width="600"/>
  <unicode hex="043B"/>
  <anchor x="300" y="0" name="bottom"/>
  <outline>
    <contour>
      <point x="30" y="-4" type="line"/>
      <point x="100" y="-4" type="line" smooth="yes"/>
      <point x="190" y="-4"/>
      <point x="224" y="39"/>
      <point x="234" y="136" type="curve" smooth="yes"/>
      <point x="260" y="400" type="line"/>
      <point x="400" y="400" type="line"/>
      <point x="400" y="0" type="line"/>
      <point x="570" y="0" type="line"/>
      <point x="570" y="540" type="line"/>
      <point x="130" y="540" type="line"/>
      <point x="92" y="178" type="line" smooth="yes"/>
      <point x="89" y="146"/>
      <point x="79" y="140"/>
      <point x="52" y="140" type="curve" smooth="yes"/>
      <point x="30" y="140" type="line"/>
    </contour>
  </outline>
</glyph>
<glyph name="em-cy" format="2">
  <advance width="600"/>
  <unicode hex="043C"/>
  <outline>
    <contour>
      <point x="10" y="0" type="line"/>
      <point x="170" y="0" type="line"/>
      <point x="170" y="320" type="line"/>
      <point x="136" y="315" type="line"/>
      <point x="248" y="0" type="line"/>
      <point x="352" y="0" type="line"/>
      <point x="464" y="315" type="line"/>
      <point x="430" y="320" type="line"/>
      <point x="430" y="0" type="line"/>
      <point x="590" y="0" type="line"/>
      <point x="590" y="540" type="line"/>
      <point x="416" y="540" type="line"/>
      <point x="275" y="173" type="line"/>
      <point x="325" y="173" type="line"/>
      <point x="184" y="540" type="line"/>
      <point x="10" y="540" type="line"/>
    </contour>
  </outline>
</glyph>
<glyph name="en-cy" format="2">
  <advance width="600"/>
  <unicode hex="043D"/>
  <outline>
    <contour>
      <point x="40" y="0" type="line"/>
      <point x="210" y="0" type="line"/>
      <point x="210" y="541" type="line"/>
      <point x="40" y="541" type="line"/>
    </contour>
    <contour>
      <point x="81" y="220" type="line"/>
      <point x="498" y="220" type="line"/>
      <point x="498" y="360" type="line"/>
      <point x="81" y="360" type="line"/>
    </contour>
    <contour>
      <point x="390" y="0" type="line"/>
      <point x="560" y="0" type="line"/>
      <point x="560" y="540" type="line"/>
      <point x="390" y="540" type="line"/>
    </contour>
  </outline>
</glyph>
<glyph name="pe-cy" format="2">
  <advance width="600"/>
  <unicode hex="043F"/>
  <outline>
    <contour>
      <point x="60" y="0" type="line"/>
      <point x="230" y="0" type="line"/>
      <point x="230" y="400" type="line"/>
      <point x="370" y="400" type="line"/>
      <point x="370" y="0" type="line"/>
      <point x="540" y="0" type="line"/>
      <point x="540" y="540" type="line"/>
      <point x="60" y="540" type="line"/>
    </contour>
  </outline>
</glyph>
<glyph name="te-cy" format="2">
  <advance width="600"/>
  <unicode hex="0442"/>
  <outline>
    <contour>
      <point x="215" y="0" type="line"/>
      <point x="385" y="0" type="line"/>
      <point x="385" y="400" type="line"/>
      <point x="544" y="400" type="line"/>
      <point x="544" y="540" type="line"/>
      <point x="56" y="540" type="line"/>
      <point x="56" y="400" type="line"/>
      <point x="215" y="400" type="line"/>
    </contour>
  </outline>
</glyph>
<glyph name="ef-cy" format="2">
  <advance width="600"/>
  <unicode hex="0444"/>
  <outline>
    <contour>
      <point x="226" y="-150" type="line"/>
      <point x="374" y="-150" type="line"/>
      <point x="374" y="0" type="line"/>
      <point x="504" y="0"/>
      <point x="598" y="86"/>
      <point x="598" y="270" type="curve" smooth="yes"/>
      <point x="598" y="444"/>
      <point x="504" y="540"/>
      <point x="374" y="540" type="curve"/>
      <point x="374" y="710" type="line"/>
      <point x="226" y="710" type="line"/>
      <point x="226" y="540" type="line"/>
      <point x="96" y="540"/>
      <point x="2" y="444"/>
      <point x="2" y="270" type="curve" smooth="yes"/>
      <point x="2" y="86"/>
      <point x="96" y="0"/>
      <point x="226" y="0" type="curve"/>
    </contour>
    <contour>
      <point x="226" y="140" type="line"/>
      <point x="180" y="140"/>
      <point x="154" y="180"/>
      <point x="154" y="270" type="curve" smooth="yes"/>
      <point x="154" y="360"/>
      <point x="180" y="399"/>
      <point x="226" y="399" type="curve"/>
    </contour>
    <contour>
      <point x="374" y="140" type="curve"/>
      <point x="374" y="399" type="line"/>
      <point x="420" y="399"/>
      <point x="446" y="360"/>
      <point x="446" y="270" type="curve" smooth="yes"/>
      <point x="446" y="180"/>
      <point x="420" y="140"/>
    </contour>
  </outline>
</glyph>
<glyph name="tse-cy" format="2">
  <advance width="600"/>
  <unicode hex="0446"/>
  <outline>
    <contour>
      <point x="30" y="0" type="line"/>
      <point x="510" y="0" type="line"/>
      <point x="510" y="540" type="line"/>
      <point x="340" y="540" type="line"/>
      <point x="340" y="140" type="line"/>
      <point x="200" y="140" type="line"/>
      <point x="200" y="540" type="line"/>
      <point x="30" y="540" type="line"/>
    </contour>
    <contour>
      <point x="400" y="-100" type="line"/>
      <point x="570" y="-100" type="line"/>
      <point x="570" y="140" type="line"/>
      <point x="365" y="140" type="line"/>
      <point x="365" y="0" type="line"/>
      <point x="400" y="0" type="line"/>
    </contour>
  </outline>
</glyph>
<glyph name="che-cy" format="2">
  <advance width="600"/>
  <unicode hex="0447"/>
  <outline>
    <contour>
      <point x="360" y="0" type="line"/>
      <point x="530" y="0" type="line"/>
      <point x="530" y="540" type="line"/>
      <point x="360" y="540" type="line"/>
      <point x="360" y="320" type="line"/>
      <point x="340" y="306"/>
      <point x="312" y="296"/>
      <point x="276" y="296" type="curve" smooth="yes"/>
      <point x="226" y="296"/>
      <point x="200" y="310"/>
      <point x="200" y="370" type="curve" smooth="yes"/>
      <point x="200" y="540" type="line"/>
      <point x="30" y="540" type="line"/>
      <point x="30" y="332" type="line" smooth="yes"/>
      <point x="30" y="202"/>
      <point x="96" y="148"/>
      <point x="218" y="148" type="curve" smooth="yes"/>
      <point x="315" y="148"/>
      <point x="377" y="171"/>
      <point x="420" y="204" type="curve"/>
      <point x="360" y="270" type="line"/>
    </contour>
  </outline>
</glyph>
<glyph name="sha-cy" format="2">
  <advance width="600"/>
  <unicode hex="0448"/>
  <outline>
    <contour>
      <point x="20" y="0" type="line"/>
      <point x="580" y="0" type="line"/>
      <point x="580" y="540" type="line"/>
      <point x="440" y="540" type="line"/>
      <point x="440" y="140" type="line"/>
      <point x="370" y="140" type="line"/>
      <point x="370" y="540" type="line"/>
      <point x="230" y="540" type="line"/>
      <point x="230" y="140" type="line"/>
      <point x="160" y="140" type="line"/>
      <point x="160" y="540" type="line"/>
      <point x="20" y="540" type="line"/>
    </contour>
  </outline>
</glyph>
